<?xml version="1.0" encoding="utf-8"?>
<!-- Generator: Adobe Illustrator 22.0.1, SVG Export Plug-In . SVG Version: 6.00 Build 0)  -->
<svg version="1.1" id="圖層_1" xmlns="http://www.w3.org/2000/svg" xmlns:xlink="http://www.w3.org/1999/xlink" x="0px" y="0px"
	 viewBox="0 0 150 150" style="enable-background:new 0 0 150 150;" xml:space="preserve">
<style type="text/css">
	.st0{fill:#FFFFFF;}
	.st1{fill:#FA7805;stroke:#FFFFFF;stroke-width:9;stroke-miterlimit:10;}
	.st2{fill:#FA7805;}
</style>
<g>
	<rect x="10" y="9.7" class="st0" width="130.1" height="130.1"/>
	<path class="st0" d="M122.9,147.9H27.1c-14.6,0-26.4-11.8-26.4-26.4V28.5C0.7,14,12.5,2.1,27.1,2.1h95.9
		c14.6,0,26.4,11.8,26.4,26.4v92.9C149.3,136,137.5,147.9,122.9,147.9z M32.1,11.4C19.9,11.4,10,21.4,10,33.6v82.8
		c0,12.2,9.9,22.2,22.2,22.2h85.7c12.2,0,22.2-9.9,22.2-22.2V33.6c0-12.2-9.9-22.2-22.2-22.2H32.1z"/>
</g>
<title>icon</title>
<path class="st1" d="M-158.4,3.9h125.8c2.5,0,4.6,2,4.6,4.6v123c0,2.5-2,4.6-4.6,4.6h-125.8c-2.5,0-4.6-2-4.6-4.6V8.5
	C-163,6-160.9,3.9-158.4,3.9z"/>
<path class="st2" d="M34.5,17.4h81c10.1,0,18.4,8.2,18.4,18.4v78.5c0,10.1-8.2,18.4-18.4,18.4h-81c-10.1,0-18.4-8.2-18.4-18.4V35.7
	C16.2,25.6,24.4,17.4,34.5,17.4z"/>
</svg>
