<?xml version="1.0" encoding="utf-8"?>
<!-- Generator: Adobe Illustrator 22.0.1, SVG Export Plug-In . SVG Version: 6.00 Build 0)  -->
<svg version="1.1" id="圖層_1" xmlns="http://www.w3.org/2000/svg" xmlns:xlink="http://www.w3.org/1999/xlink" x="0px" y="0px"
	 viewBox="0 0 88 88" style="enable-background:new 0 0 88 88;" xml:space="preserve">
<style type="text/css">
	.st0{fill:#FFFFFF;}
	.st1{fill:none;stroke:#FFFFFF;stroke-width:2;stroke-linecap:round;stroke-linejoin:round;}
	.st2{fill:none;stroke:#FFFFFF;stroke-width:2;stroke-miterlimit:10;}
</style>
<title>icon</title>
<path class="st0" d="M11.3,29.9c0.8,0,1.4,0.6,1.4,1.4c0,0.8-0.6,1.4-1.4,1.5c-0.8,0-1.5-0.7-1.5-1.5c0-0.8,0.6-1.4,1.4-1.4
	C11.2,29.9,11.3,29.9,11.3,29.9 M11.3,27.9c-1.9-0.1-3.5,1.5-3.6,3.4c-0.1,1.9,1.5,3.5,3.4,3.6s3.5-1.5,3.6-3.4c0-0.1,0-0.1,0-0.2
	C14.7,29.4,13.2,27.9,11.3,27.9z"/>
<path class="st0" d="M37.6,13.4c0.8,0,1.4,0.6,1.4,1.4c0,0.8-0.6,1.4-1.4,1.5c-0.8,0-1.5-0.7-1.5-1.5c0-0.8,0.6-1.4,1.4-1.4
	C37.5,13.4,37.6,13.4,37.6,13.4 M37.6,11.4c-1.9-0.1-3.5,1.5-3.6,3.4c-0.1,1.9,1.5,3.5,3.4,3.6c1.9,0.1,3.5-1.5,3.6-3.4
	c0-0.1,0-0.1,0-0.2C41,12.9,39.5,11.4,37.6,11.4z"/>
<path class="st0" d="M20.1,13.4c0.8,0,1.4,0.6,1.4,1.4c0,0.8-0.6,1.4-1.4,1.5c-0.8,0-1.5-0.7-1.5-1.5c0-0.8,0.6-1.4,1.4-1.4
	C20,13.3,20.1,13.3,20.1,13.4 M20.1,11.4c-1.9-0.1-3.5,1.5-3.6,3.4s1.5,3.5,3.4,3.6s3.5-1.5,3.6-3.4c0-0.1,0-0.1,0-0.2
	C23.5,12.9,22,11.4,20.1,11.4z"/>
<path class="st0" d="M29.2,24.3c0.8,0,1.4,0.6,1.4,1.4c0,0.8-0.6,1.4-1.4,1.5c-0.8,0-1.5-0.7-1.5-1.5c0-0.8,0.6-1.4,1.4-1.4
	C29.1,24.2,29.1,24.2,29.2,24.3 M29.2,22.3c-1.9-0.1-3.5,1.5-3.6,3.4c-0.1,1.9,1.5,3.5,3.4,3.6s3.5-1.5,3.6-3.4c0-0.1,0-0.1,0-0.2
	C32.6,23.8,31,22.3,29.2,22.3z"/>
<path class="st0" d="M54.3,30.8c0.8,0,1.5,0.7,1.5,1.5s-0.7,1.5-1.5,1.5s-1.5-0.7-1.5-1.5S53.5,30.8,54.3,30.8 M54.3,28.8
	c-1.9,0-3.5,1.6-3.5,3.5s1.6,3.5,3.5,3.5s3.5-1.6,3.5-3.5S56.2,28.8,54.3,28.8z"/>
<path class="st0" d="M64,21.9c0.8,0,1.5,0.7,1.5,1.5s-0.7,1.5-1.5,1.5c-0.8,0-1.5-0.7-1.5-1.5S63.2,21.9,64,21.9 M64,19.9
	c-1.9,0-3.5,1.6-3.5,3.5s1.6,3.5,3.5,3.5c1.9,0,3.5-1.6,3.5-3.5S65.9,19.9,64,19.9z"/>
<path class="st0" d="M60.2,10c9.9-0.1,17.9,7.9,18,17.8s-7.9,17.9-17.8,18c-9.9,0.1-17.9-7.9-18-17.8c0,0,0-0.1,0-0.1
	c-0.1-9.8,7.9-17.8,17.7-17.9C60.1,10,60.2,10,60.2,10 M60.2,8c-11-0.1-19.9,8.8-20,19.8S49,47.7,60,47.8S79.9,39,80,28
	c0,0,0-0.1,0-0.1C80,16.9,71.2,8.1,60.2,8z"/>
<path class="st0" d="M60.2,14.9c7.2,0,13,5.8,13,13s-5.8,13-13,13s-13-5.8-13-13S53,14.9,60.2,14.9 M60.2,12.9c-8.3,0-15,6.7-15,15
	s6.7,15,15,15s15-6.7,15-15c0,0,0,0,0,0C75.2,19.6,68.5,12.9,60.2,12.9z"/>
<polyline class="st1" points="26.5,39.7 26.5,56.3 29.5,74.1 26.5,56.3 12.7,67.3 "/>
<line class="st1" x1="26.5" y1="56.3" x2="43.4" y2="59.5"/>
<line class="st1" x1="19.4" y1="44.4" x2="12.7" y2="33.3"/>
<line class="st1" x1="12.7" y1="28.8" x2="18.9" y2="17.2"/>
<line class="st1" x1="21.7" y1="17.2" x2="26.8" y2="23.4"/>
<line class="st1" x1="36.1" y1="16.9" x2="31.3" y2="22.9"/>
<line class="st1" x1="40.2" y1="15.6" x2="61.4" y2="22.3"/>
<line class="st1" x1="61.8" y1="24.8" x2="56.3" y2="30.2"/>
<path class="st0" d="M64,51.7v22.7c0,2.1-1.7,3.8-3.8,3.8c0,0,0,0,0,0c-2.1,0-3.8-1.7-3.9-3.8V51.7H64 M65.5,49.7H54.8
	c-0.3,0-0.5,0.2-0.5,0.5v24.2c0.1,3.2,2.7,5.8,5.9,5.8c3.2,0,5.8-2.6,5.8-5.8l0,0V50.2C66,49.9,65.8,49.7,65.5,49.7z"/>
<line class="st2" x1="57.8" y1="46.4" x2="57.8" y2="50.1"/>
<line class="st2" x1="62.8" y1="46.4" x2="62.8" y2="50.5"/>
<line class="st2" x1="55.3" y1="55.8" x2="64.8" y2="55.8"/>
<path class="st1" d="M33.8,79.2c0,0,11.9-1.3,14.9-14.6l-17.6-3.1L33.8,79.2z"/>
<path class="st0" d="M60.2,73.2c-0.6,0-1.1,0.5-1.1,1.1s0.5,1.1,1.1,1.1c0.6,0,1.1-0.5,1.1-1.1S60.8,73.2,60.2,73.2z"/>
<path class="st0" d="M24.4,38.1C14.1,39.2,6.7,48.4,7.7,58.6c1,9.6,9.1,16.9,18.8,16.8c1.3,0,2.7-0.2,4-0.5c0.1,0,0.2-0.1,0.2-0.2
	l-0.4-1.8c-3,0.8-6.3,0.6-9.2-0.5c-8.7-3-13.4-12.5-10.4-21.2s12.5-13.4,21.2-10.4c6.8,2.3,11.3,8.7,11.3,15.9
	c0,1.2-0.2,2.5-0.4,3.7l1.7,0.3h0.3c0.2-1.3,0.4-2.6,0.4-3.9c0-10.4-8.4-18.8-18.8-18.8C25.7,38,25.1,38,24.4,38.1z"/>
</svg>
