<svg id="圖層_1" data-name="圖層 1" xmlns="http://www.w3.org/2000/svg" viewBox="0 0 88 88"><defs><style>.cls-1,.cls-2{fill:none;stroke:#fcac6d;stroke-width:2px;}.cls-1{stroke-linecap:round;stroke-linejoin:round;}.cls-2{stroke-miterlimit:10;}</style></defs><title>icon</title><rect class="cls-1" x="27" y="6.7" width="54.3" height="5.2"/><line class="cls-1" x1="78.5" y1="11.9" x2="78.5" y2="42.1"/><line class="cls-1" x1="29.8" y1="11.9" x2="29.8" y2="27"/><line class="cls-1" x1="37" y1="42.1" x2="81.3" y2="42.1"/><line class="cls-1" x1="54.1" y1="42.1" x2="54.1" y2="56"/><polyline class="cls-1" points="45.4 55.3 54.1 50.4 62.5 55.3"/><ellipse class="cls-2" cx="16.6" cy="25.8" rx="5.9" ry="6.3"/><ellipse class="cls-1" cx="36.1" cy="66.8" rx="5.9" ry="6.3"/><path class="cls-1" d="M44.9,82.6V78.1a4.6,4.6,0,0,0-4.5-4.6H31.8a4.6,4.6,0,0,0-4.5,4.6v4.5"/><ellipse class="cls-1" cx="53.9" cy="66.8" rx="5.9" ry="6.3"/><path class="cls-1" d="M62.8,82.6V78.1a4.7,4.7,0,0,0-4.6-4.6H49.6a4.6,4.6,0,0,0-4.5,4.6v4.5"/><ellipse class="cls-1" cx="72.1" cy="66.8" rx="5.9" ry="6.3"/><path class="cls-1" d="M80.9,82.6V78.1a4.6,4.6,0,0,0-4.6-4.6H67.8a4.7,4.7,0,0,0-4.6,4.6v4.5"/><line class="cls-1" x1="9.1" y1="71.1" x2="16.7" y2="71.1"/><path class="cls-1" d="M17.1,71.1h7.5l-2.5-4.3V50.4s-.1-14,.4-12.5c2.6,7.5,4.6,7.8,6.4,7.8s3-2.4,3.5-3.6,3.9-9.6,3.4-9.6H31c-.2,0-2.3,8.4-2.6,7.1-1.9-7.4-4.2-6.9-11.7-6.9V45.5"/><polyline class="cls-1" points="11.6 37.3 11.7 50.4 11.7 66.8 9.1 71.1 16.7 71.1"/><line class="cls-1" x1="11.7" y1="50.4" x2="22.1" y2="50.4"/><path class="cls-1" d="M16.7,32.7h-6c-.5,0-3.9.7-3.9,5.2s0,14,0,14.7,4.9.2,4.9.2"/><line class="cls-1" x1="7.3" y1="47.7" x2="11" y2="47.7"/><line class="cls-1" x1="16.9" y1="54.9" x2="16.9" y2="69.9"/><line class="cls-1" x1="29.5" y1="37.3" x2="34.3" y2="37.3"/><polyline class="cls-1" points="63.3 19.3 68.3 21 55.3 29.8 49 24.8 40.6 30.5"/><line class="cls-1" x1="68.3" y1="21" x2="68.3" y2="26"/></svg>