<svg id="圖層_1" data-name="圖層 1" xmlns="http://www.w3.org/2000/svg" viewBox="0 0 88 88"><defs><style>.cls-1{fill:none;stroke:#fcac6d;stroke-linejoin:round;stroke-width:2px;}</style></defs><title>icon</title><polyline class="cls-1" points="27 30 23.3 23.9 40.4 13.7 53.7 36.1 36.6 46.2 33.3 40.7"/><rect class="cls-1" x="39.3" y="40.7" width="15" height="6.31" transform="translate(-15.9 30.2) rotate(-30.8)"/><rect class="cls-1" x="23.1" y="14.3" width="15" height="4.88" transform="translate(-4.2 18) rotate(-30.8)"/><rect class="cls-1" x="18.3" y="9.4" width="19.1" height="5.63" transform="translate(-2.3 16) rotate(-30.8)"/><circle class="cls-1" cx="29.5" cy="35.8" r="6.3"/><path class="cls-1" d="M19.9,73.1H68.4A3.7,3.7,0,0,1,72,76.7v5.9a0,0,0,0,1,0,0H16.3a0,0,0,0,1,0,0V76.7A3.7,3.7,0,0,1,19.9,73.1Z"/><rect class="cls-1" x="37.3" y="57.8" width="31.9" height="6.4" rx="3.2" ry="3.2"/><path class="cls-1" d="M23.6,38.5S17.4,52.8,30.3,61c5.4,3.4,8.2,2.5,8.2,2.5"/><path class="cls-1" d="M28.8,42S26.6,55.6,39.7,57.8"/><line class="cls-1" x1="46.3" y1="64.2" x2="46.3" y2="73.1"/><line class="cls-1" x1="60.3" y1="64.2" x2="60.3" y2="72.3"/><path class="cls-1" d="M35.1,63.6s-3.1,1.2-3.3,3.8a31.9,31.9,0,0,0,0,5.7"/><path class="cls-1" d="M26,73.1s-.1-4.3,0-5.7a8.9,8.9,0,0,1,3.7-6.8"/></svg>