<?xml version="1.0" encoding="utf-8"?>
<!-- Generator: Adobe Illustrator 22.0.1, SVG Export Plug-In . SVG Version: 6.00 Build 0)  -->
<svg version="1.1" id="圖層_1" xmlns="http://www.w3.org/2000/svg" xmlns:xlink="http://www.w3.org/1999/xlink" x="0px" y="0px"
	 viewBox="0 0 88 88" style="enable-background:new 0 0 88 88;" xml:space="preserve">
<style type="text/css">
	.st0{fill:none;stroke:#FCAC6D;stroke-width:2;stroke-miterlimit:10;}
	.st1{fill:#FCAC6D;}
</style>
<title>icon</title>
<g>
	<path class="st0" d="M12.9,48.7h5.4c2.4,0,4.3,1.9,4.3,4.3v26.6l0,0h-14l0,0V53C8.6,50.6,10.5,48.7,12.9,48.7z"/>
	<path class="st0" d="M41.6,38.8H47c2.4,0,4.3,1.9,4.3,4.3v36.7l0,0h-14l0,0V43.1C37.3,40.7,39.2,38.8,41.6,38.8L41.6,38.8z"/>
	<path class="st0" d="M27.3,56.3h5.4c2.4,0,4.3,1.9,4.3,4.3v19.1l0,0H22.9l0,0V60.6c0-2.4,1.9-4.3,4.3-4.3
		C27.2,56.3,27.3,56.3,27.3,56.3z"/>
	<path class="st0" d="M55.6,46.5H61c2.4,0,4.3,1.9,4.3,4.3v28.8l0,0h-14l0,0V50.8C51.3,48.4,53.2,46.5,55.6,46.5z"/>
	<path class="st0" d="M69.6,24.1H75c2.4,0,4.3,1.9,4.3,4.3c0,0,0,0,0,0v51.2l0,0h-14l0,0V28.4C65.3,26,67.2,24.1,69.6,24.1
		C69.6,24.1,69.6,24.1,69.6,24.1z"/>
</g>
<path class="st1" d="M29.8,37.4c1.1,0.1,2,1,2.1,2.1c0,1.2-0.9,2.1-2.1,2.1s-2.1-0.9-2.1-2.1S28.6,37.4,29.8,37.4 M29.8,35.4
	c-2.3,0-4.1,1.8-4.1,4.1s1.8,4.1,4.1,4.1s4.1-1.8,4.1-4.1C33.8,37.3,32,35.5,29.8,35.4z"/>
<path class="st1" d="M15.4,29.4c1.1,0.1,2,1,2.1,2.1c0,1.2-0.9,2.1-2.1,2.1s-2.1-0.9-2.1-2.1S14.2,29.4,15.4,29.4 M15.4,27.4
	c-2.3,0-4.1,1.8-4.1,4.1s1.8,4.1,4.1,4.1s4.1-1.8,4.1-4.1C19.4,29.2,17.6,27.4,15.4,27.4z"/>
<path class="st1" d="M59,27.1c1.2,0,2.1,0.9,2.1,2.1s-0.9,2.1-2.1,2.1s-2.1-0.9-2.1-2.1C57,28.1,57.9,27.2,59,27.1 M59,25.1
	c-2.2,0.1-4,1.9-4.1,4.1c0,2.3,1.8,4.1,4.1,4.1s4.1-1.8,4.1-4.1S61.3,25.1,59,25.1z"/>
<path class="st1" d="M44.5,19.8c1.2,0,2.1,0.9,2.1,2.1S45.6,24,44.5,24s-2.1-0.9-2.1-2.1C42.4,20.8,43.3,19.9,44.5,19.8 M44.5,17.8
	c-2.2,0.1-4,1.9-4.1,4.1c0,2.3,1.8,4.1,4.1,4.1s4.1-1.8,4.1-4.1S46.7,17.8,44.5,17.8z"/>
<path class="st1" d="M73.4,4.6c1.2,0,2.1,0.9,2.1,2.1s-0.9,2.1-2.1,2.1c-1.2,0-2.1-0.9-2.1-2.1C71.4,5.6,72.3,4.7,73.4,4.6
	 M73.4,2.6c-2.3,0-4.1,1.8-4.1,4.1c0,2.3,1.8,4.1,4.1,4.1c2.3,0,4.1-1.8,4.1-4.1c0,0,0,0,0,0C77.5,4.4,75.7,2.6,73.4,2.6z"/>
<line class="st0" x1="71.8" y1="8.9" x2="60.6" y2="26.7"/>
<line class="st0" x1="46.9" y1="22.6" x2="56.5" y2="27.8"/>
<line class="st0" x1="42.8" y1="23.5" x2="31.6" y2="37.5"/>
<line class="st0" x1="17.5" y1="32.7" x2="27" y2="37.8"/>
<path class="st0" d="M6.7,79.8h74.5c1.5,0,2.8,1.3,2.8,2.8l0,0c0,1.5-1.3,2.8-2.8,2.8H6.7c-1.5,0-2.8-1.3-2.8-2.8l0,0
	C3.9,81.1,5.2,79.8,6.7,79.8z"/>
</svg>
