<?xml version="1.0" encoding="utf-8"?>
<!-- Generator: Adobe Illustrator 22.0.1, SVG Export Plug-In . SVG Version: 6.00 Build 0)  -->
<svg version="1.1" id="圖層_1" xmlns="http://www.w3.org/2000/svg" xmlns:xlink="http://www.w3.org/1999/xlink" x="0px" y="0px"
	 viewBox="0 0 88 88" style="enable-background:new 0 0 88 88;" xml:space="preserve">
<style type="text/css">
	.st0{fill:none;stroke:#FCAC6D;stroke-width:3;stroke-miterlimit:10;}
	.st1{fill:#FCAC6D;}
	.st2{fill:none;stroke:#FCAC6D;stroke-width:2.5;stroke-linecap:round;stroke-linejoin:round;}
	.st3{fill:none;stroke:#FCAC6D;stroke-width:2.33;stroke-linecap:round;stroke-linejoin:round;}
</style>
<title>icon</title>
<circle class="st0" cx="44.7" cy="44" r="25.6"/>
<path class="st1" d="M16.2,66.4c3,0,5.5,2.5,5.5,5.5s-2.5,5.5-5.5,5.5s-5.5-2.5-5.5-5.5c-0.1-3,2.3-5.4,5.3-5.5
	C16.1,66.4,16.1,66.4,16.2,66.4 M16.2,63.4c-4.7,0-8.5,3.8-8.5,8.5s3.8,8.5,8.5,8.5s8.5-3.8,8.5-8.5S20.9,63.4,16.2,63.4z"/>
<path class="st1" d="M67.5,70.3c1.9,0,3.5,1.6,3.5,3.5s-1.6,3.5-3.5,3.5S64,75.7,64,73.8S65.6,70.3,67.5,70.3 M67.5,67.3
	c-3.6,0-6.5,2.9-6.5,6.5s2.9,6.5,6.5,6.5s6.5-2.9,6.5-6.5S71.1,67.3,67.5,67.3L67.5,67.3z"/>
<path class="st1" d="M71,12.1c2.1,0,3.8,1.7,3.8,3.8s-1.7,3.8-3.8,3.8s-3.8-1.7-3.8-3.8S68.9,12.1,71,12.1 M71,8.8
	c-3.9,0-7.1,3.2-7.1,7.1S67.1,23,71,23s7.1-3.2,7.1-7.1S74.9,8.8,71,8.8L71,8.8z"/>
<path class="st1" d="M20.4,9.5c2.1,0,3.8,1.7,3.8,3.8s-1.7,3.8-3.8,3.8s-3.8-1.7-3.8-3.8S18.3,9.5,20.4,9.5 M20.4,6.2
	c-3.9,0-7.1,3.2-7.1,7.1s3.2,7.1,7.1,7.1s7.1-3.2,7.1-7.1S24.3,6.2,20.4,6.2L20.4,6.2z"/>
<line class="st0" x1="24.7" y1="17.8" x2="29.9" y2="23"/>
<line class="st0" x1="66.2" y1="20.8" x2="62" y2="25.1"/>
<line class="st0" x1="59.4" y1="65" x2="63.9" y2="69.5"/>
<line class="st0" x1="26.1" y1="61.5" x2="20.4" y2="67.3"/>
<rect x="35.6" y="34.9" class="st2" width="18.1" height="18.1"/>
<line class="st2" x1="40.6" y1="30.1" x2="40.6" y2="34.9"/>
<line class="st3" x1="48.9" y1="30.1" x2="48.9" y2="34.6"/>
<line class="st2" x1="40.6" y1="53.7" x2="40.6" y2="58.6"/>
<line class="st3" x1="48.9" y1="54.1" x2="48.9" y2="58.6"/>
<line class="st2" x1="59.2" y1="39.9" x2="54.3" y2="39.9"/>
<line class="st3" x1="59.2" y1="48.1" x2="54.6" y2="48.1"/>
<line class="st2" x1="35.2" y1="39.9" x2="30.3" y2="39.9"/>
<line class="st3" x1="34.9" y1="48.1" x2="30.3" y2="48.1"/>
<rect x="42.7" y="41.8" class="st1" width="4.4" height="4.4"/>
</svg>
