<svg id="圖層_1" data-name="圖層 1" xmlns="http://www.w3.org/2000/svg" viewBox="0 0 88 88"><defs><style>.cls-1{fill:none;stroke:#fcac6d;stroke-linecap:round;stroke-linejoin:round;stroke-width:2px;}</style></defs><title>icon</title><line class="cls-1" x1="16.4" y1="74.5" x2="10.4" y2="74.5"/><line class="cls-1" x1="47" y1="74.5" x2="41" y2="74.5"/><line class="cls-1" x1="44" y1="77.4" x2="44" y2="71.5"/><line class="cls-1" x1="76.5" y1="74.5" x2="70.6" y2="74.5"/><rect class="cls-1" x="31.6" y="11" width="5.1" height="34.34"/><rect class="cls-1" x="36.8" y="24.5" width="5.1" height="20.84"/><rect class="cls-1" x="46.4" y="25.6" width="5.1" height="19.71"/><rect class="cls-1" x="41.9" y="30.5" width="4.5" height="14.84"/><rect class="cls-1" x="51.5" y="36.8" width="4.5" height="8.55"/><polygon class="cls-1" points="46.4 6.5 60.8 21.1 60.8 50.1 27.3 50.1 27.3 6.5 46.4 6.5"/><polyline class="cls-1" points="60.8 20.6 46.4 20.6 46.4 6.5"/><line class="cls-1" x1="44" y1="50.1" x2="44" y2="66.6"/><polyline class="cls-1" points="13.4 66.6 13.4 58.9 74 58.9 74 67.1"/><line class="cls-1" x1="21.5" y1="74.4" x2="35.6" y2="74.4"/><line class="cls-1" x1="51.5" y1="74.4" x2="66.2" y2="74.4"/><circle class="cls-1" cx="13.4" cy="74.5" r="7.3"/><circle class="cls-1" cx="44" cy="74.4" r="7.3"/><circle class="cls-1" cx="73.6" cy="74.5" r="7.3"/></svg>