<?xml version="1.0" encoding="utf-8"?>
<!-- Generator: Adobe Illustrator 22.0.1, SVG Export Plug-In . SVG Version: 6.00 Build 0)  -->
<svg version="1.1" id="圖層_1" xmlns="http://www.w3.org/2000/svg" xmlns:xlink="http://www.w3.org/1999/xlink" x="0px" y="0px"
	 viewBox="0 0 88 88" style="enable-background:new 0 0 88 88;" xml:space="preserve">
<style type="text/css">
	.st0{fill:#FFFFFF;}
	.st1{fill:none;stroke:#FFFFFF;stroke-width:2.5;stroke-linecap:round;stroke-linejoin:round;}
</style>
<title>icon</title>
<path class="st0" d="M44,41.9c4.5,0,8.1,3.6,8.1,8.1s-3.6,8.1-8.1,8.1s-8.1-3.6-8.1-8.1c0,0,0,0,0,0C35.9,45.5,39.5,41.9,44,41.9
	 M44,39.4c-5.9,0-10.6,4.7-10.6,10.6S38.1,60.6,44,60.6S54.6,55.9,54.6,50c0,0,0,0,0,0C54.6,44.1,49.9,39.4,44,39.4z"/>
<path class="st0" d="M21.9,35.2c4.5,0,8.1,3.6,8.1,8.1s-3.6,8.1-8.1,8.1s-8.1-3.6-8.1-8.1c-0.1-4.4,3.5-8,7.9-8.1
	C21.8,35.2,21.8,35.2,21.9,35.2 M21.9,32.7c-5.9-0.1-10.6,4.6-10.7,10.5c-0.1,5.9,4.6,10.6,10.5,10.7c5.9,0.1,10.6-4.6,10.7-10.5
	c0,0,0-0.1,0-0.1C32.4,37.5,27.7,32.8,21.9,32.7z"/>
<path class="st0" d="M66,35.2c4.5,0,8.1,3.6,8.1,8.1s-3.6,8.1-8.1,8.1c-4.5,0-8.1-3.6-8.1-8.1l0,0C57.9,38.8,61.5,35.2,66,35.2
	 M66,32.7c-5.9,0-10.6,4.7-10.6,10.6S60.1,53.9,66,53.9s10.6-4.7,10.6-10.6c0,0,0,0,0,0C76.6,37.4,71.9,32.7,66,32.7z"/>
<path class="st1" d="M28.2,76v-8.6c0-1.4,5.8-4.9,15.8-4.9s15.8,3.5,15.8,4.9V76"/>
<path class="st1" d="M6.3,69.7V61c0-1.4,5.8-4.8,15.8-4.8c6.3,0,10.9,1.3,13.5,2.7"/>
<path class="st1" d="M52.4,59c2.5-1.4,7.2-2.8,13.5-2.8c10,0,15.9,3.4,15.9,4.8v8.7"/>
<line class="st1" x1="56.3" y1="22.3" x2="48.9" y2="29.7"/>
<line class="st1" x1="50.2" y1="12" x2="42.8" y2="19.3"/>
<line class="st1" x1="51.3" y1="19.4" x2="36.5" y2="34.1"/>
<polyline class="st1" points="45.2,34.9 35.7,34.9 35.7,26.4 "/>
</svg>
