<svg id="圖層_1" data-name="圖層 1" xmlns="http://www.w3.org/2000/svg" viewBox="0 0 88 88"><defs><style>.cls-1{fill:#fa7805;}.cls-2{fill:none;stroke:#fa7805;stroke-linecap:round;stroke-linejoin:round;stroke-width:3px;}</style></defs><title>icon</title><path class="cls-1" d="M44,42.3A7.8,7.8,0,1,1,36.3,50,7.7,7.7,0,0,1,44,42.3m0-3A10.8,10.8,0,1,0,54.7,50,10.7,10.7,0,0,0,44,39.3Z"/><path class="cls-1" d="M21.5,35.6a7.7,7.7,0,1,1-7.7,7.7,7.7,7.7,0,0,1,7.7-7.7m0-3A10.7,10.7,0,1,0,32.3,43.3,10.7,10.7,0,0,0,21.5,32.6Z"/><path class="cls-1" d="M66.3,35.6a7.7,7.7,0,1,1,0,15.4,7.7,7.7,0,1,1,0-15.4m0-3A10.7,10.7,0,1,0,77.1,43.3,10.7,10.7,0,0,0,66.3,32.6Z"/><path class="cls-2" d="M28,76.5V67.7c0-1.4,5.9-4.9,16-4.9s16,3.5,16,4.9v8.8"/><path class="cls-2" d="M5.7,70.1V61.3c0-1.4,5.9-5,16-5,6.4,0,11.1,1.4,13.7,2.8"/><path class="cls-2" d="M52.5,59.2c2.6-1.4,7.3-2.9,13.8-2.9,10.1,0,16,3.6,16,5v8.8"/><line class="cls-2" x1="56.5" y1="22" x2="49" y2="29.5"/><line class="cls-2" x1="50.3" y1="11.5" x2="42.8" y2="19"/><line class="cls-2" x1="51.4" y1="19.1" x2="36.4" y2="34"/><polyline class="cls-2" points="45.3 34.8 35.6 34.8 35.6 26.2"/></svg>