<svg id="圖層_1" data-name="圖層 1" xmlns="http://www.w3.org/2000/svg" viewBox="0 0 85 85"><defs><style>.cls-1{fill:#efefef;}.cls-2{fill:#fa7805;}</style></defs><title>icon</title><circle class="cls-1" cx="53.3" cy="29.8" r="27.7"/><g id="Research"><path class="cls-2" d="M36.1,29.5a14.1,14.1,0,1,0,19.2,5.1A14.1,14.1,0,0,0,36.1,29.5Zm17.4,6.2a12.1,12.1,0,0,1-4.4,16.4,11.9,11.9,0,0,1-16.3-4.4,11.3,11.3,0,0,1-1.6-6.2l4.6,4.3a3.3,3.3,0,0,0,1.6,4.3,3.3,3.3,0,0,0,4.2-4.6l4.8-6.2a2.2,2.2,0,0,0,1.1.2,3.2,3.2,0,0,0,3.2-3.2A3.2,3.2,0,0,0,47.5,33a3.3,3.3,0,0,0-3.3,3.3,3.4,3.4,0,0,0,.5,1.7l-4.8,6.1a3,3,0,0,0-2.6.1l-5.8-5.3a11.9,11.9,0,0,1,14.4-8.8,12.4,12.4,0,0,1,7.6,5.6ZM39.9,47.1A1.1,1.1,0,1,1,38.8,46,1.1,1.1,0,0,1,39.9,47.1Zm6.5-10.8a1.1,1.1,0,0,1,1.1-1.1,1.1,1.1,0,0,1,0,2.2A1.1,1.1,0,0,1,46.4,36.3Z"/><path class="cls-2" d="M67.8,73.6l-7.5-13a1.1,1.1,0,0,0-1.5-.4l-.9.6-2.9-5a18.5,18.5,0,0,0-1-29V18.9a1.1,1.1,0,0,0-1.1-1.1H16a1.1,1.1,0,0,0-.8.3L4.3,29a1.1,1.1,0,0,0-.3.8V81.9A1.1,1.1,0,0,0,5.1,83H52.9A1.1,1.1,0,0,0,54,81.9V71.4l4.4,7.7a5.4,5.4,0,1,0,9.4-5.4ZM56,61.8l-1.9,1.1-2.7-4.7.9-.5,1-.6Zm1.2-28.2a16.3,16.3,0,0,1-5.9,22.3A16.4,16.4,0,1,1,34.9,27.6a16.4,16.4,0,0,1,22.3,6ZM14.9,21.5v7.2H7.7ZM51.8,80.8H6.2v-50H16a1,1,0,0,0,1.1-1V20H51.8v5.4A18.7,18.7,0,0,0,26.3,34l-.8-.8a3.4,3.4,0,0,0-1.7-4.3A3.3,3.3,0,0,0,20,34l-5.6,9.9h-.6a3.2,3.2,0,0,0-3.3,3.2,3.3,3.3,0,0,0,6.6,0h0a4.2,4.2,0,0,0-.8-2.1l5.6-9.9h.6a2.8,2.8,0,0,0,1.5-.4l1.5,1.4A18.5,18.5,0,0,0,37.6,59.3l.7.2a15.9,15.9,0,0,0,4.8.7,19,19,0,0,0,6.3-1.1L52.2,64l-.9.6a1,1,0,0,0-.4,1.4l.9,1.6ZM21.4,31.9A1.1,1.1,0,1,1,22.5,33,1.1,1.1,0,0,1,21.4,31.9ZM14.9,47.1A1.1,1.1,0,1,1,13.8,46,1.1,1.1,0,0,1,14.9,47.1ZM66.3,77.2a3.4,3.4,0,0,1-4,2.3,3.1,3.1,0,0,1-2-1.5l-7-12.1L59,62.6l6.9,12.1A3.2,3.2,0,0,1,66.3,77.2Z"/><path class="cls-2" d="M46.4,76.4H45.3V66.7a1.1,1.1,0,0,0-1.1-1.1H39.9a1.1,1.1,0,0,0-1.1,1.1v9.7H36.6V62.3a1.1,1.1,0,0,0-1.1-1.1H31.2a1.1,1.1,0,0,0-1.1,1.1V76.4H27.9V66.7a1.1,1.1,0,0,0-1.1-1.1H22.5a1.1,1.1,0,0,0-1.1,1.1v9.7H19.2V71a1.1,1.1,0,0,0-1.1-1.1H13.8A1.1,1.1,0,0,0,12.7,71v5.4H11.6a1.1,1.1,0,0,0,0,2.2H46.4a1.1,1.1,0,1,0,0-2.2Zm-31.5,0V72.1h2.2v4.3Zm8.7,0V67.8h2.1v8.6Zm8.7,0v-13h2.1v13Zm8.6,0V67.8h2.2v8.6Z"/><path class="cls-2" d="M10.5,56.9H23.6a1.1,1.1,0,0,0,0-2.2H10.5a1.1,1.1,0,0,0,0,2.2Z"/><path class="cls-2" d="M23.6,61.2a1,1,0,0,0,1.1-1,1.1,1.1,0,0,0-1.1-1.1H10.5a1,1,0,0,0-1,1.1.9.9,0,0,0,1,1Z"/></g></svg>