<?xml version="1.0" encoding="utf-8"?>
<!-- Generator: Adobe Illustrator 22.0.1, SVG Export Plug-In . SVG Version: 6.00 Build 0)  -->
<svg version="1.1" id="圖層_1" xmlns="http://www.w3.org/2000/svg" xmlns:xlink="http://www.w3.org/1999/xlink" x="0px" y="0px"
	 viewBox="0 0 88 88" style="enable-background:new 0 0 88 88;" xml:space="preserve">
<style type="text/css">
	.st0{fill:none;stroke:#FFFFFF;stroke-width:2;stroke-linecap:round;stroke-linejoin:round;}
	.st1{fill:none;stroke:#FFFFFF;stroke-width:2;stroke-miterlimit:10;}
</style>
<title>icon</title>
<rect x="27" y="6.7" class="st0" width="54.3" height="5.2"/>
<line class="st0" x1="78.5" y1="11.9" x2="78.5" y2="42.1"/>
<line class="st0" x1="29.8" y1="11.9" x2="29.8" y2="27"/>
<line class="st0" x1="37" y1="42.1" x2="81.3" y2="42.1"/>
<line class="st0" x1="54.1" y1="42.1" x2="54.1" y2="56"/>
<polyline class="st0" points="45.4,55.3 54.1,50.4 62.5,55.3 "/>
<ellipse class="st1" cx="16.6" cy="25.8" rx="5.9" ry="6.3"/>
<ellipse class="st0" cx="36.1" cy="66.8" rx="5.9" ry="6.3"/>
<path class="st0" d="M44.9,82.6v-4.5c0-2.5-2-4.5-4.5-4.6h-8.6c-2.5,0.1-4.5,2.1-4.5,4.6v4.5"/>
<ellipse class="st0" cx="53.9" cy="66.8" rx="5.9" ry="6.3"/>
<path class="st0" d="M62.8,82.6v-4.5c-0.1-2.5-2.1-4.5-4.6-4.6h-8.6c-2.5,0.1-4.5,2.1-4.5,4.6v4.5"/>
<ellipse class="st0" cx="72.1" cy="66.8" rx="5.9" ry="6.3"/>
<path class="st0" d="M80.9,82.6v-4.5c0-2.5-2.1-4.6-4.6-4.6h-8.5c-2.5,0.1-4.5,2.1-4.6,4.6v4.5"/>
<line class="st0" x1="9.1" y1="71.1" x2="16.7" y2="71.1"/>
<path class="st0" d="M17.1,71.1h7.5l-2.5-4.3V50.4c0,0-0.1-14,0.4-12.5c2.6,7.5,4.6,7.8,6.4,7.8s3-2.4,3.5-3.6
	c0.5-1.2,3.9-9.6,3.4-9.6H31c-0.2,0-2.3,8.4-2.6,7.1c-1.9-7.4-4.2-6.9-11.7-6.9v12.8"/>
<polyline class="st0" points="11.6,37.3 11.7,50.4 11.7,66.8 9.1,71.1 16.7,71.1 "/>
<line class="st0" x1="11.7" y1="50.4" x2="22.1" y2="50.4"/>
<path class="st0" d="M16.7,32.7h-6c-0.5,0-3.9,0.7-3.9,5.2s0,14,0,14.7s4.9,0.2,4.9,0.2"/>
<line class="st0" x1="7.3" y1="47.7" x2="11" y2="47.7"/>
<line class="st0" x1="16.9" y1="54.9" x2="16.9" y2="69.9"/>
<line class="st0" x1="29.5" y1="37.3" x2="34.3" y2="37.3"/>
<polyline class="st0" points="63.3,19.3 68.3,21 55.3,29.8 49,24.8 40.6,30.5 "/>
<line class="st0" x1="68.3" y1="21" x2="68.3" y2="26"/>
</svg>
