<svg id="圖層_1" data-name="圖層 1" xmlns="http://www.w3.org/2000/svg" viewBox="0 0 88 88"><defs><style>.cls-1{fill:none;stroke:#fcac6d;stroke-linecap:round;stroke-linejoin:round;stroke-width:2px;}</style></defs><title>icon</title><path class="cls-1" d="M29.4,47.5h8l5.5,5.3a2,2,0,0,1-.4,2.6c-.7.6-1.8.9-3.2-.5l-2.8-2.8"/><path class="cls-1" d="M29.2,58.8h5.6L39,60.3l22.6-7.8s.3-3.6-3-3.4-15.5,4.1-15.5,4.1"/><polygon class="cls-1" points="19.3 46.2 29.2 46.2 29.2 60.3 24.8 60.3 24.8 61.6 19.3 61.6 19.3 46.2"/><line class="cls-1" x1="24.8" y1="60.3" x2="24.8" y2="46.2"/><circle class="cls-1" cx="47" cy="34.7" r="12"/><line class="cls-1" x1="47" y1="29.4" x2="47" y2="40"/><line class="cls-1" x1="41.6" y1="34.7" x2="52.3" y2="34.7"/><path class="cls-1" d="M8.5,18.2V68.7a.9.9,0,0,0,1,1h14a1.1,1.1,0,0,1,1,1v6.2a.9.9,0,0,0,1.5.8l13.2-8.3.6-.2H71.5a1,1,0,0,0,1-1v-50a1.1,1.1,0,0,0-1-1H9.5A1,1,0,0,0,8.5,18.2Z"/><path class="cls-1" d="M14.4,17.2V11.1a1,1,0,0,1,1-1H78.5a1,1,0,0,1,1,1V54.5a1,1,0,0,1-1,1h-6"/><path class="cls-1" d="M43.9,69.2v6.4a1,1,0,0,0,1,1H78.3a.9.9,0,0,0,1-1v-12a1,1,0,0,0-1-1H72.5"/></svg>