<svg id="圖層_1" data-name="圖層 1" xmlns="http://www.w3.org/2000/svg" viewBox="0 0 88 88"><defs><style>.cls-1{fill:#fcac6d;}.cls-2{fill:none;stroke:#fcac6d;stroke-linecap:round;stroke-linejoin:round;stroke-width:2.5px;}</style></defs><title>icon</title><path class="cls-1" d="M44,41.9A8.1,8.1,0,1,1,35.9,50,8.1,8.1,0,0,1,44,41.9m0-2.5A10.6,10.6,0,1,0,54.6,50,10.6,10.6,0,0,0,44,39.4Z"/><path class="cls-1" d="M21.9,35.2a8.1,8.1,0,1,1-8.1,8.1,8,8,0,0,1,8.1-8.1m0-2.5A10.6,10.6,0,1,0,32.4,43.3,10.6,10.6,0,0,0,21.9,32.7Z"/><path class="cls-1" d="M66,35.2a8.1,8.1,0,1,1-8.1,8.1A8.1,8.1,0,0,1,66,35.2m0-2.5A10.6,10.6,0,1,0,76.6,43.3,10.6,10.6,0,0,0,66,32.7Z"/><path class="cls-2" d="M28.2,76V67.4c0-1.4,5.8-4.9,15.8-4.9S59.8,66,59.8,67.4V76"/><path class="cls-2" d="M6.3,69.7V61c0-1.4,5.8-4.8,15.8-4.8,6.3,0,10.9,1.3,13.5,2.7"/><path class="cls-2" d="M52.4,59c2.5-1.4,7.2-2.8,13.5-2.8,10,0,15.9,3.4,15.9,4.8v8.7"/><line class="cls-2" x1="56.3" y1="22.3" x2="48.9" y2="29.7"/><line class="cls-2" x1="50.2" y1="12" x2="42.8" y2="19.3"/><line class="cls-2" x1="51.3" y1="19.4" x2="36.5" y2="34.1"/><polyline class="cls-2" points="45.2 34.9 35.7 34.9 35.7 26.4"/></svg>