<svg id="圖層_1" data-name="圖層 1" xmlns="http://www.w3.org/2000/svg" xmlns:xlink="http://www.w3.org/1999/xlink" viewBox="0 0 55.3 55.3"><defs><style>.cls-1{fill:none;}.cls-2{clip-path:url(#clip-path);}.cls-3{fill:url(#未命名漸層_35);}.cls-4{clip-path:url(#clip-path-2);}.cls-5{fill:url(#未命名漸層_35-2);}.cls-6{clip-path:url(#clip-path-3);}.cls-7{fill:url(#未命名漸層_35-3);}.cls-8{fill:#fa7805;}</style><clipPath id="clip-path"><polygon class="cls-1" points="24.4 41.1 32 48.7 52.5 31.6 39 18.1 24.4 41.1"/></clipPath><linearGradient id="未命名漸層_35" x1="-27.67" y1="171.01" x2="-27.11" y2="171.01" gradientTransform="matrix(56.79, 0, 0, -56.79, 1593.85, 9744.91)" gradientUnits="userSpaceOnUse"><stop offset="0" stop-color="#f5c837"/><stop offset="0.22" stop-color="#f5bc28"/><stop offset="0.72" stop-color="#f5a40b"/><stop offset="1" stop-color="#f59b00"/></linearGradient><clipPath id="clip-path-2"><polygon class="cls-1" points="2.9 19 20.8 37 32.4 13.5 20 1 2.9 19"/></clipPath><linearGradient id="未命名漸層_35-2" x1="-28.42" y1="172.12" x2="-27.87" y2="172.12" gradientTransform="matrix(51.95, 0, 0, -51.95, 1482.11, 8961.71)" xlink:href="#未命名漸層_35"/><clipPath id="clip-path-3"><polygon class="cls-1" points="2.9 37 9 54.3 16 54.3 20.8 37 2.9 37"/></clipPath><linearGradient id="未命名漸層_35-3" x1="-27.31" y1="179.95" x2="-26.76" y2="179.95" gradientTransform="matrix(39.68, 0, 0, -39.68, 1085.39, 7186.41)" xlink:href="#未命名漸層_35"/></defs><title>icon</title><g class="cls-2"><rect class="cls-3" x="17.9" y="12.6" width="41.1" height="41.43" transform="translate(-12.4 31.8) rotate(-39.2)"/></g><g class="cls-4"><rect class="cls-5" x="-5.6" y="-4" width="46.4" height="45.98" transform="translate(-8.3 19.4) rotate(-48)"/></g><g class="cls-6"><rect class="cls-7" x="3" y="36.5" width="17.6" height="18.19" transform="translate(-34 56.8) rotate(-89.2)"/></g><rect class="cls-8" x="20" y="1" width="12.4" height="12.43"/><rect class="cls-8" x="39" y="18.1" width="13.5" height="13.5"/><rect class="cls-8" x="2.8" y="19" width="18" height="17.95"/><rect class="cls-8" x="9" y="47.4" width="6.9" height="6.92"/><rect class="cls-8" x="24.4" y="41.1" width="7.5" height="7.52"/></svg>