<svg id="圖層_1" data-name="圖層 1" xmlns="http://www.w3.org/2000/svg" viewBox="0 0 85 85"><defs><style>.cls-1{fill:#efefef;}.cls-2{fill:#fa7805;}</style></defs><title>icon</title><circle class="cls-1" cx="56.3" cy="33.9" r="27.3"/><path class="cls-2" d="M1.5,42.8a13.3,13.3,0,0,1,1.4-1.9L16.2,27.7c1.4-1.4,2.7-1.4,4.1,0l3.1,3a2.7,2.7,0,0,1,.8,2.8c0,.1,0,.4.1.5a3.5,3.5,0,0,0,3.6,1.4c1.3-.2,2.6-.2,3.9-.5,4.4-.9,8.8.1,13.1.3,2.4.1,4.8.4,7.1-.3l1.4-.4c.7-.3,1.2-.6.9-1.6a2.1,2.1,0,0,1,.8-2c1.1-1.2,2.3-2.4,3.5-3.5a2.4,2.4,0,0,1,3.5,0L64,29.2a1,1,0,0,1,0,1.6,1.1,1.1,0,0,1-1.6,0c-.5-.6-1.1-1.1-1.6-1.6s-.5-.4-.9,0-2,2.1-3.1,3.1-.3.5,0,.8L70.6,46.9q.5.6.9,0l3.1-3c.4-.4.3-.7-.1-1-2.6-2.7-5.3-5.4-8-8l-.5-.6a.9.9,0,0,1,.1-1.3,1,1,0,0,1,1.4-.2,1.2,1.2,0,0,1,.5.5l8.1,8.1a2.5,2.5,0,0,1,.1,4L73,48.5a2.5,2.5,0,0,1-2.5.9l-.7.2c-1,1-2,1.9-2.9,2.9a3.2,3.2,0,0,0-1,2.2,13.4,13.4,0,0,1-3.1,7.9c-1.7,1.9-3.7,3.7-5.6,5.6a7.5,7.5,0,0,1-1.5.9c1.5,2.5,1.2,4.9-.7,6.5s-4.3,1.4-6.8-.7c-.1.2-.2.3-.2.5a4.6,4.6,0,0,1-7.5,1.7L37,73.7a3.4,3.4,0,0,0-.6-.6l-.2.5a4.6,4.6,0,0,1-7.7,1.6l-7.9-7.9L19.3,66c-.5-.6-.6-1.2-.1-1.7s1.1-.5,1.7.1L30,73.6a2.7,2.7,0,0,0,2.7.7,2.4,2.4,0,0,0,.9-4L29.4,66l-1.7-1.6c-.5-.6-.6-1.2-.1-1.7s1.1-.4,1.7.2l6.1,6,6.5,6.5a2.3,2.3,0,0,0,2.5.6A2.1,2.1,0,0,0,46,74.2a2.6,2.6,0,0,0-.8-2.4l-9.4-9.3a39.7,39.7,0,0,0-2.9-2.9c-.7-.7-.8-1.4-.3-1.9s1.2-.4,1.9.3L50,73.5a3,3,0,0,0,2.1,1,2.4,2.4,0,0,0,2.2-1.6,2.2,2.2,0,0,0-.6-2.5C48.5,65.1,43.3,59.9,38,54.7l-.5-.6a1,1,0,0,1,.2-1.4,1.1,1.1,0,0,1,1.4-.1c.2.2.3.4.5.5L52.4,65.9a2.7,2.7,0,0,0,2.5,1,2.3,2.3,0,0,0,1.6-3.4,4.4,4.4,0,0,0-.8-1.1L39.2,45.9a1.7,1.7,0,0,0-1.5-.6H34.1A5.4,5.4,0,0,1,29.2,38a3.1,3.1,0,0,0,.2-.7c-2.7.8-5,.4-6.7-1.8l-.3.2-12,12c.9.9,1.7,1.8,2.6,2.6a6.5,6.5,0,0,1,2.2,4.6,11.8,11.8,0,0,0,2,5.4l.4.9a1.1,1.1,0,0,1-.7,1.1,1.1,1.1,0,0,1-1.3-.4,15.7,15.7,0,0,1-2.5-5.8c0-.5-.1-1-.1-1.4a3.9,3.9,0,0,0-1.2-2.5,33.1,33.1,0,0,1-2.7-2.6,1.3,1.3,0,0,0-.9-.2,2.4,2.4,0,0,1-2.5-.8L2.3,45.3c-.3-.4-.5-.9-.8-1.4Zm66.7,5.1L55.9,35.6a18.6,18.6,0,0,1-2,1l-2.4.7c-2.9.5-5.7.1-8.6-.1l-8.7-.5A3.3,3.3,0,0,0,31,39.8,3.1,3.1,0,0,0,34,43a51.5,51.5,0,0,0,11.1-.3,2.4,2.4,0,0,1,2.8,1.4,6.8,6.8,0,0,0,3.5,3.2,1.3,1.3,0,0,1,.8,1.6,1.2,1.2,0,0,1-1.7.5,9.3,9.3,0,0,1-4.2-3.6,1.4,1.4,0,0,0-1.7-.8l-2.9.2.6.7c4.8,4.9,9.7,9.7,14.4,14.6a22,22,0,0,1,2.4,2.8A13.1,13.1,0,0,0,63.7,55,6.9,6.9,0,0,1,66,50.2C66.8,49.5,67.5,48.6,68.2,47.9ZM3.6,43.4A41.7,41.7,0,0,0,7.3,47c.1.2.5.1.7-.1L21.8,33.2c.3-.4.3-.6,0-.9l-3-3c-.5-.5-.7-.4-1.2,0L4.2,42.8Z"/></svg>