<svg id="圖層_1" data-name="圖層 1" xmlns="http://www.w3.org/2000/svg" viewBox="0 0 88 88"><defs><style>.cls-1{fill:#fa7805;}</style></defs><title>icon</title><path class="cls-1" d="M41.6,29.6h4.8a1.2,1.2,0,0,0,1.2-1.2V23.6a1.2,1.2,0,0,0-1.2-1.2H41.6a1.2,1.2,0,0,0-1.2,1.2v4.8A1.2,1.2,0,0,0,41.6,29.6Zm1.2-4.8h2.4v2.4H42.8Z"/><path class="cls-1" d="M32,20h4.8A1.2,1.2,0,0,0,38,18.8V14a1.2,1.2,0,0,0-1.2-1.2H32A1.2,1.2,0,0,0,30.8,14v4.8A1.2,1.2,0,0,0,32,20Zm1.2-4.8h2.4v2.4H33.2Z"/><path class="cls-1" d="M32,29.6h4.8A1.2,1.2,0,0,0,38,28.4V23.6a1.2,1.2,0,0,0-1.2-1.2H32a1.2,1.2,0,0,0-1.2,1.2v4.8A1.2,1.2,0,0,0,32,29.6Zm1.2-4.8h2.4v2.4H33.2Z"/><path class="cls-1" d="M22.4,22.4H17.6a1.2,1.2,0,0,0-1.2,1.2v4.8a1.2,1.2,0,0,0,1.2,1.2h4.8a1.3,1.3,0,0,0,1.2-1.2V23.6A1.2,1.2,0,0,0,22.4,22.4Zm-1.2,4.8H18.8V24.8h2.4Z"/><path class="cls-1" d="M22.4,32H17.6a1.2,1.2,0,0,0-1.2,1.2V38a1.2,1.2,0,0,0,1.2,1.2h4.8A1.2,1.2,0,0,0,23.6,38V33.2A1.2,1.2,0,0,0,22.4,32Zm-1.2,4.8H18.8V34.4h2.4Z"/><path class="cls-1" d="M22.4,41.6H17.6a1.2,1.2,0,0,0-1.2,1.2v4.8a1.2,1.2,0,0,0,1.2,1.2h4.8a1.2,1.2,0,0,0,1.2-1.2V42.8A1.2,1.2,0,0,0,22.4,41.6Zm-1.2,4.8H18.8V44h2.4Z"/><path class="cls-1" d="M65.6,29.6h4.8a1.2,1.2,0,0,0,1.2-1.2V23.6a1.2,1.2,0,0,0-1.2-1.2H65.6a1.2,1.2,0,0,0-1.2,1.2v4.8A1.3,1.3,0,0,0,65.6,29.6Zm1.2-4.8h2.4v2.4H66.8Z"/><path class="cls-1" d="M51.2,29.6H56a1.2,1.2,0,0,0,1.2-1.2V23.6A1.2,1.2,0,0,0,56,22.4H51.2A1.2,1.2,0,0,0,50,23.6v4.8A1.2,1.2,0,0,0,51.2,29.6Zm1.2-4.8h2.4v2.4H52.4Z"/><path class="cls-1" d="M41.6,20h4.8a1.2,1.2,0,0,0,1.2-1.2V14a1.2,1.2,0,0,0-1.2-1.2H41.6A1.2,1.2,0,0,0,40.4,14v4.8A1.2,1.2,0,0,0,41.6,20Zm1.2-4.8h2.4v2.4H42.8Z"/><path class="cls-1" d="M51.2,20H56a1.2,1.2,0,0,0,1.2-1.2V14A1.2,1.2,0,0,0,56,12.8H51.2A1.2,1.2,0,0,0,50,14v4.8A1.2,1.2,0,0,0,51.2,20Zm1.2-4.8h2.4v2.4H52.4Z"/><path class="cls-1" d="M41.6,39.2h4.8A1.2,1.2,0,0,0,47.6,38V33.2A1.2,1.2,0,0,0,46.4,32H41.6a1.2,1.2,0,0,0-1.2,1.2V38A1.2,1.2,0,0,0,41.6,39.2Zm1.2-4.8h2.4v2.4H42.8Z"/><path class="cls-1" d="M32,39.2h4.8A1.2,1.2,0,0,0,38,38V33.2A1.2,1.2,0,0,0,36.8,32H32a1.2,1.2,0,0,0-1.2,1.2V38A1.2,1.2,0,0,0,32,39.2Zm1.2-4.8h2.4v2.4H33.2Z"/><path class="cls-1" d="M51.2,39.2H56A1.2,1.2,0,0,0,57.2,38V33.2A1.2,1.2,0,0,0,56,32H51.2A1.2,1.2,0,0,0,50,33.2V38A1.2,1.2,0,0,0,51.2,39.2Zm1.2-4.8h2.4v2.4H52.4Z"/><path class="cls-1" d="M41.6,48.8h4.8a1.2,1.2,0,0,0,1.2-1.2V42.8a1.2,1.2,0,0,0-1.2-1.2H41.6a1.2,1.2,0,0,0-1.2,1.2v4.8A1.2,1.2,0,0,0,41.6,48.8ZM42.8,44h2.4v2.4H42.8Z"/><path class="cls-1" d="M32,48.8h4.8A1.2,1.2,0,0,0,38,47.6V42.8a1.2,1.2,0,0,0-1.2-1.2H32a1.2,1.2,0,0,0-1.2,1.2v4.8A1.2,1.2,0,0,0,32,48.8ZM33.2,44h2.4v2.4H33.2Z"/><path class="cls-1" d="M51.2,48.8H56a1.2,1.2,0,0,0,1.2-1.2V42.8A1.2,1.2,0,0,0,56,41.6H51.2A1.2,1.2,0,0,0,50,42.8v4.8A1.2,1.2,0,0,0,51.2,48.8ZM52.4,44h2.4v2.4H52.4Z"/><path class="cls-1" d="M65.6,39.2h4.8A1.2,1.2,0,0,0,71.6,38V33.2A1.2,1.2,0,0,0,70.4,32H65.6a1.2,1.2,0,0,0-1.2,1.2V38A1.2,1.2,0,0,0,65.6,39.2Zm1.2-4.8h2.4v2.4H66.8Z"/><path class="cls-1" d="M65.6,48.8h4.8a1.2,1.2,0,0,0,1.2-1.2V42.8a1.2,1.2,0,0,0-1.2-1.2H65.6a1.2,1.2,0,0,0-1.2,1.2v4.8A1.2,1.2,0,0,0,65.6,48.8ZM66.8,44h2.4v2.4H66.8Z"/><path class="cls-1" d="M77.6,51.2H76.4V18.8a1.2,1.2,0,0,0-1.2-1.2H62V9.2A1.2,1.2,0,0,0,60.8,8H27.2A1.2,1.2,0,0,0,26,9.2v8.4H12.8a1.2,1.2,0,0,0-1.2,1.2V51.2H10.4a1.2,1.2,0,0,0-1.2,1.2V62a1.2,1.2,0,0,0,1.2,1.2h1.2V78.8A1.2,1.2,0,0,0,12.8,80H75.2a1.2,1.2,0,0,0,1.2-1.2V63.2h1.2A1.2,1.2,0,0,0,78.8,62V52.4A1.2,1.2,0,0,0,77.6,51.2ZM74,20V51.2H62V20ZM28.4,10.4H59.6V51.2H28.4ZM14,20H26V51.2H14Zm0,43.2h7.2V77.6H14Zm50.4,0V77.6H62V63.2ZM59.6,77.6H51.2V63.2h8.4ZM39.2,68h3.6v9.6H39.2Zm6,0h3.6v9.6H45.2Zm3.6-2.4H39.2V63.2h9.6Zm-12,12H28.4V63.2h8.4ZM26,77.6H23.6V63.2H26Zm48,0H66.8V63.2H74Zm2.4-16.8H11.6V53.6H76.4Z"/><path class="cls-1" d="M30.8,58.4H57.2a1.2,1.2,0,0,0,1.2-1.2A1.2,1.2,0,0,0,57.2,56H30.8a1.2,1.2,0,0,0-1.2,1.2A1.2,1.2,0,0,0,30.8,58.4Z"/><circle class="cls-1" cx="15.2" cy="57.2" r="1.2"/><circle class="cls-1" cx="20" cy="57.2" r="1.2"/><circle class="cls-1" cx="24.8" cy="57.2" r="1.2"/><circle class="cls-1" cx="63.2" cy="57.2" r="1.2"/><circle class="cls-1" cx="68" cy="57.2" r="1.2"/><circle class="cls-1" cx="72.8" cy="57.2" r="1.2"/></svg>