<svg id="圖層_1" data-name="圖層 1" xmlns="http://www.w3.org/2000/svg" viewBox="0 0 88 88"><defs><style>.cls-1,.cls-2,.cls-3{fill:none;stroke:#fcac6d;}.cls-1{stroke-miterlimit:10;}.cls-1,.cls-2{stroke-width:2px;}.cls-2,.cls-3{stroke-linecap:round;stroke-linejoin:round;}.cls-3{stroke-width:1.5px;}</style></defs><title>icon</title><rect class="cls-1" x="38.3" y="16" width="35" height="62" rx="0.5" ry="0.5"/><rect class="cls-1" x="43.1" y="10.3" width="25.5" height="5.69" rx="0.5" ry="0.5"/><rect class="cls-1" x="14.5" y="34.9" width="9.7" height="4.8" rx="0.5" ry="0.5"/><rect class="cls-1" x="14.5" y="39.7" width="23.9" height="38.32"/><rect class="cls-1" x="51.2" y="64.3" width="9.2" height="13.69" rx="0.5" ry="0.5"/><rect class="cls-1" x="22.8" y="69.5" width="7.1" height="8.5" rx="0.5" ry="0.5"/><rect class="cls-1" x="46.1" y="24.4" width="5.8" height="5.81" rx="0.5" ry="0.5"/><rect class="cls-1" x="59.7" y="24.4" width="5.8" height="5.81" rx="0.5" ry="0.5"/><rect class="cls-1" x="46.1" y="36.8" width="5.8" height="5.81" rx="0.5" ry="0.5"/><rect class="cls-1" x="59.7" y="36.8" width="5.8" height="5.81" rx="0.5" ry="0.5"/><rect class="cls-1" x="46.1" y="49.2" width="5.8" height="5.81" rx="0.5" ry="0.5"/><rect class="cls-1" x="59.7" y="49.2" width="5.8" height="5.81" rx="0.5" ry="0.5"/><line class="cls-2" x1="8.8" y1="78" x2="79.1" y2="78"/><circle class="cls-3" cx="26.2" cy="53.7" r="6.3"/><line class="cls-3" x1="26.2" y1="51" x2="26.2" y2="56.5"/><line class="cls-3" x1="23.4" y1="53.7" x2="29" y2="53.7"/></svg>