<?xml version="1.0" encoding="utf-8"?>
<!-- Generator: Adobe Illustrator 22.0.1, SVG Export Plug-In . SVG Version: 6.00 Build 0)  -->
<svg version="1.1" id="圖層_1" xmlns="http://www.w3.org/2000/svg" xmlns:xlink="http://www.w3.org/1999/xlink" x="0px" y="0px"
	 viewBox="0 0 88 88" style="enable-background:new 0 0 88 88;" xml:space="preserve">
<style type="text/css">
	.st0{fill:none;stroke:#FFFFFF;stroke-width:2;stroke-miterlimit:10;}
	.st1{fill:none;stroke:#FFFFFF;stroke-width:2;stroke-linecap:round;stroke-linejoin:round;}
	.st2{fill:none;stroke:#FFFFFF;stroke-width:1.5;stroke-linecap:round;stroke-linejoin:round;}
</style>
<title>icon</title>
<path class="st0" d="M38.8,16h34c0.3,0,0.5,0.2,0.5,0.5v61c0,0.3-0.2,0.5-0.5,0.5h-34c-0.3,0-0.5-0.2-0.5-0.5v-61
	C38.3,16.2,38.5,16,38.8,16z"/>
<path class="st0" d="M43.6,10.3h24.5c0.3,0,0.5,0.2,0.5,0.5v4.7c0,0.3-0.2,0.5-0.5,0.5H43.6c-0.3,0-0.5-0.2-0.5-0.5v-4.7
	C43.1,10.5,43.3,10.3,43.6,10.3z"/>
<path class="st0" d="M15,34.9h8.7c0.3,0,0.5,0.2,0.5,0.5v3.8c0,0.3-0.2,0.5-0.5,0.5H15c-0.3,0-0.5-0.2-0.5-0.5v-3.8
	C14.5,35.1,14.7,34.9,15,34.9z"/>
<rect x="14.5" y="39.7" class="st0" width="23.9" height="38.3"/>
<path class="st0" d="M51.7,64.3h8.2c0.3,0,0.5,0.2,0.5,0.5v12.7c0,0.3-0.2,0.5-0.5,0.5h-8.2c-0.3,0-0.5-0.2-0.5-0.5V64.8
	C51.2,64.5,51.4,64.3,51.7,64.3z"/>
<path class="st0" d="M23.3,69.5h6.1c0.3,0,0.5,0.2,0.5,0.5v7.5c0,0.3-0.2,0.5-0.5,0.5h-6.1c-0.3,0-0.5-0.2-0.5-0.5V70
	C22.8,69.7,23,69.5,23.3,69.5z"/>
<path class="st0" d="M46.6,24.4h4.8c0.3,0,0.5,0.2,0.5,0.5v4.8c0,0.3-0.2,0.5-0.5,0.5h-4.8c-0.3,0-0.5-0.2-0.5-0.5v-4.8
	C46.1,24.6,46.3,24.4,46.6,24.4z"/>
<path class="st0" d="M60.2,24.4H65c0.3,0,0.5,0.2,0.5,0.5v4.8c0,0.3-0.2,0.5-0.5,0.5h-4.8c-0.3,0-0.5-0.2-0.5-0.5v-4.8
	C59.7,24.6,59.9,24.4,60.2,24.4z"/>
<path class="st0" d="M46.6,36.8h4.8c0.3,0,0.5,0.2,0.5,0.5v4.8c0,0.3-0.2,0.5-0.5,0.5h-4.8c-0.3,0-0.5-0.2-0.5-0.5v-4.8
	C46.1,37,46.3,36.8,46.6,36.8z"/>
<path class="st0" d="M60.2,36.8H65c0.3,0,0.5,0.2,0.5,0.5v4.8c0,0.3-0.2,0.5-0.5,0.5h-4.8c-0.3,0-0.5-0.2-0.5-0.5v-4.8
	C59.7,37,59.9,36.8,60.2,36.8z"/>
<path class="st0" d="M46.6,49.2h4.8c0.3,0,0.5,0.2,0.5,0.5v4.8c0,0.3-0.2,0.5-0.5,0.5h-4.8c-0.3,0-0.5-0.2-0.5-0.5v-4.8
	C46.1,49.4,46.3,49.2,46.6,49.2z"/>
<path class="st0" d="M60.2,49.2H65c0.3,0,0.5,0.2,0.5,0.5v4.8c0,0.3-0.2,0.5-0.5,0.5h-4.8c-0.3,0-0.5-0.2-0.5-0.5v-4.8
	C59.7,49.4,59.9,49.2,60.2,49.2z"/>
<line class="st1" x1="8.8" y1="78" x2="79.1" y2="78"/>
<circle class="st2" cx="26.2" cy="53.7" r="6.3"/>
<line class="st2" x1="26.2" y1="51" x2="26.2" y2="56.5"/>
<line class="st2" x1="23.4" y1="53.7" x2="29" y2="53.7"/>
</svg>
