<svg id="圖層_1" data-name="圖層 1" xmlns="http://www.w3.org/2000/svg" viewBox="0 0 85 85"><defs><style>.cls-1{fill:#efefef;}.cls-2{fill:#fa7805;}.cls-3{fill:none;stroke:#fa7805;stroke-linecap:round;stroke-linejoin:round;stroke-width:2.5px;}</style></defs><title>icon</title><circle class="cls-1" cx="54.5" cy="35.5" r="27.7"/><path class="cls-2" d="M38.6,26.3a5.2,5.2,0,0,1,0,10.4,5.2,5.2,0,1,1,0-10.4m0-2.5a7.7,7.7,0,1,0,7.7,7.7,7.8,7.8,0,0,0-7.7-7.7Z"/><path class="cls-2" d="M22.6,21.5a5.2,5.2,0,1,1-5.2,5.2,5.1,5.1,0,0,1,5.2-5.2m0-2.5a7.8,7.8,0,0,0-7.7,7.7,7.7,7.7,0,0,0,7.7,7.6,7.6,7.6,0,0,0,7.6-7.6A7.7,7.7,0,0,0,22.6,19Z"/><path class="cls-2" d="M54.5,21.5a5.2,5.2,0,1,1-5.1,5.2,5.2,5.2,0,0,1,5.1-5.2m0-2.5a7.7,7.7,0,0,0-7.6,7.7,7.7,7.7,0,0,0,15.3,0A7.7,7.7,0,0,0,54.5,19Z"/><path class="cls-3" d="M27.2,50.4V44.1c0-1,4.2-3.5,11.4-3.5S50,43.1,50,44.1v6.3"/><path class="cls-3" d="M11.3,45.8V39.5c0-1,4.2-3.5,11.4-3.5a21.2,21.2,0,0,1,9.8,2"/><path class="cls-3" d="M44.7,38a21.2,21.2,0,0,1,9.8-2c7.2,0,11.4,2.5,11.4,3.5v6.3"/><path class="cls-3" d="M19.8,53.4H33.3l9.4,9c1,1.1.5,3.6-.7,4.4s-3.1,1.4-5.4-.9l-4.8-4.7"/><path class="cls-3" d="M19.5,72.6H29L36,75,74.3,61.8s.6-6.1-5.1-5.7-26.1,7-26.1,7"/><polygon class="cls-3" points="2.8 51.2 19.5 51.2 19.5 75 12.1 75 12.1 77.2 2.8 77.2 2.8 51.2"/><line class="cls-3" x1="12.1" y1="75" x2="12.1" y2="51.2"/></svg>