<svg id="圖層_1" data-name="圖層 1" xmlns="http://www.w3.org/2000/svg" viewBox="0 0 88 88"><defs><style>.cls-1{fill:#fa7805;}</style></defs><title>icon</title><g id="Research"><path class="cls-1" d="M43.8,23.1a14.1,14.1,0,1,0,19.3,5.2A14.1,14.1,0,0,0,43.8,23.1Zm17.4,6.2a12,12,0,1,1-22.3,5.8l4.6,4.3a3.3,3.3,0,0,0,6,2.7,3.5,3.5,0,0,0-.2-3L54.1,33h1.1a3.2,3.2,0,0,0,3.2-3.2,3.2,3.2,0,0,0-3.2-3.3,3.3,3.3,0,0,0-3.3,3.3,3.4,3.4,0,0,0,.5,1.7l-4.7,6.1a3.2,3.2,0,0,0-2.7.2l-5.8-5.4a11.9,11.9,0,0,1,14.4-8.8,12.4,12.4,0,0,1,7.6,5.6ZM47.6,40.7a1.1,1.1,0,1,1-2.2,0,1.1,1.1,0,0,1,2.2,0Zm6.5-10.8A1.1,1.1,0,1,1,55.2,31,1.1,1.1,0,0,1,54.1,29.9Z"/><path class="cls-1" d="M75.5,67.2,68,54.2a1.1,1.1,0,0,0-1.5-.4l-.9.6-2.9-5a18.5,18.5,0,0,0,2.3-26,23.5,23.5,0,0,0-3.3-3V12.5a1.1,1.1,0,0,0-1.1-1.1H23.7a1.1,1.1,0,0,0-.8.3L12.1,22.6a1.2,1.2,0,0,0-.4.8V75.5a1.1,1.1,0,0,0,1.1,1.1H60.6a1.1,1.1,0,0,0,1.1-1.1V65l4.4,7.7a5.4,5.4,0,0,0,7.4,2,5.5,5.5,0,0,0,2.1-7.4ZM63.7,55.5l-1.9,1-2.7-4.7,1-.5.9-.6Zm1.2-28.3A16.4,16.4,0,1,1,55,19.6,15.8,15.8,0,0,1,64.9,27.2ZM22.6,15.1v7.2H15.4ZM59.5,74.4H13.9V24.5h9.8a1.1,1.1,0,0,0,1.1-1.1V13.6H59.5V19a22.6,22.6,0,0,0-3.9-1.5A18.2,18.2,0,0,0,34.1,27.7l-.9-.9a3.3,3.3,0,0,0-1.7-4.3,3.3,3.3,0,0,0-4.3,1.7,3.4,3.4,0,0,0,.5,3.5l-5.6,9.8h-.6a3.2,3.2,0,0,0-3.2,3.2A3.2,3.2,0,0,0,21.5,44a3.3,3.3,0,0,0,3.3-3.3h0a3.4,3.4,0,0,0-.8-2.1l5.6-9.9h.6a2.8,2.8,0,0,0,1.5-.4l1.5,1.5a18.4,18.4,0,0,0,12.1,23l.7.2a16.1,16.1,0,0,0,4.9.7,18.8,18.8,0,0,0,6.2-1.1l2.8,4.9-.9.6a1.1,1.1,0,0,0-.4,1.5l.9,1.5ZM29.1,25.5a1.1,1.1,0,0,1,2.2,0,1.1,1.1,0,0,1-2.2,0ZM22.6,40.7a1.1,1.1,0,0,1-2.2,0,1.1,1.1,0,0,1,2.2,0ZM74,70.8a3.3,3.3,0,0,1-4,2.3,3.1,3.1,0,0,1-2-1.5L61,59.5l5.7-3.2,6.9,12A3.2,3.2,0,0,1,74,70.8Z"/><path class="cls-1" d="M54.1,70.1H53V60.3a1.1,1.1,0,0,0-1.1-1.1H47.6a1.1,1.1,0,0,0-1.1,1.1v9.8H44.3V55.9a1,1,0,0,0-1.1-1H38.9a1,1,0,0,0-1.1,1V70.1H35.6V60.3a1.1,1.1,0,0,0-1.1-1.1H30.2a1.1,1.1,0,0,0-1.1,1.1v9.8H26.9V64.6a1,1,0,0,0-1-1.1H21.5a1.1,1.1,0,0,0-1.1,1.1v5.5H19.3a1,1,0,0,0-1,1.1,1,1,0,0,0,1,1H54.1a1.1,1.1,0,0,0,1.1-1A1.1,1.1,0,0,0,54.1,70.1Zm-31.5,0V65.7h2.2v4.4Zm8.7,0V61.4h2.2v8.7Zm8.7,0V57h2.1V70.1Zm8.7,0V61.4h2.1v8.7Z"/><path class="cls-1" d="M18.3,50.5h13a1.1,1.1,0,0,0,0-2.2h-13a1.1,1.1,0,0,0,0,2.2Z"/><path class="cls-1" d="M31.3,54.9a1.1,1.1,0,1,0,0-2.2h-13a1.1,1.1,0,1,0,0,2.2Z"/></g></svg>