<svg id="圖層_1" data-name="圖層 1" xmlns="http://www.w3.org/2000/svg" viewBox="0 0 88 88"><defs><style>.cls-1{fill:#ffbf61;}</style></defs><title>icon</title><path class="cls-1" d="M71.7,69.2,68.3,61a3.3,3.3,0,0,0-2.1-1.9l-.5-.2h0l-7.9-2.6-1.6-.5-2-4.1A2.6,2.6,0,0,0,51,50.4l-.6.2V47.7a11.2,11.2,0,0,0,4.4-8.8V37.2h3.8A1.1,1.1,0,0,0,59.7,36a.7.7,0,0,0-.2-.6L55.9,30V26.6h0v-.9A11.5,11.5,0,0,0,44.4,14.1H42.9A11.6,11.6,0,0,0,31.4,25.6V30l-3.6,5.4a1.2,1.2,0,0,0,.3,1.6l.7.2h3.8v1.7A10.9,10.9,0,0,0,37,47.7v2.7a2.8,2.8,0,0,0-3.2,1.3l-2,4.1-10,3.3A3.3,3.3,0,0,0,19.7,61l-3.4,8.2a3.3,3.3,0,0,0,1.9,4.4,2.8,2.8,0,0,0,1.3.3h49a3.4,3.4,0,0,0,3.4-3.4,5.1,5.1,0,0,0-.2-1.3ZM58,58.8l5.7,1.9L62.5,63,57,61Zm-6.2-6.2a.2.2,0,0,1,.3.1l1.8,3.5-5,2.9-2.3-4.7,3-1.1h.1ZM51,22.4v-.2a.9.9,0,0,1,.8-.9h.8a8.6,8.6,0,0,1,1,4.1H48.2a.9.9,0,0,1-.8-.9.9.9,0,0,1,.8-.8h1.7A1.1,1.1,0,0,0,51,22.5Zm-6.6-6A9.1,9.1,0,0,1,51,19.2a3.1,3.1,0,0,0-2.2,2.2h-.6a3.1,3.1,0,0,0-3.1,3.2,3.2,3.2,0,0,0,3.1,3.1h5.5v1.6h-20V25.2H37a3.1,3.1,0,0,0,3-2.4h.6a3.1,3.1,0,0,0,3.2-3.1,3,3,0,0,0-2.6-3.1l1.7-.2Zm-7.6,2.4h3.8a.9.9,0,0,1,.9.8.8.8,0,0,1-.8.9H39a1.2,1.2,0,0,0-1.2,1.2v.2a.1.1,0,0,1,.1.1.9.9,0,0,1-.9.9H34.1a8.7,8.7,0,0,1,2.7-4.1ZM33.2,31.5h21l2.2,3.4H30.9Zm1.7,7.4V37.2H52.5v1.7a8.8,8.8,0,1,1-17.6.2v-.2ZM43.7,50a11.2,11.2,0,0,0,4.4-.9v2.4L44,52.9l-4.7-1.7V49.1A11.2,11.2,0,0,0,43.7,50Zm-7.8,2.7c0-.1.1-.1.2-.1h.1l1.5.5h0l3.7,1.3-2.3,4.7-5-2.9ZM31,61l-5.5,2-1.2-2.3L30,58.8ZM69.5,71.1a1.4,1.4,0,0,1-1,.5H45.1V63.1a1.1,1.1,0,1,0-2.2,0v8.5H19.5a1.1,1.1,0,0,1-1.1-1.1V70l3.4-8.1.3-.4,1.8,3.4a1.2,1.2,0,0,0,1.4.6L33,62.7a1.1,1.1,0,0,0,.7-1.4h-.1L32.2,58h.3L39,61.7l.5.2a1,1,0,0,0,1-.7l3.1-6h.8l3.1,6a1,1,0,0,0,1.5.5h.1l6.4-3.8h.3l-1.4,3.2a1.1,1.1,0,0,0,.5,1.5H55l7.7,2.8a1.2,1.2,0,0,0,1.4-.6l1.8-3.4.3.4L69.6,70a1.4,1.4,0,0,1-.1,1.1Z"/><path class="cls-1" d="M40.8,43.9h5.4a1.1,1.1,0,0,0,1.2-1.1,1.2,1.2,0,0,0-1.2-1.2H40.8a1.1,1.1,0,0,0-1.1,1.2,1.1,1.1,0,0,0,1.1,1.1Z"/></svg>