<svg id="圖層_1" data-name="圖層 1" xmlns="http://www.w3.org/2000/svg" viewBox="0 0 28.3 28.3"><defs><style>.cls-1{fill:#fa7805;}</style></defs><title>icon</title><path class="cls-1" d="M6.5,26.7a1.9,1.9,0,0,1-1.7-1.2C2.6,19.4,8,14.9,8.2,14.7l.2-.2a10.8,10.8,0,0,1,3.1-1.1A6.5,6.5,0,0,1,8,7.8a6.2,6.2,0,0,1,12.3,0,6.2,6.2,0,0,1-3.7,5.6l2.7,1c4.9,2.5,5.1,8.2,4.6,10.8a1.9,1.9,0,0,1-1.8,1.5Zm7.3-9.9a7.8,7.8,0,0,0-3.4.8A7,7,0,0,0,7.9,23H20.4c0-1.5-.3-4.1-2.8-5.3A8.5,8.5,0,0,0,13.8,16.8Zm.3-11.5a2.5,2.5,0,0,0-2.4,2.5,2.5,2.5,0,1,0,2.4-2.5Z"/></svg>