<?xml version="1.0" encoding="utf-8"?>
<!-- Generator: Adobe Illustrator 22.0.1, SVG Export Plug-In . SVG Version: 6.00 Build 0)  -->
<svg version="1.1" id="圖層_1" xmlns="http://www.w3.org/2000/svg" xmlns:xlink="http://www.w3.org/1999/xlink" x="0px" y="0px"
	 viewBox="0 0 88 88" style="enable-background:new 0 0 88 88;" xml:space="preserve">
<style type="text/css">
	.st0{fill:none;stroke:#FFFFFF;stroke-width:2;stroke-linecap:round;stroke-linejoin:round;}
</style>
<title>icon</title>
<path class="st0" d="M29.4,47.5h8l5.5,5.3c0.5,0.8,0.4,2-0.4,2.6c-0.7,0.6-1.8,0.9-3.2-0.5l-2.8-2.8"/>
<path class="st0" d="M29.2,58.8h5.6l4.2,1.5l22.6-7.8c0,0,0.3-3.6-3-3.4s-15.5,4.1-15.5,4.1"/>
<polygon class="st0" points="19.3,46.2 29.2,46.2 29.2,60.3 24.8,60.3 24.8,61.6 19.3,61.6 "/>
<line class="st0" x1="24.8" y1="60.3" x2="24.8" y2="46.2"/>
<circle class="st0" cx="47" cy="34.7" r="12"/>
<line class="st0" x1="47" y1="29.4" x2="47" y2="40"/>
<line class="st0" x1="41.6" y1="34.7" x2="52.3" y2="34.7"/>
<path class="st0" d="M8.5,18.2v50.5c-0.1,0.5,0.3,0.9,0.8,1c0.1,0,0.1,0,0.2,0h14c0.5,0,1,0.5,1,1v6.2c-0.1,0.5,0.3,1,0.8,1
	c0.3,0,0.5,0,0.7-0.2l13.2-8.3l0.6-0.2h31.7c0.6,0,1-0.4,1-1v-50c0-0.5-0.5-1-1-1h-62C8.9,17.2,8.5,17.6,8.5,18.2
	C8.5,18.2,8.5,18.2,8.5,18.2z"/>
<path class="st0" d="M14.4,17.2v-6.1c0-0.6,0.4-1,1-1h63.1c0.6,0,1,0.4,1,1v43.4c0,0.6-0.4,1-1,1h-6"/>
<path class="st0" d="M43.9,69.2v6.4c0,0.6,0.4,1,1,1h33.4c0.5,0.1,0.9-0.3,1-0.8c0-0.1,0-0.1,0-0.2v-12c0-0.6-0.4-1-1-1h-5.8"/>
</svg>
