<?xml version="1.0" encoding="utf-8"?>
<!-- Generator: Adobe Illustrator 22.0.1, SVG Export Plug-In . SVG Version: 6.00 Build 0)  -->
<svg version="1.1" id="圖層_1" xmlns="http://www.w3.org/2000/svg" xmlns:xlink="http://www.w3.org/1999/xlink" x="0px" y="0px"
	 viewBox="0 0 88 88" style="enable-background:new 0 0 88 88;" xml:space="preserve">
<style type="text/css">
	.st0{fill:none;stroke:#FFFFFF;stroke-width:2;stroke-linejoin:round;}
</style>
<title>icon</title>
<polyline class="st0" points="27,30 23.3,23.9 40.4,13.7 53.7,36.1 36.6,46.2 33.3,40.7 "/>
<rect x="39.3" y="40.8" transform="matrix(0.859 -0.512 0.512 0.859 -15.8875 30.1331)" class="st0" width="15" height="6.3"/>
<rect x="23.2" y="14.3" transform="matrix(0.859 -0.512 0.512 0.859 -4.2328 18.0539)" class="st0" width="15" height="4.9"/>
<rect x="18.3" y="9.4" transform="matrix(0.859 -0.512 0.512 0.859 -2.3315 15.9992)" class="st0" width="19.1" height="5.6"/>
<circle class="st0" cx="29.5" cy="35.8" r="6.3"/>
<path class="st0" d="M19.9,73.1h48.5c2,0.1,3.5,1.6,3.6,3.6v5.9l0,0H16.3l0,0v-5.9C16.4,74.7,17.9,73.2,19.9,73.1z"/>
<path class="st0" d="M40.5,57.8H66c1.8,0,3.2,1.4,3.2,3.2v0c0,1.8-1.4,3.2-3.2,3.2H40.5c-1.8,0-3.2-1.4-3.2-3.2v0
	C37.3,59.2,38.7,57.8,40.5,57.8z"/>
<path class="st0" d="M23.6,38.5c0,0-6.2,14.3,6.7,22.5c5.4,3.4,8.2,2.5,8.2,2.5"/>
<path class="st0" d="M28.8,42c0,0-2.2,13.6,10.9,15.8"/>
<line class="st0" x1="46.3" y1="64.2" x2="46.3" y2="73.1"/>
<line class="st0" x1="60.3" y1="64.2" x2="60.3" y2="72.3"/>
<path class="st0" d="M35.1,63.6c0,0-3.1,1.2-3.3,3.8c-0.2,1.9-0.2,3.8,0,5.7"/>
<path class="st0" d="M26,73.1c0,0-0.1-4.3,0-5.7c0.1-2.7,1.5-5.2,3.7-6.8"/>
</svg>
