<svg id="圖層_1" data-name="圖層 1" xmlns="http://www.w3.org/2000/svg" viewBox="0 0 88 88"><defs><style>.cls-1{fill:#63cecb;}</style></defs><title>icon</title><path class="cls-1" d="M78.1,34.8c-.7-2.8-4-4.7-9.4-5.4a53.6,53.6,0,0,0-10-.2c.2-2.1.2-4.2.2-6.2a4.3,4.3,0,0,0,2.9-4.1,4.5,4.5,0,0,0-4.4-4.5q-1.5-3.7-4.2-4.5c-2.8-.8-6,1.1-9.3,5.4a45.4,45.4,0,0,0-5.2,8.6,67.9,67.9,0,0,0-6-3.6,1.1,1.1,0,0,0-1.4.5,1.1,1.1,0,0,0,.4,1.3,57,57,0,0,1,6.1,3.6l-2.4,5.8a16.1,16.1,0,0,0-3.9,3.9,48.7,48.7,0,0,0-5.7,2.4,49.8,49.8,0,0,1-3.1-5.1,4.5,4.5,0,0,0-3-7.8c-.3-1.5-.2-3.4.8-4.4s4-1.3,7.7.1a1,1,0,1,0,.7-1.9c-4.5-1.7-7.9-1.5-9.8.4s-1.8,3.5-1.4,6.3a4.4,4.4,0,0,0-2.4,4,4.4,4.4,0,0,0,4.4,4.4h1.2c.9,1.6,1.9,3.2,3,4.9a63.1,63.1,0,0,0-8.6,5.2c-4.3,3.4-6.2,6.6-5.4,9.4s4,4.6,9.4,5.3a41.5,41.5,0,0,0,10,.2,40.2,40.2,0,0,0-.2,4.8,4.4,4.4,0,0,0-3.2,4.2,4.5,4.5,0,0,0,4.2,4.5c1.2,4.1,3.2,5.5,4.7,5.9,3.4.9,6.2-1.4,9.4-5.4a64.9,64.9,0,0,0,5.2-8.6,48.2,48.2,0,0,0,8.7,4.8c3.9,1.6,8.1,2.7,10.8,0s1.7-5.6.9-8.4a4.9,4.9,0,0,0,1.5-3.4,4.3,4.3,0,0,0-5.1-4.4c-.6-1.1-1.3-2.2-2.1-3.4a56.5,56.5,0,0,0,5.5-3,1.1,1.1,0,0,0,.3-1.4,1,1,0,0,0-1.4-.3c-1.7,1-3.5,2.1-5.6,3.1a55.1,55.1,0,0,0-3.8-5,13.4,13.4,0,0,0-1.4-5.2c.4-2.1.7-4.2.9-6.2a46,46,0,0,1,9.9.1c4.4.6,7.2,2,7.7,3.9s-1.2,4.5-4.8,7.3a1,1,0,0,0,1.3,1.5c4.3-3.3,6.2-6.5,5.4-9.3Zm-58.4-3a2.5,2.5,0,1,1,2.4-2.4A2.4,2.4,0,0,1,19.7,31.8ZM45.4,16.5c2.8-3.5,5.4-5.2,7.3-4.7a4.7,4.7,0,0,1,2.7,3.1,4.3,4.3,0,0,0-2.5,4,4.5,4.5,0,0,0,4,4.4c0,1.9,0,3.9-.2,6.1l-6.2.9a13.4,13.4,0,0,0-5.2-1.4,55.1,55.1,0,0,0-5-3.8,59.2,59.2,0,0,1,5.1-8.6Zm11.1,15c-.1,1.1-.2,2.2-.4,3.3a11.8,11.8,0,0,0-3-2.9Zm-17-4.6,2.6,2a18.2,18.2,0,0,0-4,1.1C38.6,28.9,39,27.9,39.5,26.9ZM44,30.8A13.2,13.2,0,1,1,30.8,44,13.2,13.2,0,0,1,44,30.8ZM34.9,56.1l-3.4.4c.1-1.1.2-2.2.4-3.4a14.2,14.2,0,0,0,3,3ZM30,38.1a18.2,18.2,0,0,0-1.1,4l-2-2.7ZM19.5,56.6c-4.4-.6-7.2-2-7.7-3.9s1.2-4.5,4.8-7.3a46.5,46.5,0,0,1,8.5-5.1c1.1,1.6,2.4,3.3,3.8,5a13.4,13.4,0,0,0,1.4,5.2c-.4,2.1-.7,4.2-.9,6.2a53.5,53.5,0,0,1-9.9-.1ZM30.3,70.2a2.5,2.5,0,1,1,2.5-2.5A2.5,2.5,0,0,1,30.3,70.2Zm12.3,1.2c-2.8,3.6-5.4,5.3-7.3,4.8s-2.3-1.3-3.2-4.4a4.4,4.4,0,0,0-1-8.4c0-1.5.1-3.2.2-4.8l6.2-.9a13.4,13.4,0,0,0,5.2,1.4,55.1,55.1,0,0,0,5,3.8A52.8,52.8,0,0,1,42.6,71.4Zm5.9-10.3-2.6-2a18.2,18.2,0,0,0,4-1.1C49.4,59,49,60.1,48.5,61.1Zm18.4-6.5a2.5,2.5,0,1,1-2.4,2.5A2.5,2.5,0,0,1,66.9,54.6Zm-7.8-8.8,2,2.7L58,49.8A16.8,16.8,0,0,0,59.1,45.8Zm3.2,4.4,2,3.2a4.7,4.7,0,0,0-1.9,3.7,4.5,4.5,0,0,0,4.5,4.4h1c.8,2.9.7,5-.4,6.1S63,68.7,58.9,67a45.5,45.5,0,0,1-8.7-4.8,48.7,48.7,0,0,0,2.4-5.7,16.1,16.1,0,0,0,3.9-3.9l5.8-2.4ZM57.4,21.3a2.5,2.5,0,1,1,2.4-2.4A2.5,2.5,0,0,1,57.4,21.3ZM37.6,44.8,41.4,47c-.6,1.5-1.4,3.2-2,4.8a2.1,2.1,0,0,0,1,2.6,2.1,2.1,0,0,0,2.5-.5l7.8-7.4a2.1,2.1,0,0,0,.7-1.8,2.3,2.3,0,0,0-1.1-1.6L46.6,41c.7-1.6,1.4-3.2,2-4.9a1.7,1.7,0,0,0-.2-1.8,2.1,2.1,0,0,0-3.3-.3l-7.8,7.5a1.9,1.9,0,0,0-.7,1.7,2,2,0,0,0,1,1.6Zm1.1-1.9c1.6-1.5,7.4-7.2,8-7.5h0l-2.2,5.5a1,1,0,0,0,.5,1.4l4.3,2.5c.2.1.2.1,0,.2-2,2-7.8,7.5-8,7.6h0c.7-1.9,1.5-3.8,2.2-5.5a1.1,1.1,0,0,0-.5-1.5l-4.3-2.5c-.1-.1-.1-.1,0-.2Z"/></svg>