<?xml version="1.0" encoding="utf-8"?>
<!-- Generator: Adobe Illustrator 22.0.1, SVG Export Plug-In . SVG Version: 6.00 Build 0)  -->
<svg version="1.1" id="圖層_1" xmlns="http://www.w3.org/2000/svg" xmlns:xlink="http://www.w3.org/1999/xlink" x="0px" y="0px"
	 viewBox="0 0 88 88" style="enable-background:new 0 0 88 88;" xml:space="preserve">
<style type="text/css">
	.st0{fill:#366694;}
</style>
<title>icon</title>
<g id="Outline_2_">
	<path class="st0" d="M71.4,56l-2-22c5-1.1,8.8-5.5,8.8-10.8c0-6.1-5-11-11-11c-5.2,0-9.6,3.7-10.8,8.6l-6.3-1.3c0-0.1,0-0.3,0-0.4
		c0-3.5-2.9-6.4-6.4-6.4c-3.2,0-5.9,2.4-6.3,5.5l-5.8,0.8c-1-5.1-5.5-8.9-10.8-8.9c-6.1,0-11,5-11,11s5,11,11,11
		c1.1,0,2.1-0.2,3.1-0.4l2.1,4.1c-1.2,1.2-2,2.8-2,4.7c0,2.7,1.7,5,4.1,5.9L27.2,51c-0.3,0-0.6,0-1,0c-7.6,0-13.7,6.2-13.7,13.7
		s6.2,13.7,13.7,13.7s13.7-6.2,13.7-13.7c0-2.4-0.6-4.6-1.6-6.5l5.5-4.4c1.6,2.1,4,3.5,6.7,4l-0.1,6.1c-3,0.5-5.4,3.1-5.4,6.3
		c0,3.5,2.9,6.4,6.4,6.4c3.5,0,6.4-2.9,6.4-6.4c0-0.2,0-0.5,0-0.7l7.7-3.4c1.2,1.6,3,2.6,5.1,2.6c3.5,0,6.4-2.9,6.4-6.4
		C76.8,59,74.5,56.4,71.4,56L71.4,56z M67.1,32.2c-2.2,0-4.1-0.8-5.7-2c0-2.1,1.2-4,3-4.9c0.7,0.6,1.7,0.9,2.7,0.9
		c1,0,1.9-0.3,2.7-0.9c1.8,1,3,2.8,3,4.9C71.3,31.4,69.3,32.2,67.1,32.2L67.1,32.2z M64.8,21.8v-1.3c0-1.3,1.1-2.3,2.3-2.3
		s2.3,1.1,2.3,2.3v1.3c0,1.3-1.1,2.3-2.3,2.3S64.8,23.1,64.8,21.8z M67.1,14.1c5,0,9,4.1,9,9c0,1.9-0.6,3.7-1.6,5.1
		c-0.5-1.9-1.8-3.6-3.5-4.6c0.3-0.6,0.4-1.2,0.4-1.8v-1.3c0-2.4-2-4.3-4.3-4.3c-2.4,0-4.3,2-4.3,4.3v1.3c0,0.7,0.1,1.3,0.4,1.8
		c-1.7,1-3,2.7-3.5,4.6c-1-1.5-1.6-3.2-1.6-5.1C58.1,18.2,62.2,14.1,67.1,14.1L67.1,14.1z M49.6,21.4l6.5,1.3c0,0.2,0,0.3,0,0.5
		c0,3.7,1.8,6.9,4.5,8.9l-3,5c-1.5-0.8-3.3-1.3-5.2-1.3c-0.7,0-1.5,0.1-2.2,0.2l-3.9-11.2C47.9,24.1,49,22.9,49.6,21.4L49.6,21.4z
		 M43.7,14.7c2.4,0,4.3,2,4.3,4.3s-2,4.3-4.3,4.3c-2.4,0-4.3-2-4.3-4.3S41.3,14.7,43.7,14.7z M11.8,21c0-5,4.1-9,9-9s9,4.1,9,9
		c0,1.9-0.6,3.7-1.6,5.1c-0.5-1.9-1.8-3.6-3.5-4.6c0.3-0.6,0.4-1.2,0.4-1.8v-1.3c0-2.4-2-4.3-4.3-4.3s-4.3,2-4.3,4.3v1.3
		c0,0.7,0.1,1.3,0.4,1.8c-1.7,1-3,2.7-3.5,4.6C12.4,24.7,11.8,22.9,11.8,21z M23.2,18.4v1.3c0,1.3-1.1,2.3-2.3,2.3
		c-1.3,0-2.3-1.1-2.3-2.3v-1.3c0-1.3,1.1-2.3,2.3-2.3C22.1,16,23.2,17.1,23.2,18.4z M20.9,30.1c-2.2,0-4.1-0.8-5.7-2
		c0-2.1,1.2-4,3-4.9c0.7,0.6,1.7,0.9,2.7,0.9c1,0,1.9-0.3,2.7-0.9c1.8,1,3,2.8,3,4.9C25,29.3,23,30.1,20.9,30.1z M25.8,30.9
		c3.6-1.8,6.1-5.6,6.1-9.9c0,0,0-0.1,0-0.1l5.6-0.8c0.3,1.8,1.4,3.3,2.9,4.2L33.7,35c-1-0.6-2.1-0.9-3.3-0.9c-0.9,0-1.8,0.2-2.6,0.6
		L25.8,30.9z M26,40.4c0-2.4,2-4.3,4.3-4.3s4.3,2,4.3,4.3s-2,4.3-4.3,4.3S26,42.8,26,40.4L26,40.4z M31.9,74.9
		c-1.7,0.9-3.6,1.5-5.7,1.5s-4-0.5-5.7-1.5v-3.7c0-2.1,1.2-4,3-5c0.7,0.6,1.7,0.9,2.7,0.9s1.9-0.3,2.7-0.9c1.8,1,3,2.9,3,5V74.9z
		 M23.9,62.8v-1.3c0-1.3,1.1-2.3,2.3-2.3s2.3,1.1,2.3,2.3v1.3c0,1.3-1.1,2.3-2.3,2.3S23.9,64.1,23.9,62.8z M33.9,73.5v-2.3
		c0-2.8-1.4-5.2-3.7-6.6c0.3-0.6,0.4-1.2,0.4-1.8v-1.3c0-2.4-2-4.3-4.3-4.3s-4.3,2-4.3,4.3v1.3c0,0.7,0.1,1.3,0.4,1.8
		c-2.3,1.4-3.7,3.9-3.7,6.6v2.3c-2.5-2.1-4-5.3-4-8.8c0-6.5,5.3-11.7,11.7-11.7s11.7,5.3,11.7,11.7C37.9,68.2,36.4,71.3,33.9,73.5z
		 M37.2,56.4c-1.9-2.6-4.8-4.5-8-5.2l0.9-4.5c0.1,0,0.2,0,0.3,0c3.5,0,6.4-2.9,6.4-6.4c0-1.6-0.6-3-1.5-4.1l7-11.1
		c0.5,0.1,1,0.2,1.5,0.2c0.3,0,0.5,0,0.7,0l3.9,11.3c-4.1,1.6-7,5.6-7,10.3c0,1.9,0.5,3.6,1.3,5.2L37.2,56.4z M43.4,46.9
		c0-5,4.1-9,9-9s9,4.1,9,9c0,1.9-0.6,3.7-1.6,5.1c-0.5-1.9-1.8-3.6-3.5-4.6c0.3-0.6,0.4-1.2,0.4-1.8v-1.3c0-2.4-2-4.3-4.3-4.3
		c-2.4,0-4.3,2-4.3,4.3v1.3c0,0.7,0.1,1.3,0.4,1.8c-1.7,1-3,2.7-3.5,4.6C44,50.5,43.4,48.7,43.4,46.9L43.4,46.9z M54.8,44.2v1.3
		c0,1.3-1.1,2.3-2.3,2.3c-1.3,0-2.3-1.1-2.3-2.3v-1.3c0-1.3,1.1-2.3,2.3-2.3C53.7,41.8,54.8,42.9,54.8,44.2z M46.7,53.9
		c0-2.1,1.2-4,3-4.9c0.7,0.6,1.7,0.9,2.7,0.9c1,0,1.9-0.3,2.7-0.9c1.8,1,3,2.8,3,4.9c-1.6,1.3-3.5,2-5.7,2
		C50.3,55.9,48.3,55.1,46.7,53.9L46.7,53.9z M51.4,74.5c-2.4,0-4.3-2-4.3-4.3s2-4.3,4.3-4.3c2.4,0,4.3,2,4.3,4.3
		S53.8,74.5,51.4,74.5z M64.4,64.2l-7.3,3.3c-0.9-1.9-2.6-3.3-4.7-3.6l0.1-6c2.8,0,5.4-1.1,7.4-2.9l5.1,4.2c-0.5,0.9-0.8,1.9-0.8,3
		C64.1,62.9,64.2,63.6,64.4,64.2L64.4,64.2z M61.2,53.5c1.4-1.9,2.3-4.2,2.3-6.7c0-3.5-1.6-6.6-4.2-8.6l3.1-5.1
		c1.4,0.7,3.1,1.1,4.8,1.1c0.1,0,0.2,0,0.3,0l2,21.8c-1.3,0.2-2.4,0.8-3.3,1.7L61.2,53.5z M70.5,66.6c-2.4,0-4.3-2-4.3-4.3
		s2-4.3,4.3-4.3c2.4,0,4.3,2,4.3,4.3S72.9,66.6,70.5,66.6z"/>
</g>
</svg>
