<?xml version="1.0" encoding="utf-8"?>
<!-- Generator: Adobe Illustrator 22.0.1, SVG Export Plug-In . SVG Version: 6.00 Build 0)  -->
<svg version="1.1" id="圖層_1" xmlns="http://www.w3.org/2000/svg" xmlns:xlink="http://www.w3.org/1999/xlink" x="0px" y="0px"
	 viewBox="0 0 88 88" style="enable-background:new 0 0 88 88;" xml:space="preserve">
<style type="text/css">
	.st0{fill:#FF6E9E;}
</style>
<title>icon</title>
<g>
	<path class="st0" d="M16.5,24.9c-2.3,0-4.2-1.9-4.2-4.2s1.9-4.2,4.2-4.2s4.2,1.9,4.2,4.2S18.8,24.9,16.5,24.9z M16.5,18.6
		c-1.2,0-2.1,1-2.1,2.1s1,2.1,2.1,2.1s2.1-1,2.1-2.1C18.6,19.5,17.6,18.6,16.5,18.6z"/>
	<path class="st0" d="M32.3,20.7c-2.3,0-4.2-1.9-4.2-4.2s1.9-4.2,4.2-4.2s4.2,1.9,4.2,4.2S34.7,20.7,32.3,20.7z M32.3,14.3
		c-1.2,0-2.1,1-2.1,2.1s1,2.1,2.1,2.1s2.1-1,2.1-2.1S33.5,14.3,32.3,14.3z"/>
	<path class="st0" d="M71.5,34.5c-2.3,0-4.2-1.9-4.2-4.2s1.9-4.2,4.2-4.2s4.2,1.9,4.2,4.2S73.9,34.5,71.5,34.5z M71.5,28.1
		c-1.2,0-2.1,1-2.1,2.1c0,1.2,1,2.1,2.1,2.1c1.2,0,2.1-1,2.1-2.1C73.7,29.1,72.7,28.1,71.5,28.1z"/>
	<path class="st0" d="M57.8,75.8c-2.3,0-4.2-1.9-4.2-4.2s1.9-4.2,4.2-4.2s4.2,1.9,4.2,4.2S60.1,75.8,57.8,75.8z M57.8,69.4
		c-1.2,0-2.1,1-2.1,2.1c0,1.2,1,2.1,2.1,2.1s2.1-1,2.1-2.1C59.9,70.4,58.9,69.4,57.8,69.4z"/>
	<path class="st0" d="M71.5,64.1c-2.3,0-4.2-1.9-4.2-4.2c0-2.3,1.9-4.2,4.2-4.2s4.2,1.9,4.2,4.2C75.8,62.2,73.9,64.1,71.5,64.1z
		 M71.5,57.8c-1.2,0-2.1,1-2.1,2.1c0,1.2,1,2.1,2.1,2.1c1.2,0,2.1-1,2.1-2.1C73.7,58.7,72.7,57.8,71.5,57.8z"/>
	<path class="st0" d="M26,72.6c-2.3,0-4.2-1.9-4.2-4.2s1.9-4.2,4.2-4.2s4.2,1.9,4.2,4.2S28.3,72.6,26,72.6z M26,66.2
		c-1.2,0-2.1,1-2.1,2.1s1,2.1,2.1,2.1c1.2,0,2.1-1,2.1-2.1S27.2,66.2,26,66.2z"/>
	<path class="st0" d="M16.5,59.9c-2.3,0-4.2-1.9-4.2-4.2s1.9-4.2,4.2-4.2s4.2,1.9,4.2,4.2S18.8,59.9,16.5,59.9z M16.5,53.5
		c-1.2,0-2.1,1-2.1,2.1s1,2.1,2.1,2.1s2.1-1,2.1-2.1S17.6,53.5,16.5,53.5z"/>
	<path class="st0" d="M60.9,20.7c-2.3,0-4.2-1.9-4.2-4.2s1.9-4.2,4.2-4.2s4.2,1.9,4.2,4.2S63.3,20.7,60.9,20.7z M60.9,14.3
		c-1.2,0-2.1,1-2.1,2.1s1,2.1,2.1,2.1s2.1-1,2.1-2.1S62.1,14.3,60.9,14.3z"/>
	<path class="st0" d="M44,63.1c-10.5,0-19.1-8.6-19.1-19.1S33.5,24.9,44,24.9S63.1,33.5,63.1,44S54.5,63.1,44,63.1z M44,27.1
		c-9.3,0-16.9,7.6-16.9,16.9S34.7,60.9,44,60.9c9.3,0,16.9-7.6,16.9-16.9S53.3,27.1,44,27.1z"/>
	<path class="st0" d="M30.2,33.4h-5.3c-5.3,0-9.5-4.3-9.5-9.5c0-0.6,0.5-1.1,1.1-1.1s1.1,0.5,1.1,1.1c0,4.1,3.3,7.4,7.4,7.4h5.3
		c0.6,0,1.1,0.5,1.1,1.1C31.3,32.9,30.8,33.4,30.2,33.4z"/>
	<path class="st0" d="M37.6,69.4h-8.5c-0.6,0-1.1-0.5-1.1-1.1s0.5-1.1,1.1-1.1h8.5c2.9,0,5.3-2.4,5.3-5.3c0-0.6,0.5-1.1,1.1-1.1
		s1.1,0.5,1.1,1.1C45.1,66.1,41.7,69.4,37.6,69.4z"/>
	<path class="st0" d="M30.2,56.7H19.6c-0.6,0-1.1-0.5-1.1-1.1s0.5-1.1,1.1-1.1h10.6c0.6,0,1.1,0.5,1.1,1.1S30.8,56.7,30.2,56.7z"/>
	<path class="st0" d="M44,20.7c-0.6,0-1.1-0.5-1.1-1.1c0-1.2-1-2.1-2.1-2.1h-5.3c-0.6,0-1.1-0.5-1.1-1.1s0.5-1.1,1.1-1.1h5.3
		c2.3,0,4.2,1.9,4.2,4.2C45.1,20.2,44.6,20.7,44,20.7z"/>
	<path class="st0" d="M44,27.1c-0.6,0-1.1-0.5-1.1-1.1v-6.4c0-0.6,0.5-1.1,1.1-1.1s1.1,0.5,1.1,1.1V26C45.1,26.6,44.6,27.1,44,27.1z
		"/>
	<path class="st0" d="M52.5,29.2c-0.6,0-1.1-0.5-1.1-1.1c0-2.3,1.9-4.2,4.2-4.2h3.2c0.6,0,1.1-0.5,1.1-1.1v-3.2
		c0-0.6,0.5-1.1,1.1-1.1s1.1,0.5,1.1,1.1v3.2c0,1.8-1.4,3.2-3.2,3.2h-3.2c-1.2,0-2.1,1-2.1,2.1C53.5,28.7,53.1,29.2,52.5,29.2z"/>
	<path class="st0" d="M62,45.1c-0.6,0-1.1-0.5-1.1-1.1c0-2.3,1.9-4.2,4.2-4.2h4.2c0.6,0,1.1-0.5,1.1-1.1v-5.3c0-0.6,0.5-1.1,1.1-1.1
		s1.1,0.5,1.1,1.1v5.3c0,1.8-1.4,3.2-3.2,3.2h-4.2c-1.2,0-2.1,1-2.1,2.1C63.1,44.6,62.6,45.1,62,45.1z"/>
	<path class="st0" d="M71.5,57.8c-0.6,0-1.1-0.5-1.1-1.1v-3.2c0-0.6-0.5-1.1-1.1-1.1h-5.3c-2.2,0-3.7-1.7-3.7-4.2
		c0-0.6,0.5-1.1,1.1-1.1s1.1,0.5,1.1,1.1c0,0.6,0.2,2.1,1.6,2.1h5.3c1.8,0,3.2,1.4,3.2,3.2v3.2C72.6,57.3,72.1,57.8,71.5,57.8z"/>
	<path class="st0" d="M57.8,66.2c-0.6,0-1.1-0.5-1.1-1.1c0-0.6-0.5-1.1-1.1-1.1c-2.3,0-4.2-1.9-4.2-4.2c0-0.6,0.5-1.1,1.1-1.1
		c0.6,0,1.1,0.5,1.1,1.1c0,1.2,1,2.1,2.1,2.1c1.8,0,3.2,1.4,3.2,3.2C58.8,65.8,58.4,66.2,57.8,66.2z"/>
	<path class="st0" d="M57.8,69.4c-0.6,0-1.1-0.5-1.1-1.1v-3.2c0-0.6,0.5-1.1,1.1-1.1s1.1,0.5,1.1,1.1v3.2
		C58.8,68.9,58.4,69.4,57.8,69.4z"/>
	<path class="st0" d="M52.5,55.7H35.5c-0.6,0-1.1-0.5-1.1-1.1V41.9c0-0.6,0.5-1.1,1.1-1.1h16.9c0.6,0,1.1,0.5,1.1,1.1v12.7
		C53.5,55.2,53.1,55.7,52.5,55.7z M36.6,53.5h14.8V42.9H36.6V53.5z"/>
	<path class="st0" d="M47.2,51.4h-6.4c-0.6,0-1.1-0.5-1.1-1.1v-4.2c0-0.6,0.5-1.1,1.1-1.1h6.4c0.6,0,1.1,0.5,1.1,1.1v4.2
		C48.2,50.9,47.8,51.4,47.2,51.4z M41.9,49.3h4.2v-2.1h-4.2V49.3z"/>
	<path class="st0" d="M50.4,42.9H37.6c-0.6,0-1.1-0.5-1.1-1.1v-4.2c0-4.1,3.3-7.4,7.4-7.4s7.4,3.3,7.4,7.4v4.2
		C51.4,42.5,50.9,42.9,50.4,42.9z M38.7,40.8h10.6v-3.2c0-2.9-2.4-5.3-5.3-5.3s-5.3,2.4-5.3,5.3V40.8z"/>
	<path class="st0" d="M46.1,42.9h-4.2c-0.6,0-1.1-0.5-1.1-1.1v-4.2c0-1.8,1.4-3.2,3.2-3.2s3.2,1.4,3.2,3.2v4.2
		C47.2,42.5,46.7,42.9,46.1,42.9z M42.9,40.8h2.1v-3.2c0-0.6-0.5-1.1-1.1-1.1s-1.1,0.5-1.1,1.1V40.8z"/>
</g>
</svg>
