<svg id="圖層_1" data-name="圖層 1" xmlns="http://www.w3.org/2000/svg" viewBox="0 0 88 88"><defs><style>.cls-1{fill:#7caedd;}</style></defs><title>icon</title><path class="cls-1" d="M68.1,54.8V21.1a8.6,8.6,0,0,0-8.5-8.6H28.4a8.6,8.6,0,0,0-8.5,8.6V54.8a2,2,0,0,0-1.1,1.8v4.2a2.2,2.2,0,0,0,2.1,2.1v9.4a3.2,3.2,0,0,0,3.2,3.2h4.2a3.1,3.1,0,0,0,3.1-3.2V70l6.5-1.9H50.1L56.6,70v2.3a3.1,3.1,0,0,0,3.1,3.2h4.2a3.2,3.2,0,0,0,3.2-3.2V62.9a2.2,2.2,0,0,0,2.1-2.1V56.6A2,2,0,0,0,68.1,54.8ZM22,21.1a6.5,6.5,0,0,1,6.4-6.5H59.6A6.5,6.5,0,0,1,66,21.1V54.5H63.9V21a4.3,4.3,0,0,0-4.3-4.3H28.4A4.3,4.3,0,0,0,24.1,21V54.5H22ZM57.6,40.9H52.4V29.3a2.1,2.1,0,0,0-2.1-2.1H37.7a2.2,2.2,0,0,0-2.1,2.1V40.9H30.4A2.1,2.1,0,0,0,28.3,43V54.5H26.2V21a2.2,2.2,0,0,1,2.2-2.2H59.6A2.2,2.2,0,0,1,61.8,21V54.5H59.7V43A2.1,2.1,0,0,0,57.6,40.9ZM34,50.1a1.2,1.2,0,0,0,1,.1l1.7-.8,1.6.8a1.2,1.2,0,0,0,1-.1,1.1,1.1,0,0,0,.5-.9V43H43V54.5H30.4V43h3.1v6.2A1.1,1.1,0,0,0,34,50.1Zm1.6-2.5V43h2.1v4.6l-.6-.3a.7.7,0,0,0-.9,0Zm2.1-6.7V29.3h3.2v6.3a.9.9,0,0,0,.5.9,1.2,1.2,0,0,0,1,.1l1.6-.9,1.6.9a1.4,1.4,0,0,0,1.1-.1,1.1,1.1,0,0,0,.5-.9V29.3h3.1V40.9Zm5.3-7V29.3h2.1v4.6l-.6-.3a1.7,1.7,0,0,0-1,0ZM52.4,43v4.6l-.6-.3a.7.7,0,0,0-.9,0l-.6.3V43Zm-7.3,0h3.1v6.2a1.1,1.1,0,0,0,.5.9,1.2,1.2,0,0,0,1,.1l1.6-.8,1.7.8a1.2,1.2,0,0,0,1-.1,1.1,1.1,0,0,0,.5-.9V43h3.1V54.5H45.1V43ZM29.3,65h-1a1,1,0,0,0-1.1,1,1.1,1.1,0,0,0,1.1,1.1h1v2.1h-1a1,1,0,0,0-1.1,1,1.1,1.1,0,0,0,1.1,1.1h1v1a1,1,0,0,1-1,1.1H24.1A1.1,1.1,0,0,1,23,72.3v-1h1.1a1,1,0,0,0,1-1.1.9.9,0,0,0-1-1H23V67.1h1.1a1,1,0,0,0,1-1.1.9.9,0,0,0-1-1H23V62.9h6.3V65Zm7.4,1.3-5.3,1.5V62.9h5.3ZM49.2,66H38.8V62.9H49.2Zm7.4,1.8-5.3-1.5V62.9h5.3ZM65,65H63.9a1,1,0,0,0-1,1,1.1,1.1,0,0,0,1,1.1H65v2.1H63.9a1,1,0,0,0-1,1,1.1,1.1,0,0,0,1,1.1H65v1a1.1,1.1,0,0,1-1.1,1.1H59.7a1.1,1.1,0,0,1-1-1.1v-1h1a1.1,1.1,0,0,0,1.1-1.1,1,1,0,0,0-1.1-1h-1V67.1h1A1.1,1.1,0,0,0,60.8,66a1,1,0,0,0-1.1-1h-1V62.9H65V65Zm1-4.2H20.9V56.6H67.1v4.2Z"/></svg>