<svg id="圖層_1" data-name="圖層 1" xmlns="http://www.w3.org/2000/svg" viewBox="0 0 34 34"><defs><style>.cls-1{fill:#898989;stroke:#898989;stroke-miterlimit:10;stroke-width:0.65px;}</style></defs><title>icon</title><path class="cls-1" d="M3.7,20.5a.9.9,0,0,1,.9.9v4.4a1.8,1.8,0,0,0,1.8,1.8H27.7a1.8,1.8,0,0,0,1.7-1.8V21.4a.9.9,0,1,1,1.8,0v4.4a3.6,3.6,0,0,1-3.5,3.6H6.4a3.6,3.6,0,0,1-3.6-3.6V21.4A.9.9,0,0,1,3.7,20.5Z"/><path class="cls-1" d="M16.4,23.9a.7.7,0,0,0,1.2,0h0L23,18.6a.9.9,0,0,0,0-1.2.9.9,0,0,0-1.3,0l-3.8,3.8V5.6a.9.9,0,1,0-1.8,0V21.2l-3.8-3.8a.8.8,0,0,0-1.2,0,.7.7,0,0,0,0,1.2Z"/></svg>