<?xml version="1.0" encoding="utf-8"?>
<!-- Generator: Adobe Illustrator 22.0.1, SVG Export Plug-In . SVG Version: 6.00 Build 0)  -->
<svg version="1.1" id="圖層_1" xmlns="http://www.w3.org/2000/svg" xmlns:xlink="http://www.w3.org/1999/xlink" x="0px" y="0px"
	 viewBox="0 0 88 88" style="enable-background:new 0 0 88 88;" xml:space="preserve">
<style type="text/css">
	.st0{fill:#FFFFFF;}
	.st1{fill:#FFFFFF;stroke:#FFFFFF;stroke-width:0.2;stroke-miterlimit:10;}
</style>
<title>icon</title>
<polygon class="st0" points="3.9,49.1 3.9,49.1 3.9,49.1 "/>
<polygon class="st0" points="3.9,25 3.9,25 3.9,25 "/>
<path class="st1" d="M85,60.9l-10.4-5l10.4-5c0.4-0.2,0.7-0.7,0.7-1.2c0-0.5-0.2-1-0.7-1.2l-10.4-5L85,38.4c0.7-0.4,0.9-1.3,0.5-1.9
	c-0.1-0.2-0.3-0.4-0.5-0.5l-9.5-4.6l9.5-4.7c0.4-0.2,0.7-0.6,0.7-1.1c0.1-0.5-0.2-1-0.7-1.2L44.6,4.8c-0.4-0.2-0.8-0.2-1.2,0L3,24.4
	c-0.4,0.2-0.7,0.7-0.7,1.2c0,0.5,0.3,0.9,0.7,1.1l9.5,4.7L3,36c-0.4,0.2-0.7,0.7-0.7,1.2c0,0.5,0.2,1,0.7,1.2l10.3,5.1L3,48.5
	c-0.5,0.2-0.7,0.7-0.7,1.2c0,0.5,0.3,1,0.7,1.2L13.3,56L3,60.9c-0.4,0.3-0.7,0.7-0.7,1.2c0,0.5,0.2,1,0.7,1.2l40.2,19.9h1.2L85,63.3
	c0.5-0.2,0.7-0.7,0.7-1.2C85.7,61.6,85.4,61.1,85,60.9z M82.9,25.6l-9.7,4.7l-1.1,0.6l-1.2,0.5l-10.5,5.2l-1.2,0.5l-1.1,0.6
	l-10.5,5.1l-1.2,0.6l-1.1,0.5l-1.5,0.8l-1.3-0.6l-1.1-0.6l-1.2-0.6l-10.4-5.1l-1.2-0.6l-1.1-0.6L17,31.4l-1.1-0.5l-1.2-0.6l-9.6-4.7
	L44,6.7L82.9,25.6z M25.2,37.7l1.2,0.6l1.1,0.6L38,44l1.1,0.6l1.1,0.6l3,1.4l0.6,0.2l0.6-0.2l3.2-1.5l1.1-0.6l1.2-0.6l10.5-5.1
	l1.1-0.6l1.2-0.5l10.5-5.2l9.7,4.7l-10.6,5.2l-1.1,0.5L70,43.5l-10.5,5.1l-1.1,0.6l-1.2,0.5l-13.4,6.6l-13.2-6.5l-1.1-0.6l-1.2-0.5
	l-10.4-5.2L16.7,43l-1.1-0.6L5.1,37.2l9.6-4.6L25.2,37.7z M26.1,49.8l1.1,0.6l1.1,0.5l14.9,7.4h1.2l15.1-7.5l1.2-0.5l1.1-0.6
	l10.5-5.1l10.6,5.1l-10.5,5.1l-1.2,0.6l-1.1,0.5L43.8,68.8L17.9,56l-1.2-0.6l-1.1-0.5L5.1,49.7l10.5-5.1L26.1,49.8z M43.2,70.7
	l0.6,0.2l0.6-0.2l28-13.7l10.5,5.1L43.8,81.3L5.1,62.1l10.5-5L43.2,70.7z"/>
</svg>
