<svg id="圖層_1" data-name="圖層 1" xmlns="http://www.w3.org/2000/svg" viewBox="0 0 88 88"><defs><style>.cls-1{fill:#fa7805;}</style></defs><title>icon</title><circle class="cls-1" cx="44" cy="54.9" r="1.4"/><path class="cls-1" d="M74.5,11.9h-61a5.7,5.7,0,0,0-5.6,5.7V57.1a5.7,5.7,0,0,0,5.6,5.7H36.2l-1.6,4.8a4.3,4.3,0,0,0,.8,8.5H52.7a4.3,4.3,0,0,0,.7-8.5l-1.6-4.8H74.5a5.8,5.8,0,0,0,5.7-5.7V17.6A5.8,5.8,0,0,0,74.5,11.9ZM54.1,71.8a1.4,1.4,0,0,1-1.4,1.4H35.4a1.4,1.4,0,1,1,0-2.8H52.7A1.4,1.4,0,0,1,54.1,71.8Zm-3.7-4.2H37.6l1.6-4.8h9.6ZM77.3,57.1a2.7,2.7,0,0,1-2.8,2.8h-61a2.8,2.8,0,0,1-2.8-2.8V17.6a2.8,2.8,0,0,1,2.8-2.8h61a2.7,2.7,0,0,1,2.8,2.8V57.1Z"/><path class="cls-1" d="M70.2,18.4H17.8a3.5,3.5,0,0,0-3.5,3.5V52.8a3.5,3.5,0,0,0,3.5,3.5H37.7a1.4,1.4,0,1,0,0-2.8H17.8a.8.8,0,0,1-.7-.7V21.9a.8.8,0,0,1,.7-.7H70.2a.7.7,0,0,1,.7.7V52.8a.7.7,0,0,1-.7.7H50.3a1.4,1.4,0,1,0,0,2.8H70.2a3.5,3.5,0,0,0,3.5-3.5V21.9a3.5,3.5,0,0,0-3.5-3.5Z"/><path class="cls-1" d="M35.8,32.3V27.6A3.6,3.6,0,0,0,32.3,24H24.7a3.6,3.6,0,0,0-3.6,3.6v4.7a3.6,3.6,0,0,0,3.6,3.5h7.6A3.5,3.5,0,0,0,35.8,32.3Zm-2.8,0a.8.8,0,0,1-.7.7H24.7a.8.8,0,0,1-.7-.7V27.6a.7.7,0,0,1,.7-.7h7.6a.7.7,0,0,1,.7.7Z"/><path class="cls-1" d="M66,38.7a1.3,1.3,0,0,0-1-1L54.6,34.9a1.5,1.5,0,0,0-1.4.4,1.3,1.3,0,0,0-.3,1.3L55.7,47a1.3,1.3,0,0,0,1,1,1.3,1.3,0,0,0,1.3-.3l.8-.8,3.8,3.7a1.2,1.2,0,0,0,2,0l4-4a1.5,1.5,0,0,0,0-2l-3.8-3.7.8-.8a1.5,1.5,0,0,0,.4-1.4Zm-.4,6.9-2,2-3.8-3.7a1.4,1.4,0,0,0-1-.5,1.6,1.6,0,0,0-1,.5h0l-1.6-5.6,5.7,1.5h-.1a1.5,1.5,0,0,0,0,2Z"/><path class="cls-1" d="M39.2,28.5h8.7a1.4,1.4,0,1,0,0-2.8H39.2a1.4,1.4,0,0,0,0,2.8Z"/><path class="cls-1" d="M39.2,34.1h8.7a1.5,1.5,0,0,0,1.5-1.4,1.5,1.5,0,0,0-1.5-1.4H39.2a1.4,1.4,0,0,0-1.4,1.4A1.4,1.4,0,0,0,39.2,34.1Z"/><path class="cls-1" d="M39.2,42.3h8.7a1.5,1.5,0,1,0,0-2.9H39.2a1.4,1.4,0,0,0-1.4,1.4A1.5,1.5,0,0,0,39.2,42.3Z"/><path class="cls-1" d="M49.4,46.5a1.5,1.5,0,0,0-1.5-1.4H39.2a1.4,1.4,0,0,0,0,2.8h8.7A1.5,1.5,0,0,0,49.4,46.5Z"/><path class="cls-1" d="M22.6,43.8a5.9,5.9,0,1,0,5.9-5.9,5.9,5.9,0,0,0-5.9,5.9Zm8.9,0a3.1,3.1,0,1,1-6.1,0,3.1,3.1,0,0,1,6.1,0Z"/></svg>