<svg id="圖層_1" data-name="圖層 1" xmlns="http://www.w3.org/2000/svg" viewBox="0 0 88 88"><defs><style>.cls-1{fill:#fa7805;}.cls-2{fill:none;stroke:#fa7805;stroke-linecap:round;stroke-linejoin:round;stroke-width:3px;}</style></defs><title>icon</title><path class="cls-1" d="M44,40.6a7.7,7.7,0,1,1-7.7,7.7A7.6,7.6,0,0,1,44,40.6m0-3A10.7,10.7,0,1,0,54.7,48.3,10.7,10.7,0,0,0,44,37.6Z"/><path class="cls-1" d="M21.5,33.8a7.8,7.8,0,1,1-7.7,7.7,7.8,7.8,0,0,1,7.7-7.7m0-3A10.8,10.8,0,1,0,32.3,41.5,10.7,10.7,0,0,0,21.5,30.8Z"/><path class="cls-1" d="M66.3,33.8a7.8,7.8,0,1,1-7.7,7.7,7.7,7.7,0,0,1,7.7-7.7m0-3A10.8,10.8,0,1,0,77.1,41.5,10.7,10.7,0,0,0,66.3,30.8Z"/><path class="cls-2" d="M28,74.8V66c0-1.5,5.9-5,16-5s16,3.5,16,5v8.8"/><path class="cls-2" d="M5.7,68.3V59.5c0-1.4,5.9-4.9,16-4.9,6.4,0,11.1,1.4,13.7,2.8"/><path class="cls-2" d="M52.5,57.4c2.6-1.4,7.3-2.8,13.8-2.8,10.1,0,16,3.5,16,4.9v8.8"/><line class="cls-2" x1="35.6" y1="31.3" x2="43.1" y2="23.8"/><line class="cls-2" x1="49.7" y1="33.7" x2="57.3" y2="26.2"/><line class="cls-2" x1="45.3" y1="29" x2="60.4" y2="14.1"/><polyline class="cls-2" points="51.5 13.3 61.1 13.3 61.1 21.9"/></svg>