<svg id="圖層_1" data-name="圖層 1" xmlns="http://www.w3.org/2000/svg" viewBox="0 0 85 85"><defs><style>.cls-1{fill:#efefef;}.cls-2{fill:#fa7805;}.cls-3{fill:none;stroke:#fa7805;stroke-miterlimit:10;stroke-width:2px;}</style></defs><title>icon</title><circle class="cls-1" cx="42.6" cy="44.5" r="27.7"/><path class="cls-2" d="M42.6,9.7a11.1,11.1,0,1,1-11.1,11,11.1,11.1,0,0,1,11.1-11m0-2a13.1,13.1,0,1,0,13.1,13,13.1,13.1,0,0,0-13.1-13Z"/><path class="cls-2" d="M42.6,16.7a2.6,2.6,0,1,1-2.5,2.5,2.5,2.5,0,0,1,2.5-2.5m0-2a4.6,4.6,0,1,0,4.5,4.5,4.5,4.5,0,0,0-4.5-4.5Z"/><path class="cls-3" d="M35.9,30.4V26.7c0-.6,2.5-2.1,6.7-2.1s6.7,1.5,6.7,2.1v3.7"/><path class="cls-2" d="M42.6,40.2a5.4,5.4,0,1,1-5.4,5.4,5.4,5.4,0,0,1,5.4-5.4m0-2A7.4,7.4,0,1,0,50,45.6a7.4,7.4,0,0,0-7.4-7.4Z"/><line class="cls-3" x1="42.6" y1="32.3" x2="42.6" y2="39.6"/><line class="cls-3" x1="47.9" y1="49.5" x2="56.6" y2="56.2"/><line class="cls-3" x1="37.5" y1="49.5" x2="28.7" y2="56.2"/><path class="cls-2" d="M66.7,53.2A11.1,11.1,0,1,1,55.6,64.3,11.1,11.1,0,0,1,66.7,53.2m0-2a13.1,13.1,0,1,0,13,13.1,13.1,13.1,0,0,0-13-13.1Z"/><path class="cls-2" d="M66.7,60.3a2.5,2.5,0,0,1,0,5,2.5,2.5,0,0,1,0-5m0-2a4.5,4.5,0,1,0,4.5,4.5,4.5,4.5,0,0,0-4.5-4.5Z"/><path class="cls-3" d="M59.9,73.9V70.2c0-.6,2.5-2.1,6.8-2.1s6.7,1.5,6.7,2.1v3.7"/><path class="cls-2" d="M18.4,51.8A11.1,11.1,0,1,1,7.3,62.9,11.1,11.1,0,0,1,18.4,51.8m0-2a13.1,13.1,0,1,0,13,13.1,13.1,13.1,0,0,0-13-13.1Z"/><path class="cls-2" d="M18.4,58.9a2.5,2.5,0,1,1-2.5,2.5,2.5,2.5,0,0,1,2.5-2.5m0-2a4.5,4.5,0,1,0,4.5,4.5,4.5,4.5,0,0,0-4.5-4.5Z"/><path class="cls-3" d="M11.6,72.5V68.8c0-.6,2.5-2.1,6.8-2.1s6.7,1.5,6.7,2.1v3.7"/></svg>