<svg id="圖層_1" data-name="圖層 1" xmlns="http://www.w3.org/2000/svg" viewBox="0 0 88 88"><defs><style>.cls-1,.cls-2{fill:#ff5f5f;}.cls-1{stroke:#ff5f5f;stroke-miterlimit:10;stroke-width:1.67px;}</style></defs><title>icon</title><path class="cls-1" d="M62.3,58.5A12.2,12.2,0,1,1,74.5,46.3,12.2,12.2,0,0,1,62.3,58.5Zm0-23.2a11,11,0,1,0,11,11A11,11,0,0,0,62.3,35.3Z"/><path class="cls-1" d="M62.3,37.8a.6.6,0,0,1-.6-.6V32.3a.6.6,0,0,1,1.2,0v4.9A.6.6,0,0,1,62.3,37.8Z"/><path class="cls-1" d="M76.3,46.9H71.5c-.4,0-.7-.2-.7-.6a.7.7,0,0,1,.7-.6h4.8a.7.7,0,0,1,.7.6C77,46.7,76.7,46.9,76.3,46.9Z"/><path class="cls-1" d="M62.3,61a.6.6,0,0,1-.6-.6V55.5a.6.6,0,0,1,1.2,0v4.9A.6.6,0,0,1,62.3,61Z"/><path class="cls-1" d="M53.2,46.9H48.3a.5.5,0,0,1-.6-.6.6.6,0,0,1,.6-.6h4.9a.6.6,0,0,1,.6.6A.6.6,0,0,1,53.2,46.9Z"/><path class="cls-1" d="M62.3,50a3.6,3.6,0,0,1-3.7-3.7,3.7,3.7,0,0,1,7.4,0A3.6,3.6,0,0,1,62.3,50Zm0-6.1a2.5,2.5,0,1,0,2.4,2.4A2.4,2.4,0,0,0,62.3,43.9Z"/><path class="cls-2" d="M52,17.3A17,17,0,0,0,40.3,22h0a17.2,17.2,0,0,0-11.8-4.7A17.7,17.7,0,0,0,11.1,35.2a14.6,14.6,0,0,0,1.7,6.5h-.4a1.3,1.3,0,0,0-1.3,1.2,1.2,1.2,0,0,0,1.2,1.4h1.8A75.4,75.4,0,0,0,25.4,58,142.4,142.4,0,0,0,39.5,70.4a1.1,1.1,0,0,0,.8.3,1.3,1.3,0,0,0,.8-.3s5.4-4.2,11.4-9.8a1.4,1.4,0,0,0,0-1.9,1.4,1.4,0,0,0-1.8.1,137.5,137.5,0,0,1-10.4,9h0A161.9,161.9,0,0,1,27.2,56.2,79.1,79.1,0,0,1,17.1,44.3H28.5a1.4,1.4,0,0,0,1.3-.9L32,35.6h0l6.2,19.8a1.2,1.2,0,0,0,1.5.8,1.2,1.2,0,0,0,.9-.9L44,44.4h5.7A1.2,1.2,0,0,0,51,43.2a1.3,1.3,0,0,0-1.3-1.3H43.1a1.1,1.1,0,0,0-1.2.9l-2.5,7.9h0L33.2,30.8a1.3,1.3,0,0,0-1.3-.9,1.4,1.4,0,0,0-1.2.9L27.6,41.7h-12a14.5,14.5,0,0,1-2-6.5A15.1,15.1,0,0,1,28.5,19.9a14.3,14.3,0,0,1,10.8,4.8,1.2,1.2,0,0,0,1.5.2c.2,0,.3-.1.4-.3A14.8,14.8,0,0,1,66.6,32a2.4,2.4,0,0,0,.6,1.1,1.5,1.5,0,0,0,1.6.2,1.1,1.1,0,0,0,.4-1.2c0-.3-.1-.5-.1-.7L68.8,30a26,26,0,0,0-1-2.5A15.2,15.2,0,0,0,65,23.2,19.5,19.5,0,0,0,61.2,20a19.2,19.2,0,0,0-4.6-2.1A17.6,17.6,0,0,0,52,17.3Z"/></svg>