<svg id="圖層_1" data-name="圖層 1" xmlns="http://www.w3.org/2000/svg" viewBox="0 0 88 88"><defs><style>.cls-1{fill:#fff;}</style></defs><title>icon</title><path class="cls-1" d="M61.9,10.7a2.4,2.4,0,0,0-1.4-.5h-.8a2.1,2.1,0,0,0-1.2,1.9v9.9h-.9c-9.1.6-13.9,4.2-15.1,5.3A28.6,28.6,0,0,0,32.3,53.7h0l.4,2.2a1.9,1.9,0,0,0,1.5,1.6h.4a1.9,1.9,0,0,0,1.6-.9l1.2-2c6.8-11.5,15.4-13.2,19.9-13.2h1V51.9a2.2,2.2,0,0,0,1.3,1.9,2.1,2.1,0,0,0,2.2-.5l20-20.1a1.6,1.6,0,0,0,.6-1.3,1.8,1.8,0,0,0-.6-1.4ZM62.4,47V39.8a2,2,0,0,0-1.6-2c-4-.5-14.1-.7-22.9,9.5l-2.2,2.5.5-3.3a24.8,24.8,0,0,1,8.8-16l.3-.2h.2c1.6-1.6,6.8-4.2,14.6-4.2h.3a1.9,1.9,0,0,0,2-2V17L77.5,32Z"/><path class="cls-1" d="M45.4,30.3l-.3.2h.1Z"/><path class="cls-1" d="M71.5,62.4a1.9,1.9,0,0,0-2,2v9.5H9.6V28h19a2,2,0,0,0,2-2,1.9,1.9,0,0,0-2-2H7.6a1.9,1.9,0,0,0-2,2V75.9a1.9,1.9,0,0,0,2,1.9H71.5a1.9,1.9,0,0,0,2-1.9V64.4A1.9,1.9,0,0,0,71.5,62.4Z"/></svg>