<?xml version="1.0" encoding="utf-8"?>
<!-- Generator: Adobe Illustrator 22.0.1, SVG Export Plug-In . SVG Version: 6.00 Build 0)  -->
<svg version="1.1" id="圖層_1" xmlns="http://www.w3.org/2000/svg" xmlns:xlink="http://www.w3.org/1999/xlink" x="0px" y="0px"
	 viewBox="0 0 88 88" style="enable-background:new 0 0 88 88;" xml:space="preserve">
<style type="text/css">
	.st0{fill:none;stroke:#FFFFFF;stroke-width:2;stroke-linecap:round;stroke-linejoin:round;}
</style>
<title>icon</title>
<line class="st0" x1="16.4" y1="74.5" x2="10.4" y2="74.5"/>
<line class="st0" x1="47" y1="74.5" x2="41" y2="74.5"/>
<line class="st0" x1="44" y1="77.4" x2="44" y2="71.5"/>
<line class="st0" x1="76.5" y1="74.5" x2="70.6" y2="74.5"/>
<rect x="31.6" y="11" class="st0" width="5.1" height="34.3"/>
<rect x="36.8" y="24.5" class="st0" width="5.1" height="20.8"/>
<rect x="46.4" y="25.6" class="st0" width="5.1" height="19.7"/>
<rect x="41.9" y="30.5" class="st0" width="4.5" height="14.8"/>
<rect x="51.5" y="36.8" class="st0" width="4.5" height="8.5"/>
<polygon class="st0" points="46.4,6.5 60.8,21.1 60.8,50.1 27.3,50.1 27.3,6.5 "/>
<polyline class="st0" points="60.8,20.6 46.4,20.6 46.4,6.5 "/>
<line class="st0" x1="44" y1="50.1" x2="44" y2="66.6"/>
<polyline class="st0" points="13.4,66.6 13.4,58.9 74,58.9 74,67.1 "/>
<line class="st0" x1="21.5" y1="74.4" x2="35.6" y2="74.4"/>
<line class="st0" x1="51.5" y1="74.4" x2="66.2" y2="74.4"/>
<circle class="st0" cx="13.4" cy="74.5" r="7.3"/>
<circle class="st0" cx="44" cy="74.4" r="7.3"/>
<circle class="st0" cx="73.6" cy="74.5" r="7.3"/>
</svg>
