<?xml version="1.0" encoding="utf-8"?>
<!-- Generator: Adobe Illustrator 13.0.0, SVG Export Plug-In . SVG Version: 6.00 Build 14948)  -->
<!DOCTYPE svg PUBLIC "-//W3C//DTD SVG 1.1//EN" "http://www.w3.org/Graphics/SVG/1.1/DTD/svg11.dtd">
<svg version="1.1" id="Layer_1" xmlns="http://www.w3.org/2000/svg" xmlns:xlink="http://www.w3.org/1999/xlink" x="0px" y="0px"
	 width="35px" height="26px" viewBox="0 0 35 26" enable-background="new 0 0 35 26" xml:space="preserve">
<path fill="#3AAA96" d="M28.562,4.062C28.582,4.062,18.264,0.102,18,0C17.797,0.081,7.417,4.062,7.437,4.062v7.475
	C7.437,16.717,8.92,23.481,18,26c9.059-2.519,10.542-9.404,10.542-14.462C28.562,8.978,28.562,4.062,28.562,4.062z"/>
<path fill="#3DB39E" d="M7.437,11.538C7.437,16.717,8.92,23.481,18,26V0C17.613,0.142,7.437,4.062,7.437,4.062V11.538z"/>
<path fill="#FFFFFF" d="M26.511,5.464c0.021,0-8.309-3.352-8.531-3.433c-0.184,0.061-8.552,3.291-8.532,3.271v6.276
	c0,4.347,0.854,10.278,8.532,12.391c7.657-2.112,8.531-8.146,8.531-12.391C26.531,9.425,26.531,5.464,26.511,5.464z"/>
<path fill="#FFFFFF" d="M18,2.031c-0.184,0.061-8.552,3.291-8.532,3.271v6.276c0,4.347,0.853,10.278,8.532,12.391V2.031z"/>
<path fill="#00B7A8" d="M23.673,10.604c-0.087-0.287-0.344-0.487-0.658-0.544l-2.982-0.43l-1.29-2.637
	c-0.143-0.287-0.43-0.458-0.744-0.458c-0.315,0-0.603,0.172-0.746,0.458l-1.29,2.637l-2.981,0.43
	c-0.315,0.057-0.573,0.258-0.66,0.544c-0.085,0.287-0.028,0.603,0.201,0.803l2.18,2.149l-0.517,2.98
	c-0.058,0.287,0.086,0.603,0.344,0.775c0.143,0.087,0.316,0.143,0.487,0.143c0.143,0,0.286-0.028,0.402-0.087l2.607-1.375
	l2.609,1.375c0.114,0.059,0.258,0.087,0.4,0.087c0.173,0,0.345-0.057,0.488-0.143c0.258-0.173,0.4-0.488,0.343-0.775l-0.515-2.98
	l2.179-2.149C23.703,11.177,23.787,10.891,23.673,10.604z"/>
</svg>
