<?xml version="1.0" encoding="utf-8"?>
<!-- Generator: Adobe Illustrator 13.0.0, SVG Export Plug-In . SVG Version: 6.00 Build 14948)  -->
<!DOCTYPE svg PUBLIC "-//W3C//DTD SVG 1.1//EN" "http://www.w3.org/Graphics/SVG/1.1/DTD/svg11.dtd">
<svg version="1.1" id="Layer_1" xmlns="http://www.w3.org/2000/svg" xmlns:xlink="http://www.w3.org/1999/xlink" x="0px" y="0px"
	 width="35px" height="26px" viewBox="0 0 35 26" enable-background="new 0 0 35 26" xml:space="preserve">
<g>
	<g>
		<polygon fill="#FFD15C" points="16.691,14.246 13.171,23.888 12.412,26 8.621,26 9.975,22.209 12.846,14.246 		"/>
		<polygon fill="#FFD15C" points="26.062,26 22.271,26 21.513,23.888 17.992,14.246 21.838,14.246 24.709,22.209 		"/>
	</g>
	<g>
		<path fill="#F8B64C" d="M12.846,14.246h3.846l-3.467,9.642c-1.137-0.38-2.221-0.976-3.25-1.679L12.846,14.246z"/>
		<path fill="#F8B64C" d="M24.709,22.209c-0.976,0.703-2.059,1.245-3.25,1.679l-3.467-9.642h3.846L24.709,22.209z"/>
	</g>
	<circle fill="#FF7058" cx="17.342" cy="11.917" r="11.917"/>
	<circle fill="#FFFFFF" cx="17.342" cy="11.917" r="9.371"/>
	<circle fill="#FF7058" cx="17.342" cy="11.917" r="6.879"/>
	<circle fill="#FFFFFF" cx="17.342" cy="11.917" r="4.388"/>
	<circle fill="#FF7058" cx="17.342" cy="11.917" r="1.896"/>
	<path fill="#40596B" d="M26.334,4.442l-8.667,7.746h-0.054l-0.543-0.541v-0.055l8.668-7.8h0.054l0.487,0.542
		C26.334,4.388,26.334,4.388,26.334,4.442z"/>
	<g>
		<polygon fill="#334A5E" points="25.142,4.983 22,7.8 21.566,5.525 24.709,2.708 		"/>
		<polygon fill="#334A5E" points="24.221,8.45 27.363,5.688 25.142,4.983 22,7.8 		"/>
	</g>
</g>
</svg>