<?xml version="1.0" encoding="utf-8"?>
<!-- Generator: Adobe Illustrator 13.0.0, SVG Export Plug-In . SVG Version: 6.00 Build 14948)  -->
<!DOCTYPE svg PUBLIC "-//W3C//DTD SVG 1.1//EN" "http://www.w3.org/Graphics/SVG/1.1/DTD/svg11.dtd">
<svg version="1.1" id="Layer_1" xmlns="http://www.w3.org/2000/svg" xmlns:xlink="http://www.w3.org/1999/xlink" x="0px" y="0px"
	 width="35px" height="26px" viewBox="0 0 35 26" enable-background="new 0 0 35 26" xml:space="preserve">
<g>
	<path fill="#FFCE00" d="M29.143,0.167c-0.446,0-0.823,0.291-0.979,0.708c-1.827,0.946-6.065,3.096-9.177,4.283
		C13.135,7.396,8.032,7.984,8.032,7.984v8.411c0,0,1.748,0.201,4.357,0.812l0.036,7.842c0.013,0.613,0.521,1.117,1.135,1.117
		l1.822-0.008c0.614,0,1.118-0.508,1.118-1.131l-0.041-6.686c0.814,0.258,1.663,0.543,2.527,0.873
		c3.111,1.193,7.35,3.344,9.181,4.289c0.151,0.41,0.528,0.709,0.975,0.709c0.573,0,1.049-0.508,1.049-1.123V1.293
		C30.191,0.674,29.716,0.167,29.143,0.167L29.143,0.167z M29.143,0.167"/>
	<rect x="4.039" y="8.072" fill="#FFCE00" width="3.055" height="8.225"/>
</g>
</svg>
