<?xml version="1.0" encoding="utf-8"?>
<!-- Generator: Adobe Illustrator 13.0.0, SVG Export Plug-In . SVG Version: 6.00 Build 14948)  -->
<!DOCTYPE svg PUBLIC "-//W3C//DTD SVG 1.1//EN" "http://www.w3.org/Graphics/SVG/1.1/DTD/svg11.dtd">
<svg version="1.1" id="Layer_1" xmlns="http://www.w3.org/2000/svg" xmlns:xlink="http://www.w3.org/1999/xlink" x="0px" y="0px"
	 width="35px" height="26px" viewBox="0 0 35 26" enable-background="new 0 0 35 26" xml:space="preserve">
<g>
	<path fill="#0084FF" d="M11.488,19.742c0.962,2.186,2.398,4.275,4.277,6.221c-3.728-0.582-6.894-2.949-8.731-6.271L11.488,19.742z
		 M15.694,0.143C12.1,0.723,9.019,2.985,7.17,6.165l4.319,0.051C12.439,4.074,13.854,2.035,15.694,0.143z M17.141,6.28L17.205,0
		c-0.001,0-0.01,0-0.013,0c-2.064,1.928-3.635,4.015-4.683,6.225L17.141,6.28z M7.171,8.231L6.318,8.223L5.476,8.211l-0.066,6.523
		L1.996,8.171l-0.953-0.01L0.093,8.15L0,17.432l0.848,0.014l0.844,0.008l0.067-6.691l3.512,6.733l0.905,0.011l0.902,0.012
		L7.171,8.231z M15.283,9.973l0.008-0.828l0.01-0.822L8.913,8.25l-0.094,9.287l6.587,0.073l0.009-0.825l0.008-0.822l-4.773-0.055
		l0.023-2.423l4.244,0.048l0.007-0.795l0.007-0.801l-4.243-0.048l0.021-1.968L15.283,9.973z M23.943,15.166L23.943,15.166
		l-1.189-6.755l-0.968-0.011l-0.963-0.013l-1.307,6.783l-1.382-6.812l-0.942-0.011L16.25,8.334l2.321,9.314l0.86,0.01l0.863,0.012
		l1.437-7.298l1.32,7.327l0.865,0.014l0.859,0.01l2.509-9.259l-0.917-0.01l-0.916-0.011L23.943,15.166z M18.137,0.011
		c-0.004,0-0.01,0-0.013,0l-0.063,6.28l4.635,0.052C21.69,4.109,20.164,1.988,18.137,0.011z M28.036,6.403
		c-1.786-3.22-4.82-5.551-8.406-6.215c1.806,1.933,3.179,4.002,4.086,6.167L28.036,6.403z M19.044,26
		c3.736-0.496,6.947-2.789,8.856-6.071l-4.456-0.049C22.44,22.042,20.959,24.098,19.044,26z M22.418,19.868l-4.492-0.053
		l-0.061,5.997C19.842,23.971,21.37,21.972,22.418,19.868z M34.384,13.35c-0.425-0.4-1.262-0.759-2.521-1.072
		c-0.867-0.223-1.436-0.405-1.7-0.563c-0.271-0.152-0.406-0.369-0.402-0.649c0.002-0.382,0.135-0.692,0.399-0.904
		c0.26-0.206,0.622-0.312,1.08-0.305c0.531,0.004,0.962,0.142,1.29,0.401c0.326,0.261,0.504,0.611,0.529,1.054l1.766,0.023
		c-0.056-0.935-0.388-1.673-0.992-2.227C33.229,8.552,32.44,8.27,31.468,8.26c-1.037-0.013-1.865,0.243-2.48,0.759
		c-0.613,0.521-0.926,1.241-0.934,2.137c-0.009,0.805,0.215,1.399,0.669,1.786c0.462,0.384,1.38,0.751,2.751,1.093
		c0.746,0.186,1.231,0.368,1.46,0.53c0.229,0.168,0.345,0.424,0.341,0.776c-0.003,0.354-0.169,0.625-0.496,0.822
		c-0.328,0.195-0.777,0.291-1.357,0.283c-0.562-0.006-1-0.143-1.311-0.412c-0.315-0.267-0.476-0.645-0.491-1.143l-1.746-0.019
		c0.032,1.002,0.355,1.777,0.969,2.329c0.612,0.555,1.469,0.834,2.563,0.846c1.097,0.011,1.964-0.229,2.611-0.736
		c0.648-0.506,0.974-1.193,0.982-2.066C35.013,14.379,34.805,13.746,34.384,13.35z M16.945,25.796l0.061-5.991l-4.493-0.052
		C13.522,21.878,15.008,23.912,16.945,25.796z"/>
</g>
</svg>
