<?xml version="1.0" encoding="utf-8"?>
<!-- Generator: Adobe Illustrator 13.0.0, SVG Export Plug-In . SVG Version: 6.00 Build 14948)  -->
<!DOCTYPE svg PUBLIC "-//W3C//DTD SVG 1.1//EN" "http://www.w3.org/Graphics/SVG/1.1/DTD/svg11.dtd">
<svg version="1.1" id="Layer_1" xmlns="http://www.w3.org/2000/svg" xmlns:xlink="http://www.w3.org/1999/xlink" x="0px" y="0px"
	 width="35px" height="26px" viewBox="0 0 35 26" enable-background="new 0 0 35 26" xml:space="preserve">
<g>
	<path fill="#044998" d="M29.248,7.437c-0.654-1.55-1.592-2.935-2.785-4.134c-1.193-1.193-2.584-2.13-4.134-2.786
		C20.731-0.154,19.026-0.5,17.274-0.5c-1.753,0-3.458,0.346-5.061,1.022c-1.544,0.655-2.935,1.593-4.128,2.786
		C6.892,4.502,5.955,5.892,5.299,7.442c-0.676,1.598-1.022,3.302-1.022,5.055c0,1.753,0.346,3.458,1.022,5.061
		c0.655,1.55,1.593,2.94,2.786,4.134s2.583,2.131,4.133,2.786c1.604,0.677,3.308,1.022,5.061,1.022c1.753,0,3.457-0.346,5.061-1.022
		c1.55-0.655,2.935-1.593,4.134-2.786c1.193-1.193,2.131-2.584,2.785-4.134c0.677-1.603,1.023-3.308,1.023-5.061
		C30.282,10.745,29.925,9.041,29.248,7.437L29.248,7.437z M25.515,19.385c-0.102-0.266-0.271-0.506-0.495-0.688
		c-2.126-1.747-4.422-2.908-4.891-3.137c-0.053-0.027-0.085-0.08-0.085-0.139v-3.313c0.415-0.277,0.692-0.751,0.692-1.289V7.383
		c0-1.709-1.385-3.094-3.095-3.094h-0.735c-1.709,0-3.095,1.385-3.095,3.094v3.436c0,0.538,0.277,1.012,0.693,1.289v3.313
		c0,0.059-0.032,0.111-0.085,0.139c-0.469,0.229-2.759,1.39-4.89,3.137c-0.224,0.188-0.394,0.426-0.495,0.688
		c-1.561-1.864-2.504-4.267-2.504-6.888c0-5.923,4.821-10.744,10.745-10.744c5.923,0,10.743,4.82,10.743,10.744
		C28.018,15.118,27.081,17.521,25.515,19.385L25.515,19.385z M25.515,19.385"/>
</g>
</svg>
