<?xml version="1.0" encoding="utf-8"?>
<!-- Generator: Adobe Illustrator 13.0.0, SVG Export Plug-In . SVG Version: 6.00 Build 14948)  -->
<!DOCTYPE svg PUBLIC "-//W3C//DTD SVG 1.1//EN" "http://www.w3.org/Graphics/SVG/1.1/DTD/svg11.dtd">
<svg version="1.1" id="Layer_1" xmlns="http://www.w3.org/2000/svg" xmlns:xlink="http://www.w3.org/1999/xlink" x="0px" y="0px"
	 width="35px" height="26px" viewBox="0 0 35 26" enable-background="new 0 0 35 26" xml:space="preserve">
<g>
	<path fill="#FF6600" d="M30.18,1.354H18.82V0.82C18.82,0.367,18.453,0,18,0s-0.82,0.367-0.82,0.82v0.533H5.82
		C5.367,1.354,5,1.721,5,2.173V4.88C5,5.333,5.367,5.7,5.82,5.7h0.533v14.066c0,0.453,0.368,0.82,0.82,0.82h9.186l-3.076,4.101
		c-0.271,0.363-0.198,0.877,0.164,1.148C13.596,25.947,13.768,26,13.939,26c0.25,0,0.496-0.113,0.657-0.328l2.583-3.445v2.953
		c0,0.453,0.367,0.82,0.82,0.82s0.82-0.367,0.82-0.82v-2.953l2.584,3.445C21.565,25.887,21.812,26,22.061,26
		c0.171,0,0.344-0.053,0.491-0.164c0.362-0.271,0.437-0.785,0.164-1.148l-3.075-4.101h9.186c0.453,0,0.82-0.367,0.82-0.82V5.7h0.533
		C30.633,5.7,31,5.333,31,4.88V2.173C31,1.721,30.633,1.354,30.18,1.354z M6.64,4.06V2.994h22.719V4.06H6.64z M28.007,18.946H7.994
		V5.7h20.012L28.007,18.946L28.007,18.946z"/>
	<path fill="#FF6600" d="M11.233,12.467h12.18c0.453,0,0.82-0.367,0.82-0.82c0-0.453-0.367-0.82-0.82-0.82h-12.18
		c-0.453,0-0.82,0.367-0.82,0.82C10.413,12.1,10.78,12.467,11.233,12.467z"/>
	<path fill="#FF6600" d="M11.233,9.76h2.707c0.453,0,0.82-0.367,0.82-0.82c0-0.453-0.367-0.82-0.82-0.82h-2.707
		c-0.453,0-0.82,0.367-0.82,0.82C10.413,9.393,10.78,9.76,11.233,9.76z"/>
	<path fill="#FF6600" d="M11.233,15.174h8.12c0.453,0,0.82-0.367,0.82-0.82s-0.367-0.82-0.82-0.82h-8.12
		c-0.453,0-0.82,0.367-0.82,0.82S10.78,15.174,11.233,15.174z"/>
</g>
</svg>
