<?xml version="1.0" encoding="utf-8"?>
<!-- Generator: Adobe Illustrator 13.0.0, SVG Export Plug-In . SVG Version: 6.00 Build 14948)  -->
<!DOCTYPE svg PUBLIC "-//W3C//DTD SVG 1.1//EN" "http://www.w3.org/Graphics/SVG/1.1/DTD/svg11.dtd">
<svg version="1.1" id="Layer_1" xmlns="http://www.w3.org/2000/svg" xmlns:xlink="http://www.w3.org/1999/xlink" x="0px" y="0px"
	 width="35px" height="26px" viewBox="0 0 35 26" enable-background="new 0 0 35 26" xml:space="preserve">
<g>
	<g>
		<path fill-rule="evenodd" clip-rule="evenodd" fill="#878787" d="M29.923,11.557c-0.042-0.365-0.468-0.64-0.836-0.64
			c-1.191,0-2.249-0.699-2.692-1.782c-0.452-1.108-0.16-2.4,0.728-3.214c0.279-0.255,0.313-0.683,0.079-0.98
			c-0.609-0.774-1.303-1.474-2.06-2.08c-0.296-0.238-0.731-0.205-0.988,0.08c-0.774,0.858-2.167,1.177-3.242,0.729
			c-1.119-0.471-1.825-1.605-1.756-2.822c0.022-0.383-0.257-0.715-0.638-0.76c-0.972-0.112-1.951-0.116-2.925-0.007
			c-0.377,0.042-0.656,0.366-0.644,0.744c0.042,1.206-0.672,2.32-1.78,2.774c-1.063,0.434-2.445,0.118-3.218-0.733
			C9.695,2.583,9.268,2.549,8.97,2.781C8.19,3.393,7.482,4.093,6.867,4.861c-0.24,0.298-0.205,0.731,0.078,0.987
			c0.905,0.82,1.197,2.123,0.727,3.244c-0.449,1.069-1.558,1.757-2.828,1.757c-0.413-0.013-0.706,0.264-0.751,0.639
			c-0.114,0.976-0.115,1.972-0.005,2.957c0.041,0.367,0.48,0.64,0.853,0.64c1.132-0.029,2.219,0.671,2.675,1.781
			c0.455,1.107,0.162,2.399-0.727,3.215c-0.278,0.255-0.314,0.682-0.079,0.979c0.604,0.77,1.297,1.47,2.056,2.081
			c0.298,0.24,0.731,0.206,0.99-0.078c0.778-0.86,2.169-1.179,3.241-0.729c1.122,0.47,1.828,1.604,1.759,2.821
			c-0.023,0.383,0.258,0.717,0.638,0.76C15.988,25.972,16.487,26,16.988,26c0.477,0,0.952-0.025,1.428-0.079
			c0.377-0.041,0.656-0.366,0.644-0.744c-0.044-1.205,0.672-2.319,1.778-2.772c1.07-0.437,2.446-0.117,3.22,0.732
			c0.257,0.279,0.682,0.313,0.981,0.082c0.777-0.609,1.484-1.31,2.103-2.079c0.24-0.298,0.206-0.731-0.077-0.988
			c-0.905-0.819-1.198-2.123-0.729-3.242c0.441-1.055,1.51-1.763,2.659-1.763l0.16,0.004c0.374,0.03,0.717-0.257,0.762-0.638
			C30.031,13.536,30.033,12.541,29.923,11.557L29.923,11.557z M17.024,17.364c-2.391,0-4.335-1.945-4.335-4.336
			s1.945-4.336,4.335-4.336c2.392,0,4.337,1.945,4.337,4.336S19.416,17.364,17.024,17.364L17.024,17.364z M17.024,17.364"/>
	</g>
</g>
</svg>
