<svg id="圖層_1" data-name="圖層 1" xmlns="http://www.w3.org/2000/svg" xmlns:xlink="http://www.w3.org/1999/xlink" viewBox="0 0 283.5 85"><defs><style>.cls-1{fill:#fff;}.cls-2{clip-path:url(#clip-path);}</style><clipPath id="clip-path"><path class="cls-1" d="M116.1,22.9C115.2,8.6,71.8,1.7,9.1,58.6H22.4c40.9-47.1,99.4-52,90.4-27,0,0,25.5-27.5,55.8-17.3.2.1.4.2.5,0s-.1-.4-.2-.5A45.5,45.5,0,0,0,152,10.6c-20.1,0-35.9,12.3-35.9,12.3"/></clipPath></defs><title>icon</title><path class="cls-1" d="M164.5,40.1h-6.1L155,58.3h-4.6c-3.9,0-2.7-3.7-2.7-3.7l2.8-14.5H129.8c-1.4,0-2.5.4-2.7,1.5s.7,1.7,1.9,1.7h8.9c.3,0,7.2-.1,5.5,7.9-.5,2.4-2.3,7.1-8.2,7.1H116.1c1.4-4.7,2.9-6.1,5.8-6.1h11.5c1.2,0,2.3-.2,2.5-1.4s-.8-1.4-2-1.4h-8.2s-8,.3-6.3-7.7a9.3,9.3,0,0,1,8.4-7.7h41.4l-.9,3.5a3.9,3.9,0,0,1-3.8,2.6"/><path class="cls-1" d="M48.3,58.3l3.8-19.9c.5-2.5,3.2-4.5,6.1-4.5a4.4,4.4,0,0,1,3.9,1.9l6.2,10.1c.1.2.4.2.6,0l10-10.1a7,7,0,0,1,4.7-1.9c2.9,0,4.9,2,4.4,4.5L84.2,58.3H79.6c-3.4,0-2.6-3.7-2.6-3.7l2-10.9-7.4,7.5c-2.4,2.4-6.5,2.4-7.9,0l-4.6-7.5L56.9,55s-.2,3.3-3.4,3.3Z"/><path class="cls-1" d="M48.4,62.9h1.8L52,67.3c.3.6.5,1.2.7,1.7h.1l.6-1.7,1.8-4.4H57v8.7H55.6V67.3a24.5,24.5,0,0,1,.2-2.7h-.1l-.8,2-1.7,4.1h-1l-1.8-4.1-.7-2h-.1a24.5,24.5,0,0,1,.2,2.7v4.3H48.4Z"/><path class="cls-1" d="M59.3,63.1c0-.5.4-.8,1-.8s1,.3,1,.8-.4.8-1,.8-1-.3-1-.8m.2,2h1.6v6.5H59.5Z"/><path class="cls-1" d="M63.4,65.1h1.3V66h.1a3.5,3.5,0,0,1,2.4-1c1.6,0,2.3.9,2.3,2.5v4.1H68.1V67.7c0-1.1-.4-1.6-1.3-1.6A2.4,2.4,0,0,0,65,67v4.6H63.4Z"/><path class="cls-1" d="M71.7,63.1c0-.5.4-.8,1-.8s1,.3,1,.8-.4.8-1,.8-1-.3-1-.8m.2,2h1.6v6.5H71.9Z"/><path class="cls-1" d="M75,70.8l.8-.8a3.8,3.8,0,0,0,2.1.7c.9,0,1.3-.4,1.3-.9s-.8-.8-1.7-1.1-2.1-.8-2.1-1.9,1-1.8,2.7-1.8a4.3,4.3,0,0,1,2.4.7l-.7.9a2.9,2.9,0,0,0-1.7-.6c-.8,0-1.2.3-1.2.8s.8.7,1.6,1,2.2.7,2.2,2-1,1.9-2.9,1.9a5.5,5.5,0,0,1-2.8-.9"/><path class="cls-1" d="M82.3,69.5V66.2H81.2v-1h1.2V63.3h1.4v1.8h1.9v1.1H83.9v3.3c0,.7.3,1.1,1,1.1h.9l.2,1-1.4.2c-1.7,0-2.3-.9-2.3-2.2"/><path class="cls-1" d="M96.7,72c-.6,1.3-1.4,2.3-2.9,2.3l-1-.2.3-1h.6c.8,0,1.2-.5,1.5-1.2l.2-.5-3-6.4H94l1.4,3.3a14.6,14.6,0,0,0,.7,1.9h0l.6-1.9,1.2-3.3h1.5Z"/><path class="cls-1" d="M103.3,68.4a3.6,3.6,0,0,1,7.1,0,3.6,3.6,0,0,1-7.1,0m5.5,0c0-1.4-.8-2.3-1.9-2.3s-1.9.9-1.9,2.3.7,2.2,1.9,2.2a2,2,0,0,0,1.9-2.2"/><path class="cls-1" d="M115.8,63.3l-.8-.2c-.7,0-1,.4-1,1.2v.8h1.5v1.1H114v5.4h-1.6V66.2h-1v-1h1v-.8c0-1.3.7-2.2,2.4-2.2l1.3.2Z"/><path class="cls-1" d="M119.4,70.4l.9-.9a4.3,4.3,0,0,0,2.7,1c1.2,0,1.8-.5,1.8-1.2s-.6-1-1.6-1.4l-1.3-.5c-1-.3-2.1-1-2.1-2.2s1.4-2.4,3.3-2.4a4.2,4.2,0,0,1,3,1.1l-.8.8a3.8,3.8,0,0,0-2.2-.7c-1,0-1.7.4-1.7,1.1s.8,1,1.6,1.3l1.4.5c1.2.4,2,1,2,2.3s-1.3,2.5-3.5,2.5a5.4,5.4,0,0,1-3.5-1.3"/><path class="cls-1" d="M127.7,68.4a3.4,3.4,0,0,1,3.7-3.4,3.8,3.8,0,0,1,2.2.7l-.8.9a2.2,2.2,0,0,0-1.4-.5,2.1,2.1,0,0,0-2.1,2.3,2,2,0,0,0,2.1,2.2A2.3,2.3,0,0,0,133,70l.7.9a3.7,3.7,0,0,1-2.4.8c-2.1,0-3.6-1.2-3.6-3.3"/><path class="cls-1" d="M135,63.1c0-.5.4-.8,1-.8s1,.3,1,.8-.4.8-1,.8-1-.3-1-.8m.2,2h1.6v6.5h-1.6Z"/><path class="cls-1" d="M138.6,68.4A3.4,3.4,0,0,1,142,65a2.8,2.8,0,0,1,3.1,3c0,.3-.1.5-.1.7h-4.9a2.3,2.3,0,0,0,2.4,2,3.4,3.4,0,0,0,1.7-.5l.6.8a5.2,5.2,0,0,1-2.5.7c-2.1,0-3.7-1.2-3.7-3.3m5.1-.6A1.6,1.6,0,0,0,142,66a1.9,1.9,0,0,0-1.9,1.8Z"/><path class="cls-1" d="M146.8,65.1h1.3V66h.1a3.5,3.5,0,0,1,2.4-1c1.6,0,2.3.9,2.3,2.5v4.1h-1.5V67.7c0-1.1-.4-1.6-1.3-1.6a2.4,2.4,0,0,0-1.8.9v4.6h-1.6Z"/><path class="cls-1" d="M154.8,68.4a3.4,3.4,0,0,1,3.7-3.4,3.8,3.8,0,0,1,2.2.7l-.8.9a2.2,2.2,0,0,0-1.4-.5,2.1,2.1,0,0,0-2.1,2.3,2.1,2.1,0,0,0,2.1,2.2,2.3,2.3,0,0,0,1.6-.6l.7.9a3.7,3.7,0,0,1-2.4.8c-2.1,0-3.6-1.2-3.6-3.3"/><path class="cls-1" d="M161.5,68.4a3.3,3.3,0,0,1,3.4-3.4,2.7,2.7,0,0,1,3,3v.7H163a2.1,2.1,0,0,0,2.3,2,3.7,3.7,0,0,0,1.8-.5l.5.8a4.9,4.9,0,0,1-2.5.7,3.3,3.3,0,0,1-3.6-3.3m5.1-.6a1.6,1.6,0,0,0-1.7-1.8,1.9,1.9,0,0,0-1.9,1.8Z"/><path class="cls-1" d="M172.3,69.9c0-1.4,1.4-2.1,4.5-2.4,0-.8-.4-1.4-1.5-1.4a5.1,5.1,0,0,0-2.1.6l-.6-.9a6.6,6.6,0,0,1,3-.8,2.4,2.4,0,0,1,2.7,2.7v3.9h-1.2l-.2-.8h0a4.2,4.2,0,0,1-2.4.9c-1.3,0-2.2-.7-2.2-1.8m4.5,0V68.3c-2.2.3-3,.7-3,1.5s.5.9,1.2.9a2.9,2.9,0,0,0,1.8-.8"/><path class="cls-1" d="M180.6,65.1h1.2l.2.9h0a3.7,3.7,0,0,1,2.5-1c1.6,0,2.3.9,2.3,2.5v4.1h-1.6V67.7c0-1.1-.4-1.6-1.3-1.6a2.6,2.6,0,0,0-1.8.9v4.6h-1.5Z"/><path class="cls-1" d="M188.5,68.4a3.3,3.3,0,0,1,3.2-3.4,3.1,3.1,0,0,1,2.1.7V62.2h1.6v9.4H194l-.2-.8h0a3.4,3.4,0,0,1-2.2.9c-1.9,0-3.1-1.2-3.1-3.3m5.2,1.4V66.7a2.4,2.4,0,0,0-1.7-.6c-1,0-1.8.8-1.8,2.2s.6,2.3,1.8,2.3a2.2,2.2,0,0,0,1.7-.8"/><polygon class="cls-1" points="202.8 64.1 199.9 64.1 199.9 62.9 207.4 62.9 207.4 64.1 204.4 64.1 204.4 71.6 202.8 71.6 202.8 64.1"/><path class="cls-1" d="M207.4,68.4a3.3,3.3,0,0,1,3.4-3.4,2.7,2.7,0,0,1,3,3v.7h-4.9a2.1,2.1,0,0,0,2.3,2,3.5,3.5,0,0,0,1.8-.5l.5.8a4.6,4.6,0,0,1-2.5.7,3.3,3.3,0,0,1-3.6-3.3m5.1-.6a1.6,1.6,0,0,0-1.7-1.8,1.9,1.9,0,0,0-1.9,1.8Z"/><path class="cls-1" d="M215.1,68.4a3.4,3.4,0,0,1,3.7-3.4,3.3,3.3,0,0,1,2.1.7l-.7.9a2.4,2.4,0,0,0-1.4-.5,2.1,2.1,0,0,0-2.1,2.3,2,2,0,0,0,2.1,2.2,2.3,2.3,0,0,0,1.6-.6l.7.9a3.8,3.8,0,0,1-2.5.8,3.2,3.2,0,0,1-3.5-3.3"/><path class="cls-1" d="M222.6,62.2h1.6V66a3.5,3.5,0,0,1,2.4-1c1.6,0,2.3.9,2.3,2.5v4.1h-1.5V67.7c0-1.1-.4-1.6-1.3-1.6a2.4,2.4,0,0,0-1.8.9v4.6h-1.6Z"/><path class="cls-1" d="M231.1,65.1h1.2l.2.9h0a3.7,3.7,0,0,1,2.5-1c1.6,0,2.3.9,2.3,2.5v4.1h-1.6V67.7c0-1.1-.4-1.6-1.2-1.6a2.8,2.8,0,0,0-1.9.9v4.6h-1.5Z"/><path class="cls-1" d="M239,68.4a3.6,3.6,0,1,1,3.5,3.3,3.3,3.3,0,0,1-3.5-3.3m5.5,0a2,2,0,0,0-2-2.3c-1.1,0-1.9.9-1.9,2.3a2,2,0,1,0,3.9,0"/><path class="cls-1" d="M247.9,70.1V62.2h1.6v7.9c0,.4.1.5.3.5h.3l.2,1h-.8c-1.2,0-1.6-.6-1.6-1.6"/><path class="cls-1" d="M251.4,68.4a3.6,3.6,0,1,1,3.5,3.3,3.3,3.3,0,0,1-3.5-3.3m5.5,0a2,2,0,0,0-2-2.3c-1.1,0-1.9.9-1.9,2.3a2,2,0,1,0,3.9,0"/><path class="cls-1" d="M259.8,72.8a1.6,1.6,0,0,1,1.1-1.4h0a1.1,1.1,0,0,1-.7-1.1A1.6,1.6,0,0,1,261,69h0a2.2,2.2,0,0,1-1-1.7c0-1.5,1.4-2.3,2.9-2.3h3.8v1h-1.5a1.7,1.7,0,0,1,.5,1.2c0,1.4-1.2,2.2-2.8,2.2a1.8,1.8,0,0,1-1-.2.8.8,0,0,0-.4.7c0,.4.3.6,1.2.6h1.4c1.8,0,2.7.5,2.7,1.6s-1.5,2.3-3.9,2.3-3.1-.6-3.1-1.7m5.5-.4c0-.5-.5-.7-1.4-.7h-2.2a1.2,1.2,0,0,0-.6,1c0,.6.8,1,2,1s2.2-.6,2.2-1.2m-1-5.1a1.4,1.4,0,1,0-2.8,0,1.4,1.4,0,0,0,2.8,0"/><path class="cls-1" d="M271.6,72a3,3,0,0,1-2.9,2.3l-1-.2.3-1h.6a1.7,1.7,0,0,0,1.6-1.2v-.5l-3-6.4h1.6l1.4,3.3.7,1.9h.1l.6-1.9,1.2-3.3h1.5Z"/><path class="cls-1" d="M91.2,65.1a3.8,3.8,0,0,0-2.5,1h0v-1H87.3v6.5h1.6V67.3a2,2,0,0,1,1.7-.8l.8.2h.1V65.1h-.3"/><path class="cls-1" d="M272.8,43.2h0a22.2,22.2,0,0,0,1.6-6.8,1.8,1.8,0,0,0-2.1-2h-6.5a1.9,1.9,0,0,0-2,2.1V58.1h3.8V53.8a5.7,5.7,0,0,0,2.6.4,3.7,3.7,0,0,0,3.2-1.3,4.6,4.6,0,0,0,1-3.4,15.4,15.4,0,0,0-1.6-6.3Zm-3.7,1.2a7.5,7.5,0,0,1,1.3,3.9,4.4,4.4,0,0,1-.2,1.8,1.5,1.5,0,0,1-1.5.8h-1.1V37.4h2.5a.3.3,0,0,1,.3.3,9.4,9.4,0,0,1-1.4,4.9,1.9,1.9,0,0,0-.2.8,1.9,1.9,0,0,0,.3,1"/><path class="cls-1" d="M259.7,47.2H249.2a1.9,1.9,0,0,0-1.9,1.9v9h14.3v-9a1.9,1.9,0,0,0-1.9-1.9m-2,7.7H251V51c0-.3.1-.7.8-.7H257c.5,0,.7.2.7.7Z"/><path class="cls-1" d="M262.7,37a1.6,1.6,0,0,0-1.6-1.6h-4.8v-.2a2,2,0,1,0-3.9,0v.2H246v3.1h2.4a1.7,1.7,0,0,0-.2,1.8,8.1,8.1,0,0,1,1,2.1H246v3.2h15.1a1.7,1.7,0,0,0,1.6-1.6,1.6,1.6,0,0,0-1.6-1.6h-1.6l.6-2.4a1.7,1.7,0,0,0-.4-1.4h1.4a1.7,1.7,0,0,0,1.6-1.6M257,39.3a14,14,0,0,1-.9,3.1h-3.5a23.8,23.8,0,0,0-1.6-3.6v-.2h6.5a1,1,0,0,0-.4.7"/><path class="cls-1" d="M205.7,49.1a1.7,1.7,0,0,0-1.8-1.5l-1.3.3V35.2a2,2,0,0,0-2-1.9,2,2,0,0,0-1.9,1.9V48.6c-4,.6-7.3.9-7.3.9v3.2s3.4-.2,7.3-.8v6.2h3.9V51.2l1.7-.4a1.6,1.6,0,0,0,1.4-1.7"/><path class="cls-1" d="M197.4,40.1a1.7,1.7,0,0,0-.2-2.2,19.8,19.8,0,0,0-3.8-2.6l-2,2.4a18,18,0,0,1,3.7,2.6,1.6,1.6,0,0,0,2.3-.2"/><path class="cls-1" d="M196.7,46.9a1.5,1.5,0,0,0-.2-2.2,21,21,0,0,0-3.7-2.6l-2.1,2.4a18,18,0,0,1,3.7,2.6,1.6,1.6,0,0,0,2.3-.2"/><path class="cls-1" d="M190.2,42.1a1.6,1.6,0,0,0-1.6-1.6h-2.8V37.8l2.5-.5a1.5,1.5,0,0,0,1.3-1.8,1.6,1.6,0,0,0-1.8-1.4,65.8,65.8,0,0,1-10.3,1.1v3.2h4.4v2.2h-4.5v3.2h4.5a17.3,17.3,0,0,1-4.5,4.8v4.6a19.2,19.2,0,0,0,4.5-4.3v9.3h3.9V48.2a13.3,13.3,0,0,1,1.4,1.9,1.6,1.6,0,0,0,2.3.4,1.5,1.5,0,0,0,.3-2.2,25.9,25.9,0,0,0-4-4.6h2.8a1.6,1.6,0,0,0,1.6-1.6"/><path class="cls-1" d="M219.6,44.6l-1.4.3V40.5h1.4a1.6,1.6,0,0,0,0-3.2h-1.4V35.2a1.9,1.9,0,0,0-3.8,0v2.1h-3v3.2h3v5.1l-3,.6v3.2l3-.6v4.8s.1.7-1.1.7a4.6,4.6,0,0,1-1.9-.3v3.7l2.8.3s4,.1,4-2.5V48.1l1.4-.3a1.6,1.6,0,0,0,0-3.2"/><path class="cls-1" d="M239.3,45.4a2.3,2.3,0,0,0-2.4-2.4h-4.5V40h5.7a1.6,1.6,0,0,0,0-3.2h-5.7V35.2a1.9,1.9,0,1,0-3.8,0v1.6h-6.2V40h6.2v3h-4.2a2.3,2.3,0,0,0-2.4,2.4c0,1.9,1.8,4.5,4.9,7a38,38,0,0,1-5.8,2.1v3.7a43.7,43.7,0,0,0,9.4-3.4,28.8,28.8,0,0,0,9.2,3.4V54.7a32.8,32.8,0,0,1-5.6-2.1c4-3,5.2-6,5.2-7.2m-8.8,4.9a20.1,20.1,0,0,1-3.7-3.3c-.6-.6.2-.8.2-.8h6.9a.5.5,0,0,1,.5.4c0,.2-1.1,1.9-3.9,3.7"/><path class="cls-1" d="M105.8,32.8c-8,0-15.6,6-17,13.4s3.9,13.3,11.9,13.3,15.6-6,17-13.3-4-13.4-11.9-13.4m3.5,5.3a1.5,1.5,0,0,0-.6,1,5.6,5.6,0,0,0,0,1.3c0,1.1-.8,2.1-1.3,3.2s-1,3.4-1.7,5a11.2,11.2,0,0,1-2,3.3,6.8,6.8,0,0,0-1.2,1.2c-.7,1.1-.5,2.7-.9,4a.2.2,0,0,1-.4.1,1.3,1.3,0,0,0-.7-.4c-.2,0-.3-.2-.2-.3a3.5,3.5,0,0,0-.3-1.4c-.6-1.6-4-3.4-3.3-7.9.3-1.8,1.8-3.4,2.7-4.6a56.3,56.3,0,0,1,3.8-4.5,6,6,0,0,1,1.2-1.1,8.4,8.4,0,0,0,1.7-.5c.3-.3.6-.7,1-.7l.3.2.3.3.7.5.5.2.4.2a.4.4,0,0,1,.2.4.4.4,0,0,1-.2.5"/><path class="cls-1" d="M116.1,22.9C115.2,8.6,71.8,1.7,9.1,58.6H22.4c40.9-47.1,99.4-52,90.4-27,0,0,25.5-27.5,55.8-17.3.2.1.4.2.5,0s-.1-.4-.2-.5A45.5,45.5,0,0,0,152,10.6c-20.1,0-35.9,12.3-35.9,12.3"/><g class="cls-2"><rect class="cls-1" x="4.3" y="-26.5" width="169.7" height="113.32" transform="translate(-4.8 36) rotate(-22.3)"/></g></svg>