<svg id="圖層_1" data-name="圖層 1" xmlns="http://www.w3.org/2000/svg" xmlns:xlink="http://www.w3.org/1999/xlink" viewBox="0 0 283.5 113.4"><defs><style>.cls-1{fill:none;}.cls-2{fill:#fff;}.cls-3{clip-path:url(#clip-path);}.cls-4{fill:url(#未命名漸層_35);}.cls-5{clip-path:url(#clip-path-2);}.cls-6{fill:url(#未命名漸層_35-2);}.cls-7{clip-path:url(#clip-path-3);}.cls-8{fill:url(#未命名漸層_35-3);}.cls-9{fill:#fa7805;}.cls-10{clip-path:url(#clip-path-4);}.cls-11{fill:url(#未命名漸層_48);}.cls-12{clip-path:url(#clip-path-5);}.cls-13{fill:url(#未命名漸層_48-2);}.cls-14{clip-path:url(#clip-path-6);}.cls-15{fill:url(#未命名漸層_48-3);}.cls-16{clip-path:url(#clip-path-7);}.cls-17{fill:url(#未命名漸層_48-4);}.cls-18{clip-path:url(#clip-path-8);}.cls-19{fill:url(#未命名漸層_48-5);}.cls-20{clip-path:url(#clip-path-9);}.cls-21{fill:url(#未命名漸層_48-6);}.cls-22{clip-path:url(#clip-path-10);}.cls-23{fill:url(#未命名漸層_48-7);}.cls-24{clip-path:url(#clip-path-11);}.cls-25{fill:url(#未命名漸層_48-8);}.cls-26{clip-path:url(#clip-path-12);}.cls-27{fill:url(#未命名漸層_48-9);}.cls-28{fill:url(#未命名漸層_48-10);}.cls-29{clip-path:url(#clip-path-13);}.cls-30{fill:url(#未命名漸層_48-11);}.cls-31{clip-path:url(#clip-path-14);}.cls-32{fill:url(#未命名漸層_48-12);}.cls-33{clip-path:url(#clip-path-15);}.cls-34{fill:url(#未命名漸層_48-13);}.cls-35{clip-path:url(#clip-path-16);}</style><clipPath id="clip-path"><polygon class="cls-1" points="48 81 61.6 94.6 98.6 63.7 74.2 39.4 48 81"/></clipPath><linearGradient id="未命名漸層_35" x1="487.82" y1="272.63" x2="488.82" y2="272.63" gradientTransform="matrix(56.79, 0, 0, -56.79, -27658.66, 15549.71)" gradientUnits="userSpaceOnUse"><stop offset="0" stop-color="#f5c837"/><stop offset="0.22" stop-color="#f5bc28"/><stop offset="0.72" stop-color="#f5a40b"/><stop offset="1" stop-color="#f59b00"/></linearGradient><clipPath id="clip-path-2"><polygon class="cls-1" points="9 41 41.4 73.4 62.3 31.1 39.9 8.6 9 41"/></clipPath><linearGradient id="未命名漸層_35-2" x1="487.61" y1="275.63" x2="488.61" y2="275.63" gradientTransform="matrix(51.95, 0, 0, -51.95, -25320.23, 14361.56)" xlink:href="#未命名漸層_35"/><clipPath id="clip-path-3"><polygon class="cls-1" points="9 73.4 20.2 104.7 32.7 104.7 41.4 73.4 9 73.4"/></clipPath><linearGradient id="未命名漸層_35-3" x1="495.28" y1="288.14" x2="496.28" y2="288.14" gradientTransform="matrix(39.68, 0, 0, -39.68, -19646.67, 11523.03)" xlink:href="#未命名漸層_35"/><clipPath id="clip-path-4"><polygon class="cls-1" points="130.6 14 130.6 35.2 146.7 35.2 146.7 27.4 138.7 27.4 138.7 14 130.6 14"/></clipPath><linearGradient id="未命名漸層_48" x1="497.64" y1="281.72" x2="498.64" y2="281.72" gradientTransform="matrix(0, -57.21, -57.21, 0, 16255.27, 28547.64)" gradientUnits="userSpaceOnUse"><stop offset="0" stop-color="#f5c837"/><stop offset="1" stop-color="#fa7805"/></linearGradient><clipPath id="clip-path-5"><rect class="cls-1" x="149.5" y="14" width="8.8" height="21.22"/></clipPath><linearGradient id="未命名漸層_48-2" x1="497.64" y1="281.72" x2="498.64" y2="281.72" gradientTransform="matrix(0, -57.21, -57.21, 0, 16270.5, 28547.64)" xlink:href="#未命名漸層_48"/><clipPath id="clip-path-6"><polygon class="cls-1" points="164.8 14.1 161.3 17.6 161.3 31.7 164.8 35.2 179.8 35.2 179.8 22.7 170.8 22.7 170.8 27.1 173.8 27.1 173.8 28.5 169.4 28.5 169.4 21.2 179.6 21.2 179.6 14.1 164.8 14.1"/></clipPath><linearGradient id="未命名漸層_48-3" x1="497.64" y1="281.72" x2="498.64" y2="281.72" gradientTransform="matrix(0, -57.21, -57.21, 0, 16287.17, 28547.64)" xlink:href="#未命名漸層_48"/><clipPath id="clip-path-7"><polygon class="cls-1" points="193.4 14.2 193.4 21 190.8 21 190.8 14.2 182.8 14.2 182.8 35.1 190.8 35.1 190.8 28.2 193.4 28.2 193.4 35.1 201.3 35.1 201.3 14.2 193.4 14.2"/></clipPath><linearGradient id="未命名漸層_48-4" x1="497.64" y1="281.72" x2="498.64" y2="281.72" gradientTransform="matrix(0, -57.21, -57.21, 0, 16308.72, 28547.64)" xlink:href="#未命名漸層_48"/><clipPath id="clip-path-8"><polygon class="cls-1" points="204.1 14.1 204.1 21.4 208.4 21.4 208.4 35.1 216.8 35.1 216.8 21.4 221.1 21.4 221.1 14.1 204.1 14.1"/></clipPath><linearGradient id="未命名漸層_48-5" x1="497.64" y1="281.72" x2="498.64" y2="281.72" gradientTransform="matrix(0, -57.21, -57.21, 0, 16329.26, 28547.64)" xlink:href="#未命名漸層_48"/><clipPath id="clip-path-9"><polygon class="cls-1" points="244.2 14.3 244.2 28.2 241.6 28.2 241.6 14.3 233.7 14.3 233.7 31.9 236.8 35.4 249 35.4 252 31.9 252 14.3 244.2 14.3"/></clipPath><linearGradient id="未命名漸層_48-6" x1="497.64" y1="281.72" x2="498.64" y2="281.72" gradientTransform="matrix(0, -57.21, -57.21, 0, 16359.49, 28547.64)" xlink:href="#未命名漸層_48"/><clipPath id="clip-path-10"><path class="cls-1" d="M262.9,20.5h2.6v4.1h-2.6Zm-7.8-6.4V35.2h7.8V31h7.8l2.9-3.1V17.2l-2.9-3.1Z"/></clipPath><linearGradient id="未命名漸層_48-7" x1="497.64" y1="281.72" x2="498.64" y2="281.72" gradientTransform="matrix(0, -57.21, -57.21, 0, 16380.98, 28547.64)" xlink:href="#未命名漸層_48"/><clipPath id="clip-path-11"><polygon class="cls-1" points="130.2 42.3 130.2 49.6 134.6 49.6 134.6 63.3 142.9 63.3 142.9 49.6 147.3 49.6 147.3 42.3 130.2 42.3"/></clipPath><linearGradient id="未命名漸層_48-8" x1="497.64" y1="281.72" x2="498.64" y2="281.72" gradientTransform="matrix(0, -57.21, -57.21, 0, 16255.39, 28547.64)" xlink:href="#未命名漸層_48"/><clipPath id="clip-path-12"><path class="cls-1" d="M157.6,48.9h2.7v3.9h-2.7Zm-5.3-6.6-2.2,3.1V63.3h7.5v-4h2.7v4h7.6V45.4l-2.2-3.1Z"/></clipPath><linearGradient id="未命名漸層_48-9" x1="497.64" y1="281.72" x2="498.64" y2="281.72" gradientTransform="matrix(0, -57.21, -57.21, 0, 16275.6, 28547.64)" xlink:href="#未命名漸層_48"/><linearGradient id="未命名漸層_48-10" x1="497.64" y1="281.72" x2="498.64" y2="281.72" gradientTransform="matrix(0, -57.21, -57.21, 0, 16292.06, 28547.64)" xlink:href="#未命名漸層_48"/><clipPath id="clip-path-13"><polygon class="cls-1" points="200.3 42.3 200.3 55.3 198.7 55.3 198.7 42.5 192.2 42.5 192.2 55.3 190.6 55.3 190.6 42.3 183 42.3 183 57.6 185.7 63.3 193.7 63.3 195.3 59.8 195.6 59.8 197.1 63.3 205.2 63.3 207.9 57.6 207.9 42.3 200.3 42.3"/></clipPath><linearGradient id="未命名漸層_48-11" x1="497.64" y1="281.72" x2="498.64" y2="281.72" gradientTransform="matrix(0, -57.21, -57.21, 0, 16312.07, 28547.64)" xlink:href="#未命名漸層_48"/><clipPath id="clip-path-14"><path class="cls-1" d="M218.6,48.9h2.7v3.9h-2.7Zm-5.3-6.6-2.2,3.1V63.3h7.5v-4h2.7v4h7.6V45.4l-2.2-3.1Z"/></clipPath><linearGradient id="未命名漸層_48-12" x1="497.64" y1="281.72" x2="498.64" y2="281.72" gradientTransform="matrix(0, -57.21, -57.21, 0, 16336.6, 28547.64)" xlink:href="#未命名漸層_48"/><clipPath id="clip-path-15"><polygon class="cls-1" points="243.5 42.4 243.5 49.5 243 49.5 238.7 42.4 232 42.4 232 63.3 239.5 63.3 239.5 56.1 240 56.1 244.4 63.3 250.9 63.3 250.9 42.4 243.5 42.4"/></clipPath><linearGradient id="未命名漸層_48-13" x1="497.64" y1="281.72" x2="498.64" y2="281.72" gradientTransform="matrix(0, -57.21, -57.21, 0, 16358.07, 28547.64)" xlink:href="#未命名漸層_48"/><clipPath id="clip-path-16"><path class="cls-2" d="M116.1,171c-.9-14.2-44.3-21.2-107,35.8H22.4c40.9-47.1,99.4-52,90.4-27.1,0,0,25.5-27.4,55.8-17.2h.5c.1-.1-.1-.4-.2-.6a47.4,47.4,0,0,0-16.9-3.1c-20.1,0-35.9,12.2-35.9,12.2"/></clipPath></defs><title>icon</title><g class="cls-3"><rect class="cls-4" x="36.2" y="29.6" width="74.1" height="74.78" transform="translate(-25.8 61.3) rotate(-39.2)"/></g><g class="cls-5"><rect class="cls-6" x="-6.3" y="-0.5" width="83.8" height="83" transform="translate(-18.7 40.1) rotate(-48)"/></g><g class="cls-7"><rect class="cls-8" x="9.3" y="72.7" width="31.7" height="32.83" transform="translate(-64.2 113.1) rotate(-89.2)"/></g><rect class="cls-9" x="39.9" y="8.6" width="22.4" height="22.43"/><rect class="cls-9" x="74.2" y="39.4" width="24.4" height="24.36"/><rect class="cls-9" x="9" y="41" width="32.4" height="32.4"/><rect class="cls-9" x="20.2" y="92.3" width="12.5" height="12.5"/><rect class="cls-9" x="48" y="81" width="13.6" height="13.58"/><g class="cls-10"><rect class="cls-11" x="130.6" y="14" width="16.1" height="21.2"/></g><g class="cls-12"><rect class="cls-13" x="149.5" y="14" width="8.8" height="21.22"/></g><g class="cls-14"><rect class="cls-15" x="161.3" y="14.1" width="18.4" height="21.12"/></g><g class="cls-16"><rect class="cls-17" x="182.8" y="14.2" width="18.5" height="20.97"/></g><g class="cls-18"><rect class="cls-19" x="204.1" y="14.1" width="17" height="21.02"/></g><g class="cls-20"><rect class="cls-21" x="233.7" y="14.3" width="18.2" height="21.02"/></g><g class="cls-22"><rect class="cls-23" x="255.1" y="14.1" width="18.6" height="21.15"/></g><g class="cls-24"><rect class="cls-25" x="130.2" y="42.3" width="17" height="21.02"/></g><g class="cls-26"><rect class="cls-27" x="150.1" y="42.3" width="17.8" height="21.04"/></g><rect class="cls-28" x="171" y="42.2" width="8.8" height="21.22"/><rect class="cls-1" x="171" y="42.2" width="8.8" height="21.22"/><g class="cls-29"><rect class="cls-30" x="183" y="42.3" width="24.9" height="20.99"/></g><g class="cls-31"><rect class="cls-32" x="211.1" y="42.3" width="17.8" height="21.04"/></g><g class="cls-33"><rect class="cls-34" x="232" y="42.4" width="18.8" height="20.92"/></g><path class="cls-9" d="M133.9,79.9a14.1,14.1,0,0,0-2.7-1.8l1-1.4a12.2,12.2,0,0,1,2.8,1.7Zm-2.3,6a46.4,46.4,0,0,0,2.3-5.3l1.5,1.1a48.7,48.7,0,0,1-2.1,5.3ZM135,75.2a18.3,18.3,0,0,0-2.9-1.8l1.1-1.3a10.1,10.1,0,0,1,2.9,1.7Zm10.3,6.1c0,.7-.1,1.3-.1,1.8h1v1.7H145a5,5,0,0,1-.5,1.5,1.6,1.6,0,0,1-1.4.7h-2a7.5,7.5,0,0,0-.5-1.6h1.7a.7.7,0,0,0,.6-.2l.2-.5h-6.8c.1-1,.3-2.2.5-3.5h-1.5V79.5H137a10.9,10.9,0,0,0,.3-2.6l-.6.9a7.1,7.1,0,0,0-1.7-1.1,12.9,12.9,0,0,0,2.7-4.9l1.9.5-.5,1.2h7.1v1.7h-7.9a3.9,3.9,0,0,1-.6,1.1h7.9v.8c-.1.9-.1,1.7-.2,2.4h1.2v1.8Zm-6.7,0a11,11,0,0,1-.2,1.8h2.5a10,10,0,0,0-1.5-1.4l.7-.4Zm.5-3.3a7.7,7.7,0,0,0-.2,1.5h2.2a13.6,13.6,0,0,0-1.2-1.2l.6-.3Zm4.3,5.1c0-.5.1-1.1.1-1.8h-2.6l1.4,1.4-.5.4ZM141.2,78l1.3,1.2-.5.3h1.6c0-.5.1-1,.1-1.5Z"/><path class="cls-9" d="M156.4,74.1l1.4.4c-.7,6.7-3.1,10.8-6.8,12.7a6.5,6.5,0,0,0-1.7-1.6,9.8,9.8,0,0,0,4.5-4.3L151.7,79l-.9,1.3a10.1,10.1,0,0,0-1.6-1.3,16.3,16.3,0,0,0,2.9-7.2l2,.3c-.2.7-.3,1.4-.5,2.1h2.8Zm-3.4,2-.5,1.2,2.2,2.1a26.6,26.6,0,0,0,.8-3.3Zm10.2,5.7a21.2,21.2,0,0,0-2.6-3v8.4h-2.1V71.8h2.1v5.5l.7-.6c1.2,1.2,2.8,2.8,3.6,3.8Z"/><path class="cls-9" d="M176.2,71.8a25.4,25.4,0,0,1-.1,2.6c.2,2.2,1.3,8.5,7,11a5.5,5.5,0,0,0-1.4,1.7c-3.7-1.7-5.5-5-6.5-7.8a13.2,13.2,0,0,1-6.1,7.9,4.9,4.9,0,0,0-1.6-1.6c6.7-3.6,6.4-11,6.5-13.8Z"/><path class="cls-9" d="M196.3,74.7c.8.9,2.6,1.3,4.8,1.4a9.1,9.1,0,0,0-1.1,1.6,8,8,0,0,1-4.3-1.7c-.6.8-2,1.4-4.8,1.7a5.3,5.3,0,0,0-.6-1h-4.4V75.1h5v1.1c3.1-.4,3.6-1.1,3.6-1.7v-.3h-1a5.8,5.8,0,0,1-1.2,1.4l-1.5-1a6.6,6.6,0,0,0,2-2.9l1.7.4-.3.7h5l1.4.4a12.8,12.8,0,0,1-1.6,2.6l-1.5-.5.6-1h-1.8v.5Zm.4,9.8a34.1,34.1,0,0,1,4.1,1.7l-1.7,1c-1-.5-2.7-1.3-4.3-1.9l1-.8h-4.7l1.4.6a21.2,21.2,0,0,1-5.1,2.2l-1.5-1.5a22.1,22.1,0,0,0,4.5-1.3h-2.3V77.7h11v6.8ZM190.5,74h-4.2V72.6h4.2Zm-.5,5.6h7.1v-.7H190Zm0,1.8h7.1v-.7H190Zm0,1.9h7.1v-.7H190Z"/><path class="cls-9" d="M218.5,79.5v5.8h-2.1v-.6h-3.7v2.5h-2.1V84.7H207v.7h-2V79.5h5.6v-.9h-5v-5h5V71.8h2.1v1.8h5.1v5h-5.1v.9Zm-7.9,1.8H207v1.6h3.6Zm0-6h-2.9v1.5h2.9Zm2.1,1.5h2.9V75.3h-2.9Zm3.7,4.5h-3.7v1.6h3.7Z"/><path class="cls-9" d="M227.4,74.2v13h-1.6V84.4l-3.3.6-.4-1.7h.9v-9h-.6V72.4H228v1.8Zm-1.6,0h-1.2v1.7h1.2Zm0,3.3h-1.2v1.8h1.2Zm0,5.2V80.9h-1.2v2Zm6.1-5.8a12.1,12.1,0,0,1,.8,2.8l-1.1.3a6.4,6.4,0,0,1-.2-.7c-2.7.3-3.1.4-3.4.6a5.9,5.9,0,0,0-.4-1.7,3.1,3.1,0,0,0,1-.8l.7-.8-1.2.2-.4-1.7a1.7,1.7,0,0,0,.6-.6,12.8,12.8,0,0,0,1.5-2.6l1.4.6a19.2,19.2,0,0,1-1.8,2.8h.8a10.9,10.9,0,0,0,.8-1.5l1.3.7a22.1,22.1,0,0,1-2.7,3.7h1.5l-.3-.9Zm-1.3,3.2h1.6v2.4a4.8,4.8,0,0,1-3,4.8,6.9,6.9,0,0,0-1.1-1.3,3.9,3.9,0,0,0,2.2-1.9h-2v-4h1.5v2.3h.8Zm6-.1a2.9,2.9,0,0,0-.2-.9c-2.6.5-3.1.6-3.4.8a5.9,5.9,0,0,0-.4-1.7c.3,0,.6-.3.9-.7l.8-1.1a4.3,4.3,0,0,0-1.5.3c-.1-.3-.3-1.2-.4-1.6l.7-.5a11.1,11.1,0,0,0,1.4-2.6l1.2.6a9.5,9.5,0,0,1-1.6,2.6h.9a9.1,9.1,0,0,0,.7-1.4l1.3.6a27.5,27.5,0,0,1-2.4,3.8L236,78l-.3-.9,1.1-.4a24.3,24.3,0,0,1,1,2.8Zm-1.2.2H237v4.4h-1.6v-.5h-.8v3.1h-1.7V80.1h1.7v2.3h.8Z"/><path class="cls-9" d="M255.6,81.8h-6.5v5.4h-2V81.8h-6.5v-2h6.5v-5h-5.6v-2h13.2v2h-5.6v5h6.5Zm-11.3-6.5a18.1,18.1,0,0,1,1.3,3.4l-1.9.6a20.8,20.8,0,0,0-1.2-3.5Zm6.1,3.4a13.7,13.7,0,0,0,1.5-3.5l2.1.6c-.6,1.2-1.3,2.6-1.8,3.4Z"/><path class="cls-9" d="M273.6,72.6v1.2h-6.4v.6h5.1v1.1h-12V74.4h5v-.6H259V72.6h6.3v-.8h1.9v.8Zm-6.4,13h6.3v1.3H259.1V85.6h6.2V85h-4.6V83.9h4.6v-.5l-3.7.2a8.3,8.3,0,0,1-.4-1.2l.8-.2,1.2-.5h-2.3v-.3h-1.7V79h14.2v2.4h-1.8V80.2H260.9v.5h10.6v1h-1.1a14,14,0,0,1,1.8,1.3l-1.1.9h1V85h-4.9Zm4.6-7.1H260.9V76h10.9Zm-1.9-1.6h-7.2v.6h7.2Zm-4.6,4.8-1.1.6h4.5l-.9-.5h-2.5Zm1.9,2.2h3.7l-.7-.6h-3Z"/><polygon class="cls-9" points="131.2 93.3 132.4 93.3 132.4 97.4 134.4 97.4 134.4 98.4 131.2 98.4 131.2 93.3"/><path class="cls-9" d="M135.5,93.3c0-.4.3-.6.7-.6s.7.2.7.6-.3.6-.7.6-.7-.2-.7-.6m.1,1.2h1.2v3.9h-1.2Z"/><path class="cls-9" d="M138.2,94.5h1V95h0a1.8,1.8,0,0,1,1.3-.6c.8,0,1.2.6,1.2,1.6v2.4h-1.2V96.1c0-.5-.2-.7-.5-.7s-.4.1-.7.4v2.6h-1.2Z"/><polygon class="cls-9" points="143.2 92.9 144.4 92.9 144.4 96 144.4 96 145.6 94.5 146.9 94.5 145.5 96.1 147 98.4 145.7 98.4 144.8 96.9 144.4 97.4 144.4 98.4 143.2 98.4 143.2 92.9"/><path class="cls-9" d="M147.9,93.3c0-.4.2-.6.7-.6s.7.2.7.6-.3.6-.7.6-.7-.2-.7-.6m0,1.2h1.3v3.9h-1.3Z"/><path class="cls-9" d="M150.6,94.5h1V95h.1a1.4,1.4,0,0,1,1.2-.6c.9,0,1.2.6,1.2,1.6v2.4h-1.2V96.1c0-.5-.1-.7-.4-.7a.8.8,0,0,0-.7.4v2.6h-1.2Z"/><path class="cls-9" d="M155.3,99.1a.9.9,0,0,1,.5-.8h0a.6.6,0,0,1-.3-.6.9.9,0,0,1,.4-.8h0a1.1,1.1,0,0,1-.5-1,1.4,1.4,0,0,1,1.6-1.4h2.1v.9h-.6c0,.1.1.2.1.4s-.7,1.3-1.6,1.3h-.5c0,.1-.1.1-.1.3s.2.2.6.2h.6c1,0,1.5.3,1.5,1s-.8,1.4-2.2,1.4-1.6-.2-1.6-.9m2.7-.3c0-.2-.3-.2-.6-.2h-.9c-.2.1-.2.2-.2.4s.3.4.8.4.9-.2.9-.5m-.5-3c0-.4-.2-.6-.5-.6s-.5.2-.5.6.2.6.5.6.5-.2.5-.6"/><polygon class="cls-9" points="162.2 93.3 165.5 93.3 165.5 94.3 163.5 94.3 163.5 95.4 165.2 95.4 165.2 96.4 163.5 96.4 163.5 98.4 162.2 98.4 162.2 93.3"/><path class="cls-9" d="M166.3,96.4a1.9,1.9,0,0,1,2-2,1.9,1.9,0,0,1,1.9,2,2,2,0,0,1-1.9,2.1,2,2,0,0,1-2-2.1m2.6,0c0-.6-.2-1-.6-1s-.7.4-.7,1,.2,1.1.7,1.1.6-.4.6-1.1"/><path class="cls-9" d="M171.4,94.5h1v.7h.1a1.2,1.2,0,0,1,1.1-.8h.5l-.3,1h-.4c-.3,0-.6.2-.8.7v2.3h-1.2Z"/><path class="cls-9" d="M174.7,96.4a1.9,1.9,0,0,1,1.8-2,1.7,1.7,0,0,1,1.7,1.9.7.7,0,0,1-.1.5h-2.3a1,1,0,0,0,1,.7,1.1,1.1,0,0,0,.8-.2l.5.7a3,3,0,0,1-1.5.5,1.9,1.9,0,0,1-1.9-2.1m2.5-.4a.6.6,0,0,0-.7-.7c-.3,0-.6.2-.7.7Z"/><path class="cls-9" d="M179.1,97.9l.5-.7a2.6,2.6,0,0,0,1,.4c.3,0,.5-.1.5-.3s-.4-.4-.8-.5-1-.5-1-1.2.6-1.2,1.5-1.2a2.2,2.2,0,0,1,1.4.5l-.6.7a1.3,1.3,0,0,0-.8-.3c-.3,0-.4.1-.4.3s.4.3.8.4,1,.5,1,1.2-.6,1.3-1.6,1.3a2,2,0,0,1-1.5-.6"/><path class="cls-9" d="M183.2,93.3c0-.4.3-.6.7-.6s.7.2.7.6-.3.6-.7.6-.7-.2-.7-.6m.1,1.2h1.2v3.9h-1.2Z"/><path class="cls-9" d="M185.7,99.1a.9.9,0,0,1,.5-.8h0a.6.6,0,0,1-.3-.6,1.2,1.2,0,0,1,.4-.8h0a1.1,1.1,0,0,1-.5-1,1.4,1.4,0,0,1,1.6-1.4h2.1v.9h-.6c.1.1.1.2.1.4s-.7,1.3-1.6,1.3H187c-.1.1-.2.1-.2.3s.2.2.6.2h.6c1,0,1.6.3,1.6,1s-.9,1.4-2.3,1.4-1.6-.2-1.6-.9m2.7-.3c0-.2-.2-.2-.6-.2h-.9a.5.5,0,0,0-.2.4c0,.2.3.4.8.4s.9-.2.9-.5m-.5-3c0-.4-.2-.6-.5-.6a.6.6,0,0,0,0,1.2c.3,0,.5-.2.5-.6"/><path class="cls-9" d="M190.6,92.9h1.2v2a1.7,1.7,0,0,1,1.2-.5c.9,0,1.3.6,1.3,1.6v2.4h-1.3V96.1c0-.5-.1-.7-.4-.7a.8.8,0,0,0-.7.4v2.6h-1.2Z"/><path class="cls-9" d="M195.7,96.9V95.4h-.5v-.9h.6V93.4h1v1.1h.9v.9h-.9v1.5c0,.5.2.6.5.6h.4l.2.8-.9.2c-1,0-1.4-.6-1.4-1.6"/><polygon class="cls-9" points="202.1 94.3 200.7 94.3 200.7 93.3 204.7 93.3 204.7 94.3 203.3 94.3 203.3 98.4 202.1 98.4 202.1 94.3"/><path class="cls-9" d="M205,96.4a1.9,1.9,0,0,1,1.8-2c1.2,0,1.7.8,1.7,1.9v.5h-2.3a.8.8,0,0,0,.9.7,1.5,1.5,0,0,0,.9-.2l.4.7a2.7,2.7,0,0,1-1.4.5,1.9,1.9,0,0,1-2-2.1m2.5-.4c0-.4-.2-.7-.6-.7a.8.8,0,0,0-.8.7Z"/><path class="cls-9" d="M209.5,96.4a1.9,1.9,0,0,1,2-2,1.6,1.6,0,0,1,1.2.4l-.6.8a.6.6,0,0,0-.5-.2.9.9,0,0,0-.9,1c0,.7.4,1.1.9,1.1a1.1,1.1,0,0,0,.7-.3l.4.8a1.8,1.8,0,0,1-1.3.5,1.9,1.9,0,0,1-1.9-2.1"/><path class="cls-9" d="M213.8,92.9H215v2a1.5,1.5,0,0,1,1.2-.5c.8,0,1.2.6,1.2,1.6v2.4h-1.2V96.1c0-.5-.2-.7-.5-.7s-.4.1-.7.4v2.6h-1.2Z"/><path class="cls-9" d="M218.8,94.5h.9V95h.1a1.4,1.4,0,0,1,1.2-.6c.9,0,1.2.6,1.2,1.6v2.4h-1.2V96.1c0-.5-.1-.7-.4-.7a.8.8,0,0,0-.7.4v2.6h-1.2Z"/><path class="cls-9" d="M223.5,96.4a1.9,1.9,0,1,1,3.8,0,1.9,1.9,0,1,1-3.8,0m2.6,0c0-.6-.3-1-.7-1s-.7.4-.7,1,.2,1.1.7,1.1.7-.4.7-1.1"/><path class="cls-9" d="M228.5,97.1V92.9h1.2v4.3c0,.2.1.3.2.3h.2v.9h-.6c-.8,0-1.1-.6-1.1-1.4"/><path class="cls-9" d="M231,96.4a1.9,1.9,0,1,1,3.8,0,1.9,1.9,0,1,1-3.8,0m2.5,0c0-.6-.2-1-.6-1s-.7.4-.7,1,.2,1.1.7,1.1.6-.4.6-1.1"/><path class="cls-9" d="M235.7,99.1c0-.4.2-.6.6-.8h0a.7.7,0,0,1-.4-.6,1,1,0,0,1,.5-.8h0a1.2,1.2,0,0,1-.6-1c0-1,.8-1.4,1.7-1.4h2v.9h-.6c.1.1.1.2.1.4s-.7,1.3-1.5,1.3H237c-.1.1-.1.1-.1.3s.2.2.6.2h.6c1,0,1.5.3,1.5,1s-.9,1.4-2.2,1.4-1.7-.2-1.7-.9m2.7-.3c0-.2-.2-.2-.5-.2h-1a.5.5,0,0,0-.2.4c0,.2.4.4.9.4s.8-.2.8-.5m-.4-3c0-.4-.2-.6-.5-.6s-.5.2-.5.6.2.6.5.6.5-.2.5-.6"/><path class="cls-9" d="M240.6,99.8l.2-.9h.2a.7.7,0,0,0,.7-.4v-.2l-1.6-3.8h1.3l.5,1.6.3,1.1h0l.3-1.1.5-1.6h1.1l-1.3,3.9c-.4,1-.8,1.5-1.8,1.5h-.5"/><polygon class="cls-9" points="248.3 94.3 246.9 94.3 246.9 93.3 250.9 93.3 250.9 94.3 249.5 94.3 249.5 98.4 248.3 98.4 248.3 94.3"/><path class="cls-9" d="M251.4,97.3c0-.8.6-1.3,2.1-1.4s-.2-.5-.6-.5l-1,.3-.4-.8a3.4,3.4,0,0,1,1.7-.5c1,0,1.6.5,1.6,1.8v2.2h-1V98h-.1a1.4,1.4,0,0,1-1.1.5,1.1,1.1,0,0,1-1.1-1.2m2.1-.1v-.6c-.7.1-1,.3-1,.6s.2.3.4.3a.6.6,0,0,0,.6-.3"/><path class="cls-9" d="M256.1,97.1V92.9h1.2v4.3a.3.3,0,0,0,.3.3h.1v.9h-.6c-.8,0-1.1-.6-1.1-1.4"/><path class="cls-9" d="M258.6,96.4a1.9,1.9,0,0,1,1.9-2c1.1,0,1.6.8,1.6,1.9v.5h-2.3a.9.9,0,0,0,1,.7,1.3,1.3,0,0,0,.8-.2l.4.7a2.7,2.7,0,0,1-1.4.5,2,2,0,0,1-2-2.1m2.5-.4c0-.4-.2-.7-.6-.7a.6.6,0,0,0-.7.7Z"/><path class="cls-9" d="M263.3,94.5h1V95h0a1.8,1.8,0,0,1,1.3-.6c.8,0,1.2.6,1.2,1.6v2.4h-1.2V96.1c0-.5-.2-.7-.5-.7s-.4.1-.7.4v2.6h-1.2Z"/><path class="cls-9" d="M268.4,96.9V95.4h-.5v-.9h.6V93.4h1v1.1h1v.9h-1v1.5c0,.5.3.6.5.6h.4l.2.8-.9.2c-1,0-1.4-.6-1.4-1.6"/><path class="cls-9" d="M271.3,97.9l.6-.7a1.8,1.8,0,0,0,1,.4c.3,0,.4-.1.4-.3s-.4-.4-.8-.5-1-.5-1-1.2.6-1.2,1.5-1.2a1.8,1.8,0,0,1,1.4.5l-.5.7-.8-.3c-.3,0-.4.1-.4.3s.3.3.7.4,1.1.5,1.1,1.2-.6,1.3-1.7,1.3a2.2,2.2,0,0,1-1.5-.6"/><path class="cls-2" d="M116.1,171c-.9-14.2-44.3-21.2-107,35.8H22.4c40.9-47.1,99.4-52,90.4-27.1,0,0,25.5-27.4,55.8-17.2h.5c.1-.1-.1-.4-.2-.6a47.4,47.4,0,0,0-16.9-3.1c-20.1,0-35.9,12.2-35.9,12.2"/><g class="cls-35"><rect class="cls-2" x="4.3" y="121.6" width="169.7" height="113.32" transform="translate(-60.9 47.1) rotate(-22.3)"/></g></svg>