<?xml version="1.0" encoding="utf-8"?>
<!-- Generator: Adobe Illustrator 22.0.1, SVG Export Plug-In . SVG Version: 6.00 Build 0)  -->
<svg version="1.1" id="圖層_1" xmlns="http://www.w3.org/2000/svg" xmlns:xlink="http://www.w3.org/1999/xlink" x="0px" y="0px"
	 viewBox="0 0 88 88" style="enable-background:new 0 0 88 88;" xml:space="preserve">
<style type="text/css">
	.st0{fill:#366694;}
	.st1{fill:none;stroke:#366694;stroke-width:3;stroke-linecap:round;stroke-linejoin:round;}
</style>
<title>icon</title>
<path class="st0" d="M44,40.6c4.3,0,7.7,3.4,7.7,7.7S48.3,56,44,56s-7.7-3.4-7.7-7.7c-0.1-4.2,3.3-7.6,7.5-7.7
	C43.9,40.6,43.9,40.6,44,40.6 M44,37.6c-5.9,0-10.7,4.8-10.7,10.7S38.1,59,44,59s10.7-4.8,10.7-10.7S49.9,37.6,44,37.6L44,37.6z"/>
<path class="st0" d="M21.5,33.8c4.3-0.1,7.8,3.4,7.9,7.7c0.1,4.3-3.4,7.8-7.7,7.9c-4.3,0.1-7.8-3.4-7.9-7.7c0-0.1,0-0.1,0-0.2
	C13.9,37.3,17.3,33.9,21.5,33.8 M21.5,30.8c-6,0-10.8,4.8-10.8,10.8c0,6,4.8,10.8,10.8,10.8c6,0,10.8-4.8,10.8-10.8c0,0,0-0.1,0-0.1
	c0-5.9-4.8-10.7-10.7-10.7C21.6,30.8,21.5,30.8,21.5,30.8z"/>
<path class="st0" d="M66.3,33.8c4.3-0.1,7.8,3.4,7.9,7.7s-3.4,7.8-7.7,7.9s-7.8-3.4-7.9-7.7c0-0.1,0-0.1,0-0.2
	C58.6,37.2,62,33.8,66.3,33.8L66.3,33.8 M66.3,30.8c-6,0-10.8,4.8-10.8,10.8s4.8,10.8,10.8,10.8c6,0,10.8-4.8,10.8-10.8
	c0,0,0-0.1,0-0.1c0-5.9-4.8-10.7-10.7-10.7C66.4,30.8,66.3,30.8,66.3,30.8z"/>
<path class="st1" d="M28,74.8V66c0-1.5,5.9-5,16-5s16,3.5,16,5v8.8"/>
<path class="st1" d="M5.7,68.3v-8.8c0-1.4,5.9-4.9,16-4.9c6.4,0,11.1,1.4,13.7,2.8"/>
<path class="st1" d="M52.5,57.4c2.6-1.4,7.3-2.8,13.8-2.8c10.1,0,16,3.5,16,4.9v8.8"/>
<line class="st1" x1="35.6" y1="31.3" x2="43.1" y2="23.8"/>
<line class="st1" x1="49.7" y1="33.7" x2="57.3" y2="26.2"/>
<line class="st1" x1="45.3" y1="29" x2="60.4" y2="14.1"/>
<polyline class="st1" points="51.5,13.3 61.1,13.3 61.1,21.9 "/>
</svg>
