<?xml version="1.0" encoding="utf-8"?>
<!-- Generator: Adobe Illustrator 22.0.1, SVG Export Plug-In . SVG Version: 6.00 Build 0)  -->
<svg version="1.1" id="圖層_1" xmlns="http://www.w3.org/2000/svg" xmlns:xlink="http://www.w3.org/1999/xlink" x="0px" y="0px"
	 viewBox="0 0 88 88" style="enable-background:new 0 0 88 88;" xml:space="preserve">
<style type="text/css">
	.st0{fill:#FFBF61;}
</style>
<title>icon</title>
<path class="st0" d="M41.6,29.6h4.8c0.7,0,1.2-0.5,1.2-1.2v0v-4.8c0-0.7-0.5-1.2-1.2-1.2l0,0h-4.8c-0.7,0-1.2,0.5-1.2,1.2v0v4.8
	C40.4,29.1,40.9,29.6,41.6,29.6z M42.8,24.8h2.4v2.4h-2.4V24.8z"/>
<path class="st0" d="M32,20h4.8c0.7,0,1.2-0.5,1.2-1.2v0V14c0-0.7-0.5-1.2-1.2-1.2l0,0H32c-0.7,0-1.2,0.5-1.2,1.2c0,0,0,0,0,0v4.8
	C30.8,19.5,31.3,20,32,20L32,20z M33.2,15.2h2.4v2.4h-2.4V15.2z"/>
<path class="st0" d="M32,29.6h4.8c0.7,0,1.2-0.5,1.2-1.2v0v-4.8c0-0.7-0.5-1.2-1.2-1.2l0,0H32c-0.7,0-1.2,0.5-1.2,1.2v0v4.8
	C30.8,29.1,31.3,29.6,32,29.6z M33.2,24.8h2.4v2.4h-2.4V24.8z"/>
<path class="st0" d="M22.4,22.4h-4.8c-0.7,0-1.2,0.5-1.2,1.2v0v4.8c0,0.7,0.5,1.2,1.2,1.2h0h4.8c0.6,0,1.2-0.6,1.2-1.2v-4.8
	C23.6,22.9,23.1,22.4,22.4,22.4C22.4,22.4,22.4,22.4,22.4,22.4z M21.2,27.2h-2.4v-2.4h2.4V27.2z"/>
<path class="st0" d="M22.4,32h-4.8c-0.7,0-1.2,0.5-1.2,1.2l0,0V38c0,0.7,0.5,1.2,1.2,1.2h0h4.8c0.7,0,1.2-0.5,1.2-1.2v-4.8
	C23.6,32.5,23.1,32,22.4,32L22.4,32z M21.2,36.8h-2.4v-2.4h2.4V36.8z"/>
<path class="st0" d="M22.4,41.6h-4.8c-0.7,0-1.2,0.5-1.2,1.2l0,0v4.8c0,0.7,0.5,1.2,1.2,1.2h0h4.8c0.7,0,1.2-0.5,1.2-1.2l0,0v-4.8
	C23.6,42.1,23.1,41.6,22.4,41.6C22.4,41.6,22.4,41.6,22.4,41.6z M21.2,46.4h-2.4V44h2.4V46.4z"/>
<path class="st0" d="M65.6,29.6h4.8c0.7,0,1.2-0.5,1.2-1.2v-4.8c0-0.7-0.5-1.2-1.2-1.2h-4.8c-0.7,0-1.2,0.5-1.2,1.2v4.8
	C64.4,29,65,29.6,65.6,29.6z M66.8,24.8h2.4v2.4h-2.4L66.8,24.8z"/>
<path class="st0" d="M51.2,29.6H56c0.7,0,1.2-0.5,1.2-1.2v0v-4.8c0-0.7-0.5-1.2-1.2-1.2l0,0h-4.8c-0.7,0-1.2,0.5-1.2,1.2v0v4.8
	C50,29.1,50.5,29.6,51.2,29.6z M52.4,24.8h2.4v2.4h-2.4V24.8z"/>
<path class="st0" d="M41.6,20h4.8c0.7,0,1.2-0.5,1.2-1.2v0V14c0-0.7-0.5-1.2-1.2-1.2l0,0h-4.8c-0.7,0-1.2,0.5-1.2,1.2v4.8
	C40.4,19.5,40.9,20,41.6,20z M42.8,15.2h2.4v2.4h-2.4V15.2z"/>
<path class="st0" d="M51.2,20H56c0.7,0,1.2-0.5,1.2-1.2v0V14c0-0.7-0.5-1.2-1.2-1.2l0,0h-4.8c-0.7,0-1.2,0.5-1.2,1.2c0,0,0,0,0,0
	v4.8C50,19.5,50.5,20,51.2,20L51.2,20z M52.4,15.2h2.4v2.4h-2.4V15.2z"/>
<path class="st0" d="M41.6,39.2h4.8c0.7,0,1.2-0.5,1.2-1.2l0,0v-4.8c0-0.7-0.5-1.2-1.2-1.2h-4.8c-0.7,0-1.2,0.5-1.2,1.2l0,0V38
	C40.4,38.7,40.9,39.2,41.6,39.2L41.6,39.2z M42.8,34.4h2.4v2.4h-2.4V34.4z"/>
<path class="st0" d="M32,39.2h4.8c0.7,0,1.2-0.5,1.2-1.2l0,0v-4.8c0-0.7-0.5-1.2-1.2-1.2l0,0H32c-0.7,0-1.2,0.5-1.2,1.2l0,0V38
	C30.8,38.7,31.3,39.2,32,39.2L32,39.2z M33.2,34.4h2.4v2.4h-2.4V34.4z"/>
<path class="st0" d="M51.2,39.2H56c0.7,0,1.2-0.5,1.2-1.2l0,0v-4.8c0-0.7-0.5-1.2-1.2-1.2l0,0h-4.8c-0.7,0-1.2,0.5-1.2,1.2l0,0V38
	C50,38.7,50.5,39.2,51.2,39.2L51.2,39.2z M52.4,34.4h2.4v2.4h-2.4V34.4z"/>
<path class="st0" d="M41.6,48.8h4.8c0.7,0,1.2-0.5,1.2-1.2l0,0v-4.8c0-0.7-0.5-1.2-1.2-1.2l0,0h-4.8c-0.7,0-1.2,0.5-1.2,1.2l0,0v4.8
	C40.4,48.3,40.9,48.8,41.6,48.8L41.6,48.8z M42.8,44h2.4v2.4h-2.4V44z"/>
<path class="st0" d="M32,48.8h4.8c0.7,0,1.2-0.5,1.2-1.2l0,0v-4.8c0-0.7-0.5-1.2-1.2-1.2l0,0H32c-0.7,0-1.2,0.5-1.2,1.2l0,0v4.8
	C30.8,48.3,31.3,48.8,32,48.8L32,48.8z M33.2,44h2.4v2.4h-2.4V44z"/>
<path class="st0" d="M51.2,48.8H56c0.7,0,1.2-0.5,1.2-1.2l0,0v-4.8c0-0.7-0.5-1.2-1.2-1.2l0,0h-4.8c-0.7,0-1.2,0.5-1.2,1.2l0,0v4.8
	C50,48.3,50.5,48.8,51.2,48.8L51.2,48.8z M52.4,44h2.4v2.4h-2.4V44z"/>
<path class="st0" d="M65.6,39.2h4.8c0.7,0,1.2-0.5,1.2-1.2v-4.8c0-0.7-0.5-1.2-1.2-1.2h-4.8c-0.7,0-1.2,0.5-1.2,1.2V38
	C64.4,38.7,64.9,39.2,65.6,39.2z M66.8,34.4h2.4v2.4h-2.4L66.8,34.4z"/>
<path class="st0" d="M65.6,48.8h4.8c0.7,0,1.2-0.5,1.2-1.2v-4.8c0-0.7-0.5-1.2-1.2-1.2h-4.8c-0.7,0-1.2,0.5-1.2,1.2v4.8
	C64.4,48.3,64.9,48.8,65.6,48.8z M66.8,44h2.4v2.4h-2.4V44z"/>
<path class="st0" d="M77.6,51.2h-1.2V18.8c0-0.7-0.5-1.2-1.2-1.2H62V9.2C62,8.5,61.5,8,60.8,8l0,0H27.2C26.5,8,26,8.5,26,9.2
	c0,0,0,0,0,0v8.4H12.8c-0.7,0-1.2,0.5-1.2,1.2l0,0v32.4h-1.2c-0.7,0-1.2,0.5-1.2,1.2l0,0V62c0,0.7,0.5,1.2,1.2,1.2c0,0,0,0,0,0h1.2
	v15.6c0,0.7,0.5,1.2,1.2,1.2h62.4c0.7,0,1.2-0.5,1.2-1.2V63.2h1.2c0.7,0,1.2-0.5,1.2-1.2c0,0,0,0,0,0v-9.6
	C78.8,51.7,78.3,51.2,77.6,51.2C77.6,51.2,77.6,51.2,77.6,51.2z M74,20v31.2H62V20H74z M28.4,10.4h31.2v40.8H28.4V10.4z M14,20h12
	v31.2H14V20z M14,63.2h7.2v14.4H14V63.2z M64.4,63.2v14.4H62V63.2H64.4z M59.6,77.6h-8.4V63.2h8.4V77.6z M39.2,68h3.6v9.6h-3.6V68z
	 M45.2,68h3.6v9.6h-3.6V68z M48.8,65.6h-9.6v-2.4h9.6L48.8,65.6z M36.8,77.6h-8.4V63.2h8.4V77.6z M26,77.6h-2.4V63.2H26V77.6z
	 M74,77.6h-7.2V63.2H74V77.6z M76.4,60.8H11.6v-7.2h64.8V60.8z"/>
<path class="st0" d="M30.8,58.4h26.4c0.7,0,1.2-0.5,1.2-1.2l0,0c0-0.7-0.5-1.2-1.2-1.2l0,0H30.8c-0.7,0-1.2,0.5-1.2,1.2l0,0
	C29.6,57.9,30.1,58.4,30.8,58.4L30.8,58.4z"/>
<circle class="st0" cx="15.2" cy="57.2" r="1.2"/>
<circle class="st0" cx="20" cy="57.2" r="1.2"/>
<circle class="st0" cx="24.8" cy="57.2" r="1.2"/>
<circle class="st0" cx="63.2" cy="57.2" r="1.2"/>
<circle class="st0" cx="68" cy="57.2" r="1.2"/>
<circle class="st0" cx="72.8" cy="57.2" r="1.2"/>
</svg>
