<?xml version="1.0" encoding="utf-8"?>
<!-- Generator: Adobe Illustrator 22.0.1, SVG Export Plug-In . SVG Version: 6.00 Build 0)  -->
<svg version="1.1" id="圖層_1" xmlns="http://www.w3.org/2000/svg" xmlns:xlink="http://www.w3.org/1999/xlink" x="0px" y="0px"
	 viewBox="0 0 88 88" style="enable-background:new 0 0 88 88;" xml:space="preserve">
<style type="text/css">
	.st0{fill:#FF5F5F;}
	.st1{fill:none;stroke:#FF5F5F;stroke-width:3;stroke-linecap:round;stroke-linejoin:round;}
</style>
<title>icon</title>
<path class="st0" d="M44,42.3c4.3-0.1,7.8,3.4,7.9,7.7s-3.4,7.8-7.7,7.9s-7.8-3.4-7.9-7.7c0-0.1,0-0.1,0-0.2
	C36.3,45.7,39.7,42.3,44,42.3L44,42.3 M44,39.3C38,39.2,33.2,44,33.1,50s4.7,10.8,10.7,10.9s10.8-4.7,10.9-10.7c0-0.1,0-0.1,0-0.2
	C54.7,44.1,49.9,39.3,44,39.3L44,39.3z"/>
<path class="st0" d="M21.5,35.6c4.3,0,7.7,3.4,7.7,7.7S25.8,51,21.5,51s-7.7-3.4-7.7-7.7C13.8,39,17.2,35.6,21.5,35.6L21.5,35.6
	 M21.5,32.6c-5.9,0.1-10.7,4.9-10.6,10.8S15.8,54.1,21.7,54c5.9-0.1,10.6-4.8,10.6-10.7c0-5.9-4.8-10.7-10.7-10.7
	C21.6,32.6,21.5,32.6,21.5,32.6z"/>
<path class="st0" d="M66.3,35.6c4.3,0,7.7,3.4,7.7,7.7S70.6,51,66.3,51s-7.7-3.4-7.7-7.7S62,35.6,66.3,35.6 M66.3,32.6
	c-5.9,0.1-10.7,4.9-10.6,10.8S60.6,54.1,66.5,54c5.9-0.1,10.6-4.8,10.6-10.7c0-5.9-4.8-10.7-10.7-10.7
	C66.4,32.6,66.3,32.6,66.3,32.6z"/>
<path class="st1" d="M28,76.5v-8.8c0-1.4,5.9-4.9,16-4.9s16,3.5,16,4.9v8.8"/>
<path class="st1" d="M5.7,70.1v-8.8c0-1.4,5.9-5,16-5c6.4,0,11.1,1.4,13.7,2.8"/>
<path class="st1" d="M52.5,59.2c2.6-1.4,7.3-2.9,13.8-2.9c10.1,0,16,3.6,16,5v8.8"/>
<line class="st1" x1="56.5" y1="22" x2="49" y2="29.5"/>
<line class="st1" x1="50.3" y1="11.5" x2="42.8" y2="19"/>
<line class="st1" x1="51.4" y1="19.1" x2="36.4" y2="34"/>
<polyline class="st1" points="45.3,34.8 35.6,34.8 35.6,26.2 "/>
</svg>
