<?xml version="1.0" encoding="utf-8"?>
<!-- Generator: Adobe Illustrator 22.0.1, SVG Export Plug-In . SVG Version: 6.00 Build 0)  -->
<svg version="1.1" id="圖層_1" xmlns="http://www.w3.org/2000/svg" xmlns:xlink="http://www.w3.org/1999/xlink" x="0px" y="0px"
	 viewBox="0 0 88 88" style="enable-background:new 0 0 88 88;" xml:space="preserve">
<style type="text/css">
	.st0{fill:#63CECB;}
</style>
<title>icon</title>
<g id="Research">
	<path class="st0" d="M43.8,23.1c-6.7,3.9-9,12.5-5.1,19.3s12.5,9,19.3,5.1c6.7-3.9,9-12.5,5.2-19.2C59.2,21.5,50.6,19.2,43.8,23.1
		C43.8,23.1,43.8,23.1,43.8,23.1z M61.2,29.3c3.4,5.7,1.5,13.1-4.2,16.5S44,47.3,40.6,41.6c-1.2-2-1.8-4.2-1.7-6.5l4.6,4.3
		c-0.6,1.7,0.3,3.6,2,4.2c1.5,0.5,3.2-0.1,4-1.5c0.4-1,0.3-2.1-0.2-3l4.8-6.1h1.1c1.8,0,3.2-1.4,3.2-3.2c0,0,0,0,0,0
		c0.1-1.8-1.3-3.2-3.1-3.3c0,0-0.1,0-0.1,0c-1.8,0-3.3,1.5-3.3,3.3c0,0.6,0.2,1.2,0.5,1.7l-4.7,6.1c-0.9-0.3-1.9-0.3-2.7,0.2
		l-5.8-5.4c1.5-6.4,7.9-10.3,14.3-8.8c0,0,0,0,0.1,0c3.2,0.8,5.9,2.8,7.6,5.6V29.3z M47.6,40.7c0,0.6-0.5,1.1-1.1,1.1
		c-0.6,0-1.1-0.5-1.1-1.1l0,0c0-0.6,0.5-1.1,1.1-1.1C47.1,39.6,47.6,40.1,47.6,40.7z M54.1,29.9c0-0.6,0.5-1.1,1.1-1.1
		c0.6,0,1.1,0.5,1.1,1.1S55.8,31,55.2,31S54.1,30.5,54.1,29.9C54.1,29.9,54.1,29.9,54.1,29.9z"/>
	<path class="st0" d="M75.5,67.2l-7.5-13c-0.3-0.5-1-0.7-1.5-0.4l-0.9,0.6l-2.9-5c7.8-6.6,8.8-18.2,2.3-26c-1-1.1-2.1-2.1-3.3-3
		v-7.9c0-0.6-0.5-1.1-1.1-1.1H23.7c-0.3,0-0.6,0.1-0.8,0.3L12.1,22.6c-0.2,0.2-0.4,0.5-0.4,0.8v52.1c0,0.6,0.5,1.1,1.1,1.1h47.8
		c0.6,0,1.1-0.5,1.1-1.1V65l4.4,7.7c1.5,2.6,4.8,3.5,7.4,2c0,0,0,0,0,0C76.1,73.2,77,69.9,75.5,67.2L75.5,67.2z M63.7,55.5l-1.9,1
		l-2.7-4.7l1-0.5l0.9-0.6L63.7,55.5z M64.9,27.2c4.5,7.8,1.9,17.9-6,22.4s-17.9,1.9-22.4-6s-1.9-17.9,6-22.4
		c3.8-2.2,8.3-2.8,12.5-1.6C59.2,20.7,62.8,23.4,64.9,27.2z M22.6,15.1v7.2h-7.2L22.6,15.1z M59.5,74.4H13.9V24.5h9.8
		c0.6,0,1.1-0.5,1.1-1.1l0,0v-9.8h34.7V19c-1.3-0.6-2.6-1.1-3.9-1.5c-8.7-2.4-17.9,1.9-21.5,10.2l-0.9-0.9c0.7-1.7-0.1-3.6-1.7-4.3
		c-1.7-0.7-3.6,0.1-4.3,1.7c-0.5,1.2-0.3,2.5,0.5,3.5l-5.6,9.8h-0.6c-1.8,0-3.2,1.4-3.2,3.2l0,0c-0.1,1.8,1.3,3.2,3.1,3.3
		c0,0,0.1,0,0.1,0c1.8,0,3.3-1.5,3.3-3.3l0,0c0-0.8-0.3-1.5-0.8-2.1l5.6-9.9h0.6c0.5,0,1-0.1,1.5-0.4l1.5,1.5c-3,9.7,2.4,20,12.1,23
		L46,53c1.6,0.5,3.2,0.7,4.9,0.7c2.1,0,4.2-0.4,6.2-1.1l2.8,4.9L59,58.1c-0.5,0.3-0.7,1-0.4,1.5l0.9,1.5L59.5,74.4z M29.1,25.5
		c0-0.6,0.5-1.1,1.1-1.1s1.1,0.5,1.1,1.1s-0.5,1.1-1.1,1.1S29.1,26.1,29.1,25.5L29.1,25.5z M22.6,40.7c0,0.6-0.5,1.1-1.1,1.1
		s-1.1-0.5-1.1-1.1l0,0c0-0.6,0.5-1.1,1.1-1.1S22.6,40.1,22.6,40.7z M74,70.8c-0.5,1.7-2.3,2.7-4,2.3c-0.8-0.2-1.6-0.7-2-1.5
		l-7-12.1l5.7-3.2l6.9,12C74.1,69,74.2,69.9,74,70.8z"/>
	<path class="st0" d="M54.1,70.1H53v-9.8c0-0.6-0.5-1.1-1.1-1.1h-4.3c-0.6,0-1.1,0.5-1.1,1.1v9.8h-2.2V55.9c0-0.6-0.4-1-1-1
		c0,0-0.1,0-0.1,0h-4.3c-0.5-0.1-1,0.3-1.1,0.9c0,0,0,0.1,0,0.1v14.2h-2.2v-9.8c0-0.6-0.5-1.1-1.1-1.1h-4.3c-0.6,0-1.1,0.5-1.1,1.1
		v9.8h-2.2v-5.5c0.1-0.5-0.3-1-0.9-1.1c0,0-0.1,0-0.1,0h-4.4c-0.6,0-1.1,0.5-1.1,1.1v5.5h-1.1c-0.6,0-1,0.4-1,1c0,0,0,0.1,0,0.1
		c0,0.6,0.4,1,1,1h34.8c0.6,0,1-0.4,1.1-1C55.2,70.6,54.7,70.1,54.1,70.1z M22.6,70.1v-4.4h2.2v4.4H22.6z M31.3,70.1v-8.7h2.2v8.7
		H31.3z M40,70.1V57h2.1v13.1H40z M48.7,70.1v-8.7h2.1v8.7H48.7z"/>
	<path class="st0" d="M18.3,50.5h13c0.6,0,1.1-0.5,1.1-1.1c0-0.6-0.5-1.1-1.1-1.1l0,0h-13c-0.6,0-1.1,0.5-1.1,1.1
		C17.2,50,17.7,50.5,18.3,50.5z"/>
	<path class="st0" d="M31.3,54.9c0.6,0,1.1-0.5,1.1-1.1c0-0.6-0.5-1.1-1.1-1.1l0,0h-13c-0.6,0-1.1,0.5-1.1,1.1
		c0,0.6,0.5,1.1,1.1,1.1H31.3z"/>
</g>
</svg>
